<svg width="100%" height="100%" overflow="visible" style="display: block;" viewBox="0 0 79 14" fill="none" xmlns="http://www.w3.org/2000/svg">
<g id="Group 1">
<path id="Vector" d="M2.86875 14L4.0875 8.82368L0 5.34211L5.4 4.88158L7.5 0L9.6 4.88158L15 5.34211L10.9125 8.82368L12.1312 14L7.5 11.2553L2.86875 14Z" fill="var(--fill-0, #FF3D2E)"/>
<path id="Vector_2" d="M34.8687 14L36.0875 8.82368L32 5.34211L37.4 4.88158L39.5 0L41.6 4.88158L47 5.34211L42.9125 8.82368L44.1312 14L39.5 11.2553L34.8687 14Z" fill="var(--fill-0, #FF3D2E)"/>
<path id="Vector_3" d="M18.8687 14L20.0875 8.82368L16 5.34211L21.4 4.88158L23.5 0L25.6 4.88158L31 5.34211L26.9125 8.82368L28.1312 14L23.5 11.2553L18.8687 14Z" fill="var(--fill-0, #FF3D2E)"/>
<path id="Vector_4" d="M50.8687 14L52.0875 8.82368L48 5.34211L53.4 4.88158L55.5 0L57.6 4.88158L63 5.34211L58.9125 8.82368L60.1312 14L55.5 11.2553L50.8687 14Z" fill="var(--fill-0, #FF3D2E)"/>
<path id="Vector_5" d="M66.8687 14L68.0875 8.82368L64 5.34211L69.4 4.88158L71.5 0L73.6 4.88158L79 5.34211L74.9125 8.82368L76.1312 14L71.5 11.2553L66.8687 14Z" fill="var(--fill-0, #FF3D2E)"/>
</g>
</svg>
