<svg width="78" height="34" viewBox="0 0 78 34" fill="none" xmlns="http://www.w3.org/2000/svg">
<g clip-path="url(#clip0_5_1096)">
<path d="M60.3301 0C60.3301 17.0005 60.3303 17.001 77.1426 17.001C60.3303 17.001 60.3301 17.0007 60.3301 34C60.3301 19.2965 60.3303 17.3121 49.4502 17.0439C38.5721 17.3122 38.5723 19.297 38.5723 34C38.5723 19.2967 38.572 17.3122 27.6924 17.0439C16.8138 17.3122 16.8135 19.2968 16.8135 34C16.8135 17.0006 16.8138 17.001 0 17.001C16.8138 17.001 16.8135 17.0006 16.8135 0C16.8135 14.7043 16.8139 16.6888 27.6924 16.957C38.572 16.6888 38.5723 14.7044 38.5723 0C38.5723 14.7041 38.5721 16.6887 49.4502 16.957C60.3302 16.6888 60.3301 14.7046 60.3301 0Z" fill="#D44E1A"/>
</g>
<defs>
<clipPath id="clip0_5_1096">
<rect width="77.1426" height="34" fill="white"/>
</clipPath>
</defs>
</svg>
