<svg width="100%" height="100%" overflow="visible" style="display: block;" viewBox="0 0 30 49.9989" fill="none" xmlns="http://www.w3.org/2000/svg">
<path id="Vector" d="M27.2277 28.0102C23.7353 26.7915 20.8045 24.3153 18.9902 21.0507H30C23.0316 17.7608 17.8865 11.4692 15.9842 3.91165L14.9997 0V8.96349C14.9997 11.5327 12.9481 13.6152 10.4168 13.6152H0L3.02718 14.4166C6.76705 15.4067 10.0184 17.7576 12.1622 21.0217H0L2.77231 21.9887C6.26473 23.2074 9.19547 25.6836 11.0098 28.9482H0C6.9684 32.2381 12.1135 38.5297 14.0158 46.0873L15.0003 49.9989V41.0354C15.0003 38.4662 17.0519 36.3837 19.5832 36.3837H30L26.9728 35.5824C23.233 34.5922 19.9816 32.2414 17.8378 28.9773H30L27.2277 28.0102Z" fill="var(--fill-0, #060411)"/>
</svg>
