<svg width="190" height="48" viewBox="0 0 190 48" fill="none" xmlns="http://www.w3.org/2000/svg">
<g clip-path="url(#clip0_7202_19761)">
<path d="M184.639 41.6738C184.488 41.5156 184.396 41.3231 184.371 41.1178V41.0707V41.0237C184.4 40.8184 184.492 40.6259 184.639 40.4719L189.861 34.9755C189.999 34.8301 190.032 34.6205 189.949 34.4409C189.865 34.2612 189.681 34.1458 189.477 34.1458C189.381 34.1458 189.284 34.1714 189.205 34.2185L181.965 38.4915C181.622 38.6925 181.2 38.6925 180.858 38.4915L173.617 34.2185C173.534 34.1714 173.442 34.1458 173.346 34.1458C173.141 34.1458 172.953 34.2612 172.873 34.4409C172.79 34.6205 172.828 34.8301 172.961 34.9755L178.184 40.4719C178.334 40.6302 178.426 40.8226 178.451 41.0279V41.0707V41.1178C178.422 41.3231 178.33 41.5156 178.184 41.6695L172.961 47.1659C172.823 47.3113 172.79 47.5209 172.873 47.7006C172.957 47.8802 173.141 47.9957 173.346 47.9957C173.442 47.9957 173.534 47.97 173.617 47.923L180.858 43.6499C181.029 43.5516 181.221 43.5002 181.413 43.5002C181.605 43.5002 181.798 43.5516 181.965 43.6499L189.205 47.923C189.289 47.97 189.381 47.9957 189.477 47.9957C189.681 47.9957 189.865 47.8802 189.949 47.7006C190.032 47.5209 189.995 47.3113 189.861 47.1659L184.639 41.6695V41.6738Z" fill="#F9F9EA"/>
<path d="M56.7249 36.2202V16.7328C56.7249 13.944 58.1413 12.5881 61.0616 12.5881H70.9132L66.1754 7.66919H59.2609C56.3698 7.66919 54.3686 8.30651 53.1319 9.61537C51.9119 10.9071 51.3438 12.8875 51.3438 15.8474V30.7239C51.3438 33.641 53.721 36.032 56.7249 36.2245" fill="#F9F9EA"/>
<path d="M79.2228 36.2202L89.7929 25.1077L100.146 36.2202H107.39L93.5614 21.8569L107.19 7.63916H100.104L90.0186 18.0501L80.3174 7.63916H73.1313L86.3085 21.3052L72.1328 36.2202H79.2228Z" fill="#F9F9EA"/>
<path d="M115.924 17.1991C115.924 14.3889 117.779 12.7763 121.013 12.7763H130.881C133.94 12.7763 135.623 14.2092 135.623 16.8098C135.623 19.4104 133.969 20.6765 130.706 20.6765H115.92V17.1991H115.924ZM121.013 36.4213H139.375V31.4468H121.013C117.779 31.4468 115.924 29.8343 115.924 27.0241V24.5475H130.881C134.479 24.5475 137.019 23.8588 138.648 22.4431C140.156 21.1342 140.888 19.1837 140.888 16.4805C140.888 10.6804 137.633 7.85742 130.94 7.85742H121.013C112.507 7.85742 110.719 12.9089 110.719 17.1477V27.1395C110.719 31.3784 112.507 36.4256 121.013 36.4256" fill="#F9F9EA"/>
<path d="M39.4523 29.0088C39.4523 29.0088 40.0079 48.0001 19.6906 48.0001H10.2903H8.28903C4.74614 47.8718 1.5709 45.9042 0 42.8716H17.493C19.8118 42.8416 29.7845 42.3669 33.6909 35.9594C34.4095 34.7789 34.8106 33.7096 35.0445 32.1141L38.2574 9.56842C38.3911 8.61458 39.0971 7.84895 40.0163 7.67358C40.1792 7.64363 40.338 7.6308 40.4967 7.63508C40.5051 7.63508 40.5093 7.63508 40.5134 7.63508C40.5218 7.63508 40.526 7.63508 40.5343 7.63508C40.5427 7.63508 40.5469 7.63508 40.5552 7.63508C40.5594 7.63508 40.5678 7.63508 40.5719 7.63508C40.7307 7.63508 40.8895 7.64363 41.0524 7.67358C41.9674 7.85322 42.6734 8.61458 42.8113 9.56842L46.0241 32.1141C46.2623 33.7096 46.6592 34.7832 47.3778 35.9594C51.7354 43.1111 63.6676 42.8716 64.0561 42.8716H72.6209L154.316 42.8545C156 42.8545 157.512 41.9006 158.177 40.4207L160.525 35.181H159.936C156.505 35.181 155.503 34.1416 154.546 31.8062L144.481 7.6693H150.151L159.28 29.2398C159.739 30.4289 160.153 30.7026 161.502 30.7026H162.572L172.962 7.6693H178.682L163.065 42.4139C161.586 45.7032 158.273 47.8632 154.554 47.9958H71.1335H61.3781C41.0608 47.9958 41.6164 29.0045 41.6164 29.0045H39.4439L39.4523 29.0088Z" fill="#F9F9EA"/>
<path d="M5.53159 10.4709C5.53159 10.0987 5.55248 9.72661 5.62768 9.35876C5.89089 8.08412 6.58025 7.11745 7.68322 6.48441C8.8238 5.82998 10.1357 5.6931 11.0381 5.6931H21.3952C24.8128 5.6931 25.9909 7.37836 26.3753 8.78988C26.4672 9.12351 26.5132 9.48708 26.5215 9.87204L26.5633 12.9047C26.5633 13.3538 26.509 13.7558 26.3962 14.1322C25.8322 15.9929 24.0983 16.9339 21.2532 16.9339H5.53159V10.4666V10.4709ZM5.53159 36.2588V22.2164C5.53159 22.2164 5.53159 22.1864 5.53159 22.1736V21.5448H21.4412C27.8 21.5448 31.1465 19.5345 31.9654 15.2144C32.0657 14.6968 32.12 13.5548 32.12 13.5548V8.93958C32.0615 5.97968 31.1423 3.72554 29.3876 2.24559C27.6203 0.757084 24.9506 0 21.4621 0H11.0423C7.47851 0 4.71271 0.864017 2.82846 2.56639C0.969281 4.24737 0.0167117 6.70683 0 9.86776H0.0125338L0 36.2588H5.53159Z" fill="#F9F9EA"/>
</g>
<defs>
<clipPath id="clip0_7202_19761">
<rect width="190" height="48" fill="white"/>
</clipPath>
</defs>
</svg>
