<svg width="100%" height="100%" overflow="visible" style="display: block;" viewBox="0 0 58 17" fill="none" xmlns="http://www.w3.org/2000/svg">
<g id="arrow-left 1">
<path id="Vector" d="M57.0078 9.50391C57.422 9.50391 57.7578 9.16812 57.7578 8.75391C57.7578 8.3397 57.422 8.00391 57.0078 8.00391C56.5936 8.00391 56.2578 8.3397 56.2578 8.75391C56.2578 9.16812 56.5936 9.50391 57.0078 9.50391Z" fill="var(--fill-0, #7D7C7B)"/>
<path id="Vector_2" d="M52.0078 9.50391C52.422 9.50391 52.7578 9.16812 52.7578 8.75391C52.7578 8.3397 52.422 8.00391 52.0078 8.00391C51.5936 8.00391 51.2578 8.3397 51.2578 8.75391C51.2578 9.16812 51.5936 9.50391 52.0078 9.50391Z" fill="var(--fill-0, #7D7C7B)"/>
<path id="Vector_3" d="M47.0078 9.50391C47.422 9.50391 47.7578 9.16812 47.7578 8.75391C47.7578 8.3397 47.422 8.00391 47.0078 8.00391C46.5936 8.00391 46.2578 8.3397 46.2578 8.75391C46.2578 9.16812 46.5936 9.50391 47.0078 9.50391Z" fill="var(--fill-0, #7D7C7B)"/>
<path id="Vector_4" d="M40.2578 8.01171H2.87877L6.29907 4.30338L5.33104 3.25391L1.50862 7.39788C0.802084 8.16385 0.802083 9.34396 1.50862 10.1099L5.33104 14.2539L6.29907 13.2044L2.87877 9.49611H40.2578V8.01171Z" fill="var(--fill-0, #7D7C7B)"/>
</g>
</svg>
