<svg width="100%" height="100%" viewBox="0 0 50 37" fill="none" xmlns="http://www.w3.org/2000/svg">
<path id="Union" d="M25 0C35.3976 0 43.8262 8.28277 43.8262 18.5C43.8262 18.7335 43.8202 18.9659 43.8115 19.1973C45.4319 18.3897 46.3524 17.4669 46.3525 16.4854C46.3525 15.3762 45.1768 14.3412 43.1445 13.4639C47.3933 14.8546 50 16.7329 50 18.8008C49.9999 20.9061 47.2974 22.8131 42.9111 24.2109C40.462 31.6331 33.3693 37 25 37C16.6307 37 9.53798 31.6331 7.08887 24.2109C2.70265 22.8131 5.86002e-05 20.906 0 18.8008C0 16.7329 2.60725 14.8546 6.85645 13.4639C4.82365 14.3412 3.64844 15.3763 3.64844 16.4854C3.64856 17.4666 4.56789 18.3889 6.1875 19.1963C6.1788 18.9652 6.17383 18.7331 6.17383 18.5C6.17383 8.2828 14.6023 4.68512e-05 25 0ZM28.3848 26.4863C27.2779 26.5328 26.148 26.5596 25 26.5596C23.8517 26.5596 22.7215 26.5329 21.6143 26.4863C21.8397 28.2699 22.1422 29.9135 22.5156 31.3545C23.4145 34.8224 24.4936 36.0819 25 36.082C25.5064 36.082 26.5864 34.8226 27.4854 31.3545C27.8588 29.9136 28.1593 28.2697 28.3848 26.4863ZM14.7793 25.8809C15.3522 27.7955 16.1505 29.5556 17.1572 31.082C18.8837 33.6997 21.0445 35.3616 23.3652 35.8945C22.1773 34.2309 21.2076 30.8076 20.6689 26.4404C18.6079 26.3287 16.6338 26.139 14.7793 25.8809ZM35.2197 25.8809C33.3655 26.1389 31.3918 26.3287 29.3311 26.4404C28.7923 30.8081 27.822 34.2311 26.6338 35.8945C28.9549 35.3619 31.117 33.7001 32.8438 31.082C33.8502 29.5557 34.6468 27.7952 35.2197 25.8809ZM41.8105 24.543C40.142 25.0137 38.267 25.4125 36.2334 25.7305C35.029 30.0272 32.7838 33.4907 29.9775 35.3945C32.849 34.5821 35.4811 33.0662 37.6523 30.9326C39.5245 29.0928 40.9286 26.9162 41.8105 24.543ZM8.18848 24.543C9.0704 26.9164 10.4763 29.0928 12.3486 30.9326C14.5194 33.0655 17.1501 34.581 20.0205 35.3936C17.2151 33.4894 14.9697 30.0263 13.7656 25.7305C11.732 25.4124 9.85702 25.0137 8.18848 24.543ZM25 0.917969C24.4936 0.918131 23.4143 2.17764 22.5156 5.64551C21.6287 9.06776 21.1396 13.6327 21.1396 18.5C21.1396 19.7319 21.1703 20.9445 21.2314 22.124C22.4548 22.1825 23.7141 22.2158 25 22.2158C26.2856 22.2158 27.5446 22.1825 28.7676 22.124C28.8287 20.9445 28.8604 19.7319 28.8604 18.5C28.8604 13.6328 28.3722 9.06774 27.4854 5.64551C26.5864 2.17741 25.5064 0.917969 25 0.917969ZM23.3652 1.10449C21.0444 1.63734 18.8837 3.30018 17.1572 5.91797C14.9498 9.2654 13.7334 13.7335 13.7334 18.5C13.7334 19.4742 13.7871 20.4357 13.8867 21.3779C15.8385 21.6979 17.9966 21.9355 20.2949 22.0742C20.2363 20.9178 20.2051 19.7227 20.2051 18.5C20.2051 10.4988 21.5225 3.68425 23.3652 1.10449ZM26.6338 1.10449C28.4767 3.68383 29.7949 10.4982 29.7949 18.5C29.7949 19.7228 29.7628 20.9178 29.7041 22.0742C32.0025 21.9355 34.1605 21.6978 36.1123 21.3779C36.212 20.4356 36.2666 19.4742 36.2666 18.5C36.2666 13.7336 35.0512 9.26519 32.8438 5.91797C31.117 3.29977 28.955 1.63708 26.6338 1.10449ZM20.0215 1.60449C17.1505 2.41698 14.5197 3.93411 12.3486 6.06738C8.96931 9.38826 7.10742 13.8037 7.10742 18.5C7.10742 18.8773 7.12068 19.2527 7.14453 19.626C8.67159 20.2496 10.6392 20.7899 12.9297 21.2119C12.8439 20.3268 12.7988 19.4213 12.7988 18.5C12.7988 10.9714 15.7647 4.49266 20.0215 1.60449ZM29.9775 1.60449C34.2347 4.49241 37.2012 10.971 37.2012 18.5C37.2012 19.4213 37.1551 20.3267 37.0693 21.2119C39.3598 20.7899 41.3273 20.2495 42.8545 19.626C42.8783 19.2527 42.8926 18.8773 42.8926 18.5C42.8926 13.8037 41.0316 9.38808 37.6523 6.06738C35.4809 3.9337 32.849 2.41695 29.9775 1.60449Z" fill="var(--fill-0, #060411)"/>
</svg>
