<svg width="100%" height="100%" overflow="visible" style="display: block;" viewBox="0 0 49.0005 50.0003" fill="none" xmlns="http://www.w3.org/2000/svg">
<path id="Union" d="M45.3682 0.012034C45.6861 -0.0359908 46.002 0.0612348 46.2285 0.276682L48.6875 2.61946C48.9141 2.83505 49.0273 3.14556 48.9951 3.46907C48.9675 3.7473 48.2996 10.3119 46.2402 13.5374C46.0641 13.8136 45.7774 14.001 45.46 14.0491C45.4051 14.0574 45.3501 14.0601 45.2959 14.0599C45.3075 14.2823 45.2513 14.5124 45.1211 14.7161C44.2959 16.0079 40.9969 19.6552 39.7598 20.9583L31.1182 30.0657L36.0205 44.5853L30.8838 50.0003L21.0859 40.6409L15.7061 46.3128C15.2908 46.7514 14.6169 46.7845 14.2012 46.387L4.40527 37.0296C4.20578 36.8389 4.09382 36.5726 4.09375 36.2884C4.09375 36.0041 4.20571 35.7265 4.40527 35.5159L9.79492 29.8333L0 20.4779L5.1377 15.0618L19.8184 19.2669L30.6113 7.89094C32.017 6.40846 33.2213 5.32218 34.3994 4.4759C34.596 4.33422 34.8233 4.26503 35.0459 4.26594C35.045 4.24777 35.0439 4.22956 35.0439 4.21125C35.0439 4.17572 35.0452 4.14052 35.0488 4.10481C35.0806 3.7846 35.2531 3.48793 35.5186 3.29719C38.6216 1.06604 45.0943 0.054838 45.3682 0.012034ZM22.5947 39.054L30.8848 46.9739L33.585 44.1273L29.4375 31.8411L22.5947 39.054ZM34.8721 6.7386C34.0266 7.41898 33.1176 8.27347 32.1162 9.32942L22.0752 19.9134L22.0771 19.9144L11.3018 31.2728L6.66406 36.1614L14.9541 44.0804L38.2549 19.5198C39.4371 18.2731 41.7085 15.7409 42.8223 14.3323L34.8721 6.7386ZM20.0762 28.8372C20.4919 28.3986 21.1657 28.3647 21.5811 28.762C21.9959 29.1597 21.997 29.8379 21.5801 30.2767L19.6201 32.3421C19.2043 32.7804 18.5304 32.8137 18.1152 32.4163C17.9078 32.2175 17.8037 31.9481 17.8037 31.6741C17.8038 31.4005 17.908 31.1219 18.1162 30.9027L20.0762 28.8372ZM3.01172 20.3284L11.3008 28.2464L18.1348 21.0413L5.71094 17.4827L3.01172 20.3284ZM25.4883 23.1361C25.904 22.6975 26.5778 22.6636 26.9932 23.0609C27.408 23.4585 27.4091 24.1367 26.9922 24.5755L25.0322 26.6409C24.6164 27.0793 23.9426 27.1126 23.5273 26.7152C23.32 26.5164 23.2159 26.2477 23.2158 25.9739C23.2158 25.7001 23.3199 25.4209 23.5283 25.2015L25.4883 23.1361ZM29.1602 19.2708C29.576 18.8323 30.2498 18.799 30.665 19.1966C31.0798 19.5943 31.0809 20.2715 30.6641 20.7103L28.7041 22.7757C28.2882 23.2144 27.6145 23.2475 27.1992 22.8499C26.9918 22.6511 26.8877 22.3826 26.8877 22.1087C26.8877 21.8348 26.9917 21.5556 27.2002 21.3363L29.1602 19.2708ZM45.0918 2.21516C43.8014 2.44618 40.273 3.15189 37.873 4.33137L45.0908 11.2269C46.1391 8.7555 46.6572 5.16984 46.8193 3.86164L45.0918 2.21516Z" fill="var(--fill-0, #060411)"/>
</svg>
