<svg width="1440" height="400" viewBox="0 0 1440 400" fill="none" xmlns="http://www.w3.org/2000/svg">
<g clip-path="url(#clip0_2534_6533)">
<path d="M914.202 398.88C911.789 396.073 908.743 395.994 905.143 398.88H914.202ZM873.929 398.88C868.945 395.085 864.712 395.283 862.061 398.88H873.929ZM790.734 398.801C785.433 393.781 779.024 394.018 776.255 398.801H790.734ZM663.745 398.722C660.976 393.9 654.567 393.663 649.266 398.722H663.745ZM577.938 398.683C575.248 395.086 571.055 394.888 566.07 398.683H577.938ZM534.857 398.563C531.257 395.678 528.211 395.757 525.798 398.563H534.857ZM719.565 372.237C713.987 372.356 709.318 377.376 709.318 383.266C709.318 389.274 714.264 394.453 719.921 394.334C719.947 394.333 719.973 394.331 720 394.33C720.026 394.331 720.052 394.333 720.079 394.334C725.736 394.453 730.681 389.313 730.681 383.266C730.681 377.376 725.973 372.356 720.395 372.237C720.256 372.234 720.118 372.236 719.98 372.239C719.842 372.236 719.704 372.234 719.565 372.237ZM761.974 372.594C756.238 372.554 751.768 377.377 751.846 383.464C751.965 389.393 756.357 394.019 761.974 394.019C767.71 394.058 772.18 389.235 772.101 383.148C771.983 377.219 767.592 372.594 761.974 372.594ZM677.947 372.515C672.33 372.515 667.938 377.1 667.859 383.068C667.78 389.156 672.251 393.979 677.987 393.979C683.604 393.978 687.996 389.393 688.075 383.425C688.154 377.337 683.683 372.515 677.947 372.515ZM804.502 372.91C799.122 372.752 794.532 377.337 794.374 383.029C794.216 388.761 798.568 393.623 803.948 393.781C809.328 393.939 813.917 389.354 814.075 383.662C814.233 377.931 809.882 373.068 804.502 372.91ZM635.42 372.791C630.04 372.949 625.727 377.811 625.885 383.503C626.044 389.195 630.633 393.78 636.013 393.622C641.394 393.464 645.706 388.602 645.548 382.91C645.389 377.218 640.8 372.633 635.42 372.791ZM846.396 373.502C841.174 373.541 837.178 377.89 837.218 383.463C837.257 389.036 841.372 393.266 846.634 393.227C851.855 393.187 855.851 388.839 855.811 383.266C855.772 377.692 851.658 373.463 846.396 373.502ZM593.604 373.345C588.343 373.305 584.268 377.535 584.189 383.069C584.15 388.643 588.145 392.991 593.406 393.03C598.668 393.07 602.743 388.84 602.822 383.306C602.861 377.732 598.866 373.384 593.604 373.345ZM888.725 374.056C883.939 374.056 880.022 378.127 879.903 383.187C879.784 388.365 883.82 392.713 888.725 392.713C893.512 392.713 897.429 388.642 897.548 383.582C897.666 378.404 893.631 374.056 888.725 374.056ZM551.235 373.818C546.33 373.818 542.334 378.167 542.413 383.345C542.532 388.404 546.448 392.516 551.235 392.516C556.14 392.516 560.136 388.167 560.057 382.989C559.939 377.93 556.022 373.818 551.235 373.818ZM930.897 374.768C926.506 374.807 922.866 378.681 922.827 383.346C922.788 388.129 926.625 392.2 931.135 392.121C935.526 392.082 939.165 388.207 939.205 383.543C939.244 378.76 935.407 374.689 930.897 374.768ZM509.103 374.451C504.593 374.372 500.756 378.444 500.835 383.187C500.874 387.852 504.554 391.725 508.945 391.765C513.455 391.844 517.292 387.773 517.213 383.029C517.173 378.365 513.494 374.491 509.103 374.451ZM973.108 375.558C969.113 375.597 965.75 379.234 965.75 383.464C965.75 387.733 969.152 391.329 973.147 391.369C977.262 391.409 980.783 387.614 980.664 383.266C980.545 378.997 977.104 375.479 973.108 375.558ZM466.852 375.162C462.857 375.083 459.416 378.601 459.297 382.87C459.178 387.218 462.699 391.013 466.852 390.974C470.848 390.934 474.251 387.337 474.251 383.068C474.251 378.839 470.888 375.202 466.892 375.123L466.852 375.162ZM1015.71 376.35C1012.11 376.191 1008.91 379.275 1008.71 383.148C1008.51 386.983 1011.36 390.382 1015.04 390.659C1018.8 390.936 1022.12 387.734 1022.24 383.702C1022.36 379.868 1019.39 376.508 1015.75 376.35H1015.71ZM424.246 375.914C420.606 376.072 417.64 379.432 417.759 383.267C417.877 387.298 421.201 390.5 424.959 390.224C428.638 389.947 431.486 386.547 431.249 382.713C431.011 378.839 427.846 375.756 424.246 375.914ZM1058 376.981C1054.72 376.784 1051.64 379.828 1051.56 383.386C1051.48 386.785 1054.21 389.868 1057.45 390.065C1060.73 390.263 1063.82 387.22 1063.9 383.662C1063.98 380.263 1061.25 377.179 1058 376.981ZM381.957 376.507C378.713 376.704 375.983 379.788 376.062 383.147C376.141 386.705 379.227 389.749 382.55 389.591C385.793 389.393 388.523 386.31 388.444 382.95C388.365 379.393 385.28 376.349 381.957 376.507ZM1100.06 377.693C1097.09 377.614 1094.4 380.46 1094.44 383.583C1094.48 386.587 1097.01 389.274 1099.86 389.354C1102.83 389.433 1105.52 386.587 1105.48 383.464C1105.44 380.46 1102.91 377.773 1100.06 377.693ZM339.943 377.179C337.095 377.258 334.602 379.947 334.523 382.911C334.484 386.034 337.174 388.879 340.14 388.84C342.989 388.761 345.481 386.073 345.56 383.108C345.6 379.986 342.91 377.139 339.943 377.179ZM1142.31 378.483C1139.7 378.404 1137.36 380.816 1137.36 383.583C1137.32 386.35 1139.7 388.919 1142.27 388.722C1145.08 388.524 1146.74 386.784 1147.02 383.819C1147.25 381.092 1144.92 378.562 1142.31 378.483ZM297.653 377.812C295.042 377.891 292.708 380.42 292.945 383.147C293.222 386.112 294.884 387.851 297.692 388.049C300.263 388.246 302.597 385.678 302.597 382.95C302.597 380.183 300.224 377.772 297.653 377.812ZM1184.36 379.195C1181.95 379.235 1180.4 380.856 1180.32 383.425C1180.25 386.192 1181.79 387.931 1184.4 388.01C1187.05 388.089 1188.4 386.349 1188.71 383.622V383.583C1188.36 380.895 1187.01 379.156 1184.36 379.195ZM1225.9 379.234C1224.99 380.657 1223.49 382.001 1223.25 383.543C1222.85 385.994 1224.55 387.812 1226.81 387.259C1228.15 386.942 1229.9 384.965 1230.05 383.582C1230.17 382.238 1228.47 380.696 1227.56 379.273V379.234H1225.9ZM255.6 378.483C252.95 378.444 251.605 380.144 251.249 382.871L251.289 382.91C251.645 385.638 252.99 387.377 255.6 387.298C258.211 387.219 259.755 385.519 259.676 382.713C259.596 380.144 258.053 378.523 255.6 378.483ZM1269.14 378.958C1267.6 381.132 1266.01 382.358 1266.09 383.504C1266.17 384.69 1267.79 386.626 1268.82 386.666C1269.81 386.706 1271.59 384.966 1271.79 383.78C1271.99 382.673 1270.48 381.29 1269.14 378.958ZM212.4 378.522C211.49 379.945 209.789 381.488 209.908 382.792C210.066 384.175 211.807 386.152 213.152 386.508C215.407 387.061 217.069 385.243 216.713 382.792C216.475 381.25 214.972 379.906 214.062 378.483H212.4V378.522ZM1353.24 380.025C1352.18 381.686 1350.87 382.872 1351.07 383.662C1351.31 384.729 1352.69 385.52 1353.6 386.429C1354.39 385.401 1355.7 384.452 1355.82 383.346C1355.89 382.555 1354.47 381.527 1353.24 380.025ZM1315.19 383.622C1313.29 382.278 1312.1 380.776 1311.27 380.974C1310.16 381.211 1309.37 382.792 1308.42 383.819C1309.29 384.768 1310.2 386.429 1311.11 386.429C1312.22 386.428 1313.29 385.005 1315.19 383.622ZM1395.53 381.566C1394.9 381.409 1393.95 382.714 1392.57 383.82C1393.95 384.848 1394.82 386.033 1395.61 385.954C1396.44 385.875 1397.16 384.65 1397.91 383.899C1397.12 383.069 1396.44 381.804 1395.53 381.566ZM170.822 378.128C169.477 380.46 167.974 381.843 168.172 382.95C168.37 384.136 170.149 385.875 171.177 385.836C172.206 385.796 173.827 383.86 173.907 382.674C173.986 381.527 172.404 380.301 170.861 378.088L170.822 378.128ZM1437.78 381.764C1437.23 381.606 1436.36 382.832 1435.09 383.859H1435.06C1436.36 384.808 1437.15 385.874 1437.86 385.835C1438.62 385.756 1439.29 384.609 1440 383.938C1439.29 383.186 1438.65 382.001 1437.78 381.764ZM128.69 380.104C127.859 379.906 126.673 381.408 124.774 382.752C126.673 384.135 127.741 385.558 128.848 385.559C129.758 385.559 130.668 383.898 131.539 382.949C130.589 381.921 129.758 380.341 128.69 380.104ZM86.7556 379.116C85.5293 380.618 84.1053 381.646 84.1843 382.437C84.303 383.543 85.6089 384.492 86.4001 385.52C87.3101 384.61 88.6949 383.86 88.9324 382.753C89.1301 381.962 87.8237 380.776 86.7556 379.116ZM47.3933 382.832C46.0089 381.725 45.0199 380.421 44.4265 380.578C43.5166 380.815 42.8438 382.081 42.0525 382.911C42.8041 383.662 43.5167 384.887 44.3474 384.966C45.1385 385.045 45.9695 383.86 47.3933 382.832ZM4.90503 382.791C3.63953 381.763 2.76941 380.539 2.21558 380.696C1.34534 380.933 0.751343 382.119 -0.000244141 382.87C0.711792 383.542 1.38477 384.689 2.13647 384.768C2.84851 384.846 3.63965 383.74 4.94507 382.791H4.90503ZM740.868 350.102C735.18 350.113 730.602 355.01 730.681 361.012C730.721 366.862 735.191 371.605 740.729 371.724C746.386 371.842 751.055 367.02 751.094 361.012C751.134 355.01 746.516 350.113 740.868 350.102ZM699.112 350.062C693.455 350.062 688.826 354.964 688.905 360.973C688.945 366.981 693.653 371.803 699.31 371.724C704.849 371.605 709.279 366.862 709.358 361.012C709.398 355.003 704.808 350.102 699.151 350.102L699.112 350.062ZM783.376 350.458C777.758 350.339 773.248 354.925 773.209 360.854C773.169 366.625 777.442 371.329 782.861 371.448C788.479 371.567 792.99 366.981 793.029 361.052C793.069 355.281 788.795 350.577 783.376 350.458ZM656.585 350.379C651.165 350.498 646.932 355.162 646.971 360.973C647.011 366.902 651.521 371.487 657.138 371.369C662.558 371.251 666.791 366.586 666.752 360.775C666.712 354.846 662.202 350.26 656.585 350.379ZM825.297 350.853C820.041 350.9 815.697 355.601 815.815 361.13C815.894 366.545 820.127 371.013 825.27 371.092C830.492 371.171 834.923 366.585 834.923 361.012C834.923 355.448 830.546 350.829 825.297 350.853ZM614.651 350.694C609.39 350.655 604.998 355.28 605.038 360.854C605.038 366.427 609.469 371.052 614.73 370.973C619.873 370.893 624.067 366.466 624.185 361.012C624.264 355.478 619.952 350.774 614.69 350.734L614.651 350.694ZM867.639 351.406C862.813 351.367 858.62 355.755 858.541 360.854C858.462 365.953 862.536 370.42 867.402 370.578C872.189 370.736 876.462 366.467 876.66 361.328C876.858 356.11 872.584 351.406 867.639 351.406ZM572.321 351.208C567.376 351.208 563.104 355.912 563.302 361.13C563.499 366.268 567.772 370.537 572.558 370.419C577.385 370.261 581.46 365.794 581.381 360.695L581.42 360.655C581.34 355.556 577.147 351.168 572.321 351.208ZM909.929 352.118C905.42 352.079 901.583 355.914 901.425 360.696C901.227 365.598 904.985 369.827 909.613 369.985C914.242 370.104 918.198 366.111 918.277 361.21H918.317C918.396 356.308 914.558 352.118 909.929 352.118ZM530.031 351.802C525.402 351.802 521.565 355.953 521.644 360.894L521.683 360.933C521.762 365.834 525.719 369.866 530.347 369.708C534.976 369.589 538.734 365.36 538.536 360.419C538.378 355.636 534.541 351.802 530.031 351.802ZM952.1 352.868C947.828 352.829 944.307 356.545 944.307 361.091C944.347 365.478 947.67 369.154 951.824 369.272C956.136 369.431 959.736 365.794 959.815 361.248C959.894 356.663 956.452 352.908 952.14 352.868H952.1ZM487.78 352.553C483.468 352.553 480.026 356.348 480.105 360.894C480.185 365.439 483.785 369.075 488.096 368.917C492.25 368.798 495.574 365.162 495.574 360.735C495.574 356.19 492.053 352.474 487.78 352.514V352.553ZM994.272 353.62C990.356 353.62 987.191 357.019 987.27 361.209C987.349 365.241 990.395 368.482 994.193 368.562C998.149 368.641 1001.39 365.36 1001.39 361.17C1001.43 357.02 998.268 353.659 994.312 353.659L994.272 353.62ZM445.648 353.225C441.692 353.225 438.528 356.546 438.567 360.735C438.567 364.925 441.811 368.206 445.767 368.127C449.565 368.048 452.611 364.807 452.651 360.775C452.73 356.585 449.565 353.186 445.609 353.186L445.648 353.225ZM1036.44 354.45C1033 354.529 1030.23 357.573 1030.23 361.17C1030.27 364.806 1033.12 367.85 1036.52 367.85C1040.08 367.889 1043.01 364.688 1042.89 360.933C1042.77 357.296 1039.85 354.371 1036.44 354.45ZM403.477 353.977C400.075 353.897 397.147 356.822 397.028 360.459C396.91 364.214 399.877 367.415 403.398 367.376C406.8 367.376 409.648 364.332 409.648 360.735C409.648 357.138 406.839 354.095 403.437 354.016L403.477 353.977ZM1078.58 355.162C1075.49 355.32 1073.16 357.968 1073.2 361.249H1073.16C1073.24 364.53 1075.65 367.099 1078.73 367.139C1081.98 367.178 1084.51 364.451 1084.47 361.052C1084.43 357.652 1081.78 355.004 1078.58 355.162ZM361.385 354.647C358.18 354.489 355.53 357.138 355.49 360.537C355.45 363.937 357.982 366.664 361.226 366.624C364.312 366.585 366.725 364.015 366.764 360.734C366.804 357.454 364.47 354.806 361.385 354.647ZM1120.95 355.912C1118.18 355.952 1116.08 358.205 1116.08 361.13C1116.08 364.213 1118.33 366.545 1121.22 366.466C1123.99 366.426 1126.09 364.173 1126.09 361.248C1126.09 358.165 1123.83 355.833 1120.95 355.912ZM319.015 355.32C316.128 355.241 313.872 357.573 313.912 360.656C313.912 363.581 316.009 365.835 318.778 365.914C321.666 365.993 323.921 363.66 323.882 360.577C323.881 357.652 321.784 355.399 319.015 355.32ZM1163.71 356.624C1161.18 356.426 1159.12 358.284 1158.96 360.933L1158.92 360.893C1158.8 363.62 1160.58 365.834 1163.12 365.834C1165.73 365.874 1167.35 364.49 1167.67 361.723C1167.98 359.035 1166.2 356.822 1163.71 356.624ZM1205.05 356.545C1203.94 358.007 1202.2 359.312 1201.85 360.972C1201.29 363.462 1203.07 365.597 1205.41 365.241C1206.91 365.004 1209.09 363.027 1209.24 361.604C1209.4 360.023 1207.58 358.245 1206.63 356.545V356.584C1206.12 356.544 1205.56 356.545 1205.05 356.545ZM280.998 360.26C280.839 357.612 278.782 355.714 276.251 355.951C273.758 356.149 271.978 358.363 272.295 361.051C272.611 363.818 274.233 365.201 276.844 365.201C279.375 365.201 281.156 362.988 281.037 360.3L280.998 360.26ZM1332.36 365.083L1332.4 365.044C1332.39 365.041 1332.39 365.039 1332.39 365.036C1332.38 365.052 1332.37 365.067 1332.36 365.083ZM1332.2 358.68C1331.41 359.628 1330.06 360.538 1329.9 361.645C1329.78 362.434 1331.2 363.499 1332.39 365.036C1333.49 363.441 1334.81 362.308 1334.65 361.525C1334.45 360.458 1333.07 359.628 1332.2 358.68ZM1247.78 358.008C1246.59 357.89 1245.24 359.707 1243.98 360.695L1244.06 362.237C1245.4 363.107 1246.79 364.727 1248.05 364.608C1249.16 364.529 1251.1 362.317 1250.94 361.407C1250.7 360.024 1249 358.126 1247.78 358.008ZM234.91 355.794C234.396 355.794 233.842 355.794 233.328 355.834C232.378 357.534 230.558 359.312 230.717 360.894C230.875 362.317 233.051 364.293 234.554 364.53C236.888 364.886 238.669 362.751 238.115 360.261C237.759 358.601 236.018 357.296 234.91 355.794ZM1289.91 358.482C1289.04 358.285 1287.81 359.906 1285.87 361.368C1287.85 362.791 1289 364.293 1289.99 364.175C1291.06 364.056 1291.96 362.435 1292.95 361.486C1291.93 360.419 1291.06 358.759 1289.91 358.482ZM107.684 357.73C106.814 358.679 105.469 359.509 105.231 360.576C105.073 361.367 106.417 362.513 107.525 364.134C108.712 362.592 110.137 361.525 110.018 360.734C109.86 359.628 108.515 358.719 107.684 357.73ZM192.185 357.218C190.959 357.336 189.258 359.234 189.02 360.617C188.863 361.526 190.8 363.739 191.908 363.818C193.174 363.937 194.559 362.317 195.904 361.447V359.905H195.983C194.717 358.917 193.372 357.099 192.185 357.218ZM1374.53 359.193C1373.74 359.312 1373.06 360.577 1372.35 361.367C1373.18 362.158 1373.93 363.383 1374.84 363.581C1375.48 363.7 1376.35 362.356 1377.69 361.17C1376.23 360.182 1375.28 359.075 1374.53 359.193ZM1416.74 358.363C1415.83 359.707 1414.84 360.577 1414.88 361.328C1414.92 362.119 1416.03 362.83 1416.66 363.581C1417.37 362.83 1418.52 362.158 1418.72 361.249C1418.84 360.656 1417.69 359.747 1416.74 358.403V358.363ZM154.049 360.538C152.11 359.076 150.884 357.455 150.013 357.652C148.866 357.929 147.995 359.589 146.967 360.656C147.956 361.605 148.866 363.265 149.934 363.344C150.923 363.462 152.071 361.961 154.049 360.538ZM65.4333 358.245C64.6818 358.127 63.7319 359.234 62.2683 360.222C63.6133 361.407 64.484 362.751 65.1169 362.633C66.0267 362.435 66.7784 361.21 67.6091 360.419C66.8971 359.628 66.2245 358.364 65.4333 358.245ZM23.1824 357.374C22.2329 358.718 21.0862 359.628 21.2048 360.221C21.4423 361.13 22.5494 361.802 23.2615 362.553C23.8944 361.802 25.002 361.09 25.0417 360.3C25.0813 359.549 24.0923 358.679 23.1824 357.335V357.374ZM719.723 327.808C714.106 327.768 709.714 332.354 709.595 338.283C709.477 344.41 713.947 349.232 719.683 349.232C719.792 349.233 719.9 349.228 720.008 349.226C720.084 349.227 720.16 349.232 720.237 349.232C725.973 349.232 730.444 344.41 730.325 338.322C730.206 332.393 725.776 327.808 720.158 327.808C720.083 327.808 720.008 327.811 719.933 327.812C719.864 327.811 719.794 327.808 719.723 327.808ZM762.03 328.045C756.384 328.018 752.044 332.638 752.044 338.599C752.044 344.409 756.277 348.995 761.736 349.113C767.393 349.232 771.824 344.686 771.903 338.757C771.942 332.755 767.639 328.054 762.03 328.045ZM677.868 327.967C672.25 327.967 667.938 332.671 668.017 338.64C668.097 344.569 672.567 349.114 678.224 348.995C683.683 348.876 687.917 344.292 687.917 338.481C687.917 332.513 683.525 327.887 677.908 327.927L677.868 327.967ZM804.383 328.282C799.2 328.203 794.69 332.789 794.532 338.322C794.374 343.935 798.963 348.877 804.264 348.877C809.447 348.877 813.917 344.173 813.917 338.679L813.957 338.639C813.996 333.144 809.604 328.401 804.383 328.282ZM635.579 328.203C630.357 328.322 625.965 333.066 626.005 338.521C626.044 344.015 630.475 348.718 635.697 348.758C640.998 348.758 645.587 343.817 645.428 338.243C645.27 332.71 640.721 328.085 635.579 328.203ZM846.514 328.915C841.451 328.915 837.376 333.145 837.297 338.481L837.336 338.441C837.257 343.817 841.213 348.205 846.277 348.323C851.341 348.442 855.494 344.291 855.652 338.955C855.771 333.461 851.697 328.915 846.514 328.915ZM593.407 328.717C588.225 328.717 584.149 333.223 584.307 338.757C584.466 344.093 588.62 348.244 593.723 348.125C598.787 348.006 602.743 343.659 602.664 338.283H602.624C602.545 332.947 598.471 328.677 593.407 328.717ZM888.963 329.627C884.216 329.508 880.379 333.303 880.22 338.283C880.062 343.501 883.78 347.612 888.646 347.651C893.393 347.691 897.152 343.857 897.231 338.837C897.31 333.777 893.67 329.746 888.963 329.627ZM550.919 329.429C546.211 329.547 542.611 333.539 542.69 338.599C542.769 343.619 546.528 347.493 551.275 347.453C556.141 347.453 559.859 343.303 559.701 338.085C559.543 333.105 555.705 329.31 550.919 329.429ZM931.214 330.338C926.664 330.219 923.103 333.777 923.103 338.6C923.064 343.264 926.348 346.9 930.739 347.019C935.288 347.137 938.848 343.58 938.848 338.758C938.888 334.094 935.605 330.457 931.214 330.338ZM508.708 330.021C504.317 330.14 501.033 333.738 501.073 338.441C501.073 343.264 504.633 346.861 509.182 346.742C513.574 346.624 516.858 343.026 516.818 338.322C516.818 333.5 513.257 329.903 508.708 330.021ZM973.107 331.207C969.072 331.286 966.105 334.527 966.105 338.836C966.145 343.105 969.191 346.347 973.226 346.347C977.38 346.347 980.505 342.986 980.386 338.52C980.268 334.251 977.143 331.088 973.068 331.167L973.107 331.207ZM466.853 330.772C462.779 330.693 459.653 333.856 459.574 338.086C459.455 342.552 462.581 345.912 466.774 345.912C470.809 345.912 473.854 342.671 473.894 338.402C473.894 334.094 470.927 330.852 466.892 330.772H466.853ZM1015.32 331.879C1011.68 331.918 1008.95 334.804 1008.95 338.678C1008.91 342.71 1011.76 345.674 1015.56 345.635C1019.2 345.595 1021.93 342.71 1021.93 338.836C1021.96 334.804 1019.12 331.84 1015.32 331.879ZM424.602 331.445C420.805 331.366 417.956 334.371 417.996 338.402C417.996 342.276 420.766 345.161 424.405 345.24C428.203 345.319 431.051 342.315 431.011 338.283C431.011 334.409 428.242 331.524 424.602 331.445ZM1057.69 332.631C1054.4 332.631 1051.91 335.2 1051.87 338.639C1051.83 342.236 1054.4 344.964 1057.81 344.885C1061.09 344.845 1063.46 342.196 1063.46 338.718C1063.42 335.24 1060.97 332.631 1057.69 332.631ZM382.233 332.195C378.95 332.195 376.497 334.804 376.497 338.282L376.458 338.243C376.458 341.722 378.832 344.37 382.115 344.449C385.517 344.528 388.088 341.8 388.049 338.203C387.969 334.764 385.516 332.195 382.233 332.195ZM1099.78 333.303C1096.89 333.382 1094.72 335.753 1094.72 338.797C1094.68 341.959 1097.05 344.41 1100.06 344.331C1103.06 344.252 1105.28 341.682 1105.12 338.48C1104.96 335.477 1102.67 333.224 1099.78 333.303ZM340.101 332.749C337.214 332.67 334.919 334.883 334.76 337.927C334.602 341.128 336.818 343.698 339.824 343.777C342.831 343.856 345.204 341.405 345.165 338.243C345.165 335.2 342.95 332.828 340.101 332.749ZM1142.11 333.975C1139.38 334.291 1137.8 335.872 1137.68 338.758C1137.52 341.525 1139.7 343.738 1142.31 343.659C1144.92 343.62 1146.94 341.327 1146.7 338.56C1146.46 335.635 1144.8 334.211 1142.11 334.014V333.975ZM1183.81 333.936C1182.66 335.477 1180.84 336.9 1180.48 338.679C1180.01 341.129 1181.75 342.79 1184.12 343.186C1186.3 343.541 1188.91 341.209 1188.4 338.995C1187.96 337.177 1186.42 335.635 1185.39 333.975V334.015L1183.81 333.936ZM297.811 333.381C295.121 333.578 293.499 335.002 293.222 337.927C292.985 340.694 295.042 342.986 297.653 343.065C300.264 343.144 302.44 340.931 302.282 338.203C302.163 335.318 300.58 333.736 297.811 333.42V333.381ZM254.492 333.263H254.532C253.503 334.923 251.96 336.465 251.525 338.283C251.011 340.497 253.661 342.828 255.798 342.473C258.171 342.077 259.912 340.417 259.398 337.967C259.042 336.188 257.222 334.765 256.075 333.184L254.492 333.263ZM1226.18 334.646C1225.19 335.951 1223.29 337.374 1223.45 338.521C1223.6 339.983 1225.27 341.96 1226.61 342.315C1227.48 342.552 1229.82 340.418 1229.93 339.192C1230.05 337.809 1228.47 336.189 1227.64 334.687V334.646H1226.18ZM1268.7 334.251C1267.36 336.544 1265.89 337.967 1266.05 339.074C1266.25 340.26 1267.99 341.169 1269.06 342.196C1270.05 341.05 1271.71 339.983 1271.79 338.797C1271.87 337.651 1270.29 336.386 1268.74 334.212L1268.7 334.251ZM1311.15 334.726C1309.85 336.702 1308.42 337.927 1308.58 338.797C1308.82 339.983 1310.16 341.406 1311.27 341.683C1311.94 341.841 1313.76 340.023 1313.76 339.074C1313.8 337.928 1312.46 336.742 1311.19 334.726H1311.15ZM212.281 333.935C211.45 335.437 209.868 337.058 209.987 338.441C210.106 339.667 212.44 341.802 213.31 341.564C214.655 341.209 216.316 339.232 216.474 337.77C216.633 336.623 214.734 335.2 213.745 333.896H212.281V333.935ZM171.178 333.421C169.636 335.595 168.052 336.86 168.132 337.967C168.211 339.153 169.873 340.259 170.862 341.366C171.93 340.339 173.67 339.429 173.868 338.243C174.026 337.136 172.562 335.713 171.218 333.421H171.178ZM1353.44 336.82C1352.81 336.623 1351.78 337.848 1350.32 338.836V338.876C1351.66 340.022 1352.45 341.247 1353.24 341.247C1354.04 341.207 1354.87 340.022 1355.66 339.35C1354.94 338.44 1354.35 337.137 1353.44 336.82ZM1437.86 335.99C1436.95 337.334 1435.97 338.204 1436 338.955C1436.04 339.746 1437.15 340.457 1437.78 341.208C1438.5 340.457 1439.64 339.785 1439.84 338.876C1439.96 338.283 1438.81 337.374 1437.86 336.03V335.99ZM1395.65 336.979C1395.1 336.821 1394.11 337.928 1392.8 338.837C1394.03 339.904 1394.74 341.05 1395.45 341.051C1396.21 341.051 1396.96 339.944 1397.71 339.312C1397.04 338.481 1396.48 337.296 1395.65 336.979ZM128.73 333.856C127.464 335.872 126.119 337.058 126.158 338.204C126.158 339.153 127.977 340.971 128.65 340.813C129.758 340.537 131.103 339.114 131.341 337.928C131.499 337.058 130.075 335.833 128.769 333.856H128.73ZM89.6042 337.888C88.1406 336.9 87.1122 335.674 86.4792 335.872C85.5693 336.188 84.9755 337.493 84.2634 338.362C85.0547 339.034 85.8862 340.22 86.6775 340.26C87.4685 340.259 88.2595 339.034 89.6042 337.888ZM2.05737 335.001C1.10791 336.345 -0.0388184 337.255 0.079834 337.848C0.317261 338.757 1.42444 339.429 2.13647 340.18C2.76941 339.429 3.87695 338.717 3.91675 337.927C3.9563 337.176 2.96729 336.306 2.05737 334.962V335.001ZM47.1169 337.849C45.8114 336.939 44.8221 335.793 44.2683 335.99C43.4377 336.267 42.884 337.492 42.2117 338.322C42.9633 338.955 43.715 340.062 44.4666 340.062C45.1785 340.061 45.8909 338.916 47.1169 337.849ZM740.888 305.712C735.31 305.672 730.879 310.376 730.919 316.306C730.998 322.077 735.31 326.662 740.769 326.702C746.347 326.742 750.778 322.038 750.739 316.108H750.699C750.659 310.337 746.348 305.752 740.888 305.712ZM698.954 305.633C693.495 305.633 689.183 310.258 689.143 316.029C689.143 321.958 693.535 326.663 699.152 326.623C704.611 326.623 708.923 321.998 708.963 316.227C708.963 310.297 704.571 305.593 698.954 305.633ZM783.138 305.909C777.956 305.87 773.486 310.495 773.367 316.028L773.369 316.502C773.521 321.778 777.763 326.272 782.822 326.464C788.004 326.622 792.553 322.077 792.791 316.543C792.989 310.97 788.479 305.988 783.138 305.909ZM656.703 305.83C651.362 305.87 646.852 310.89 647.09 316.463C647.327 321.997 651.916 326.582 657.059 326.385C662.281 326.187 666.633 321.404 666.514 315.949C666.396 310.415 661.885 305.791 656.703 305.83ZM825.469 306.503C820.247 306.424 816.132 310.733 816.132 316.267C816.132 321.642 820.128 325.911 825.191 325.99C830.413 326.069 834.527 321.761 834.527 316.227C834.527 310.851 830.532 306.582 825.469 306.503ZM614.413 306.344C609.349 306.423 605.354 310.653 605.354 316.068C605.354 321.602 609.469 325.911 614.73 325.871C619.794 325.792 623.789 321.563 623.789 316.147C623.789 310.613 619.674 306.304 614.413 306.344ZM867.837 307.135C862.892 306.977 859.015 310.85 858.936 316.028C858.857 321.127 862.338 325.12 867.086 325.357C872.07 325.594 876.026 321.839 876.184 316.661C876.343 311.404 872.742 307.293 867.837 307.135ZM572.005 306.937C567.099 307.096 563.499 311.206 563.697 316.463C563.895 321.641 567.811 325.397 572.796 325.199C577.543 324.962 581.024 320.969 580.945 315.87C580.866 310.692 576.989 306.819 572.005 306.937ZM910.207 307.807C905.737 307.53 902.018 311.049 901.741 315.792C901.464 320.535 904.747 324.488 909.218 324.844C913.807 325.199 917.684 321.523 917.882 316.661C918.04 311.957 914.677 308.005 910.207 307.768V307.807ZM529.715 307.451L529.676 307.49C525.205 307.727 521.842 311.641 522.04 316.345C522.238 321.207 526.115 324.883 530.704 324.527C535.174 324.171 538.457 320.218 538.18 315.475C537.903 310.731 534.185 307.214 529.715 307.451ZM951.943 308.439C947.948 308.479 944.585 312.115 944.585 316.345C944.585 320.614 947.988 324.21 951.983 324.25C956.097 324.289 959.617 320.495 959.499 316.147C959.38 311.878 955.939 308.36 951.943 308.439ZM487.939 308.084C483.944 308.005 480.501 311.523 480.383 315.792C480.264 320.14 483.785 323.934 487.939 323.895C491.935 323.855 495.337 320.258 495.337 315.989C495.337 311.76 491.974 308.123 487.978 308.044L487.939 308.084ZM994.312 309.19C990.673 309.19 987.587 312.392 987.548 316.266C987.508 320.139 990.514 323.42 994.154 323.539C997.912 323.658 1001.12 320.298 1001.08 316.306C1001.04 312.432 997.952 309.23 994.312 309.229V309.19ZM445.57 308.795C441.931 308.795 438.884 311.996 438.804 315.87C438.765 319.862 442.01 323.223 445.728 323.144C449.368 323.025 452.374 319.744 452.295 315.91C452.255 312.036 449.17 308.834 445.53 308.834L445.57 308.795ZM1036.64 309.98C1033.4 309.941 1030.55 312.827 1030.51 316.306C1030.47 319.784 1033.2 322.748 1036.48 322.827C1039.73 322.867 1042.58 319.981 1042.61 316.503C1042.65 313.024 1039.92 310.06 1036.64 309.98ZM403.239 309.507C399.956 309.547 397.226 312.55 397.265 316.028C397.305 319.507 400.154 322.433 403.437 322.354C406.721 322.314 409.45 319.309 409.411 315.831C409.371 312.353 406.523 309.428 403.239 309.507ZM1079.13 310.613C1076.16 310.416 1073.35 313.104 1073.28 316.267C1073.2 319.271 1075.61 322.077 1078.46 322.274C1081.42 322.472 1084.23 319.784 1084.31 316.622C1084.39 313.618 1081.98 310.811 1079.13 310.613ZM360.752 310.06C357.903 310.257 355.49 313.063 355.569 316.067C355.688 319.23 358.497 321.957 361.425 321.72C364.273 321.522 366.686 318.716 366.607 315.712C366.489 312.55 363.679 309.822 360.752 310.06ZM1125.89 316.345C1125.77 313.578 1123.36 311.127 1120.79 311.403C1117.98 311.72 1116.36 313.459 1116.2 316.463C1116.08 319.19 1118.49 321.602 1121.1 321.602C1123.63 321.563 1125.83 319.188 1125.89 316.56V316.345ZM319.055 310.771C316.484 310.495 314.071 312.945 313.992 315.712C313.913 318.439 316.167 320.969 318.778 321.009C321.389 321.048 323.802 318.598 323.644 315.87C323.486 312.866 321.824 311.127 319.055 310.771ZM1163.63 312.115C1160.98 311.839 1159.56 313.538 1159.04 316.187C1159.2 318.953 1160.47 320.733 1163.12 320.891C1165.57 321.049 1167.19 319.547 1167.43 316.978C1167.67 314.211 1166.2 312.392 1163.63 312.115ZM280.84 315.554C280.325 312.906 278.901 311.206 276.251 311.482C273.679 311.759 272.215 313.578 272.492 316.345C272.729 318.914 274.352 320.416 276.804 320.258C279.455 320.1 280.681 318.321 280.84 315.554ZM1204.77 312.115C1203.82 313.538 1202.32 314.843 1202.08 316.385C1201.69 318.835 1203.35 320.693 1205.6 320.14C1206.99 319.784 1208.73 317.847 1208.89 316.464C1209.05 315.16 1207.35 313.618 1206.44 312.155V312.115H1204.77ZM1247.78 313.538C1246.75 313.38 1245.44 315.001 1243.31 316.503H1243.27C1245.4 318.044 1246.63 319.704 1247.7 319.586C1248.8 319.467 1250.58 317.688 1250.58 316.621C1250.62 315.514 1248.88 313.697 1247.78 313.538ZM233.446 311.443C232.536 312.906 230.835 314.448 230.993 315.752C231.151 317.135 232.892 319.112 234.277 319.428C236.532 319.981 238.193 318.124 237.798 315.713C237.56 314.171 236.057 312.866 235.107 311.443H233.446ZM1332 312.787C1330.93 314.724 1329.82 315.871 1329.9 316.938C1329.98 317.808 1331.53 318.559 1332.4 319.35C1333.19 318.322 1334.49 317.412 1334.65 316.306C1334.77 315.476 1333.34 314.448 1332 312.748V312.787ZM1290.34 313.854C1289.24 314.013 1287.81 315.357 1287.45 316.503C1287.26 317.175 1288.84 319.23 1289.75 319.31C1290.82 319.389 1292.04 318.084 1294.02 316.858H1293.98C1292.24 315.357 1291.17 313.736 1290.34 313.854ZM1416.88 313.683C1415.89 314.972 1414.88 315.797 1414.88 316.543C1414.92 317.333 1415.99 318.085 1416.58 318.875C1417.33 318.124 1418.48 317.531 1418.72 316.622C1418.87 316.033 1417.78 315.052 1416.88 313.683ZM192.065 312.747C190.958 312.906 189.217 314.723 189.257 315.83C189.257 316.897 191.038 318.676 192.145 318.834C193.213 318.952 194.439 317.332 196.536 315.751L196.576 315.712C194.44 314.21 193.133 312.589 192.065 312.747ZM1374.41 313.617C1373.54 315 1372.51 315.87 1372.59 316.621C1372.67 317.412 1373.78 318.084 1374.41 318.835C1375.12 318.044 1376.23 317.372 1376.43 316.463C1376.54 315.87 1375.4 314.921 1374.41 313.617ZM149.499 313.023C148.668 312.905 147.599 314.487 145.859 316.028C147.837 317.254 149.064 318.597 150.133 318.479C151.042 318.399 152.624 316.344 152.427 315.672C152.07 314.526 150.646 313.182 149.499 313.023ZM107.882 311.839C106.536 313.539 105.113 314.566 105.231 315.396C105.39 316.503 106.695 317.413 107.486 318.44C108.356 317.65 109.899 316.899 109.978 316.029C110.057 314.962 108.95 313.815 107.882 311.878V311.839ZM65.4724 312.668C64.4835 313.972 63.3375 314.881 63.4558 315.514C63.6536 316.423 64.7604 317.095 65.4724 317.886C66.1053 317.135 67.2136 316.462 67.2927 315.672C67.3716 314.921 66.3427 314.051 65.4724 312.668ZM23.0242 312.629C22.1143 314.012 21.0061 315.001 21.2039 315.594C21.4413 316.503 22.589 317.096 23.3406 317.847C23.934 317.056 25.0021 316.305 25.0417 315.515C25.0417 314.764 24.0132 313.933 23.0242 312.629ZM1416.88 313.683C1416.88 313.674 1416.89 313.666 1416.9 313.657H1416.86C1416.86 313.666 1416.87 313.674 1416.88 313.683ZM719.723 283.418C714.383 283.378 709.873 288.122 709.873 293.813C709.873 299.23 714.042 303.81 719.116 304.15C719.537 304.199 719.963 304.223 720.395 304.21C725.617 304.052 729.93 299.387 729.969 293.854C729.969 288.407 725.84 283.832 720.771 283.481C720.543 283.454 720.312 283.439 720.079 283.429V283.418C720.026 283.418 719.974 283.422 719.922 283.423C719.869 283.422 719.815 283.418 719.762 283.418H719.723ZM761.973 283.615C756.791 283.615 752.321 288.319 752.321 293.813C752.281 299.308 756.712 304.052 761.934 304.052C767.117 304.052 771.587 299.347 771.587 293.853C771.626 288.358 767.195 283.615 761.973 283.615ZM677.908 283.536C672.686 283.536 668.255 288.279 668.295 293.773C668.295 299.268 672.765 303.973 677.987 303.973C683.209 303.972 687.639 299.229 687.599 293.734C687.599 288.24 683.13 283.536 677.908 283.536ZM804.699 284.13C799.398 283.853 795.126 288.004 794.968 293.498C794.809 298.913 798.647 303.38 803.671 303.617C808.813 303.854 813.047 299.901 813.363 294.604C813.719 289.031 809.842 284.367 804.699 284.13ZM635.143 284.051C630 284.288 626.163 288.952 626.479 294.525C626.796 299.822 631.068 303.775 636.211 303.538V303.498C641.235 303.261 645.033 298.834 644.875 293.419C644.716 287.925 640.405 283.774 635.143 284.051ZM846.475 284.683C841.57 284.683 837.772 288.636 837.732 293.774C837.693 298.913 841.372 302.984 846.238 303.103C851.104 303.221 854.98 299.347 855.138 294.209C855.297 288.912 851.499 284.683 846.475 284.683ZM593.407 284.484C588.383 284.484 584.585 288.674 584.743 294.011C584.901 299.149 588.778 303.023 593.644 302.904C598.51 302.786 602.19 298.715 602.15 293.576C602.071 288.438 598.273 284.484 593.407 284.484ZM889.121 285.275C884.651 284.959 880.655 288.793 880.497 293.615C880.339 298.201 883.82 302.233 888.251 302.549C892.721 302.865 896.716 299.03 896.875 294.208C897.033 289.623 893.551 285.592 889.121 285.275ZM550.76 284.998C546.33 285.314 542.849 289.307 543.007 293.932C543.204 298.754 547.161 302.588 551.632 302.312C556.062 301.995 559.544 298.003 559.385 293.379C559.188 288.556 555.231 284.721 550.76 284.998ZM930.778 285.908C926.862 285.987 923.42 289.584 923.341 293.774C923.261 298.083 926.783 301.917 930.857 301.957C934.932 302.036 938.493 298.241 938.493 293.933L938.453 293.893C938.453 289.584 934.853 285.829 930.778 285.908ZM509.024 285.631C504.95 285.552 501.35 289.307 501.349 293.615C501.349 297.924 504.91 301.719 508.984 301.68C513.059 301.64 516.58 297.806 516.501 293.497C516.382 289.307 512.98 285.71 509.024 285.631ZM973.425 286.698C969.706 286.54 966.343 289.94 966.303 293.893C966.224 297.687 969.31 301.087 972.91 301.245C976.629 301.403 979.991 298.004 980.031 294.051C980.11 290.256 977.024 286.857 973.425 286.698ZM466.418 286.343C462.818 286.501 459.772 289.901 459.811 293.695C459.851 297.648 463.253 301.048 466.932 300.89C470.532 300.731 473.578 297.332 473.539 293.537C473.499 289.584 470.097 286.185 466.418 286.343ZM1015.32 287.371C1011.92 287.49 1009.11 290.613 1009.19 294.17C1009.27 297.727 1012.23 300.731 1015.6 300.652C1018.96 300.534 1021.77 297.411 1021.69 293.854H1021.73C1021.65 290.296 1018.68 287.292 1015.32 287.371ZM424.602 286.936C421.24 286.857 418.273 289.861 418.194 293.419C418.115 296.976 420.963 300.099 424.326 300.218C427.688 300.297 430.655 297.292 430.734 293.734C430.813 290.177 427.965 287.054 424.602 286.936ZM1057.77 288.162C1054.76 288.083 1052.11 290.771 1052.07 293.973C1052.03 297.135 1054.56 299.901 1057.57 299.98C1060.58 300.06 1063.23 297.372 1063.27 294.17C1063.31 291.008 1060.77 288.241 1057.77 288.162ZM382.114 287.647C379.108 287.687 376.577 290.493 376.616 293.655C376.695 296.857 379.306 299.545 382.312 299.466C385.319 299.426 387.851 296.62 387.811 293.458C387.732 290.256 385.121 287.568 382.114 287.647ZM1100.02 288.912C1097.33 288.833 1095.07 291.126 1094.99 293.972C1094.91 296.818 1097.09 299.228 1099.78 299.308C1102.47 299.387 1104.73 297.094 1104.8 294.248C1104.88 291.402 1102.71 288.991 1100.02 288.912ZM339.824 288.319C337.134 288.398 334.958 290.809 335.037 293.655C335.116 296.501 337.411 298.793 340.061 298.754C342.751 298.675 344.927 296.264 344.848 293.418C344.769 290.572 342.474 288.28 339.824 288.319ZM1142.23 289.584C1139.58 289.584 1138.19 291.204 1137.84 293.853L1137.8 293.813C1137.96 296.62 1139.22 298.399 1141.87 298.557C1144.48 298.715 1146.11 297.213 1146.38 294.446C1146.66 291.798 1144.76 289.584 1142.23 289.584ZM297.613 288.991C295.081 288.991 293.183 291.205 293.46 293.854C293.737 296.62 295.359 298.122 297.969 297.964C300.62 297.806 301.886 296.027 302.005 293.261C301.649 290.612 300.264 288.991 297.613 288.991ZM1185.07 289.545C1184.48 289.584 1183.93 289.624 1183.33 289.624C1182.46 291.245 1180.8 292.905 1180.96 294.367C1181.08 295.711 1183.02 297.568 1184.44 297.885C1186.69 298.399 1188.4 296.502 1187.96 294.091C1187.68 292.431 1186.1 291.086 1185.07 289.584V289.545ZM1226.77 290.889C1225.62 290.691 1224.16 292.43 1222.85 293.339L1222.77 293.3V294.842C1224.08 295.83 1225.39 297.49 1226.65 297.49C1227.76 297.49 1229.85 295.394 1229.74 294.485C1229.58 293.102 1228 291.126 1226.77 290.889ZM254.807 288.914C253.779 290.415 252.198 291.759 251.921 293.418C251.485 295.829 253.187 297.727 255.442 297.213C256.866 296.896 258.804 295.039 258.923 293.734C259.081 292.272 257.419 290.572 256.51 288.991C255.929 288.991 255.386 288.953 254.807 288.914ZM1268.86 291.363C1267.99 291.126 1266.69 292.667 1264.71 294.051H1264.67C1266.57 295.592 1267.67 297.134 1268.66 297.095C1269.73 297.015 1270.72 295.434 1271.75 294.525C1270.8 293.419 1270.01 291.679 1268.86 291.363ZM1311.35 290.375C1310.04 292.114 1308.66 293.181 1308.78 293.972C1308.94 295.078 1310.12 296.462 1311.15 296.778C1311.7 296.976 1313.49 295.356 1313.53 294.486C1313.6 293.419 1312.42 292.272 1311.35 290.375ZM217.029 292.589C215.724 291.68 214.259 289.94 213.112 290.138C211.886 290.375 210.304 292.351 210.145 293.734C210.027 294.644 212.124 296.739 213.231 296.739C214.497 296.739 215.803 295.078 217.108 294.13V292.589H217.029ZM1353.24 290.968C1352.29 292.47 1351.23 293.418 1351.31 294.248C1351.42 295.118 1352.61 295.83 1353.32 296.62C1354.07 295.79 1355.26 295.039 1355.46 294.051C1355.58 293.379 1354.35 292.43 1353.24 290.968ZM1395.53 291.284C1394.66 292.668 1393.63 293.537 1393.71 294.288C1393.79 295.079 1394.9 295.751 1395.53 296.502C1396.25 295.711 1397.35 295.039 1397.55 294.13C1397.67 293.537 1396.52 292.588 1395.53 291.284ZM175.135 293.221C173.117 291.837 171.811 290.296 170.98 290.533C169.833 290.85 169.042 292.549 168.093 293.695C169.121 294.604 170.11 296.186 171.178 296.265C172.167 296.304 173.275 294.763 175.174 293.261L175.135 293.221ZM128.49 289.511C127.423 291.405 126.238 292.549 126.317 293.576C126.357 294.446 128.136 296.066 128.69 295.869C129.719 295.553 130.906 294.169 131.064 293.062C131.182 292.279 129.824 291.223 128.49 289.511ZM86.5974 290.019C85.5294 291.481 84.2642 292.43 84.3826 293.102C84.5803 294.09 85.7671 294.841 86.5583 295.671C87.2704 294.881 88.4564 294.169 88.5359 293.3C88.615 292.47 87.5469 291.521 86.5974 290.019ZM44.3083 290.295C43.3195 291.599 42.1725 292.508 42.2908 293.141C42.4885 294.05 43.5963 294.722 44.3083 295.513C44.9413 294.762 46.0486 294.089 46.1277 293.299C46.2065 292.548 45.1786 291.678 44.3083 290.295ZM128.49 289.511C128.491 289.509 128.492 289.507 128.493 289.505L128.453 289.466C128.465 289.481 128.478 289.495 128.49 289.511ZM254.807 288.914L254.808 288.912H254.769C254.782 288.913 254.795 288.913 254.807 288.914ZM740.927 261.519C735.666 261.44 731.512 265.669 731.433 271.203C731.315 276.935 735.468 281.362 740.848 281.362C746.07 281.323 750.145 277.013 750.145 271.479H750.185C750.185 265.946 746.149 261.598 740.927 261.519ZM698.914 261.519C693.692 261.598 689.658 265.906 689.697 271.479L689.657 271.44C689.657 276.974 693.732 281.283 698.994 281.322C704.374 281.322 708.528 276.895 708.409 271.203C708.29 265.669 704.175 261.439 698.914 261.519ZM783.059 261.795C777.996 261.795 773.921 266.025 773.882 271.4C773.842 276.776 777.798 281.125 782.862 281.204C788.084 281.283 792.238 276.934 792.198 271.4C792.158 266.025 788.084 261.756 783.02 261.756L783.059 261.795ZM656.783 261.677C651.719 261.677 647.644 265.946 647.644 271.282C647.644 276.816 651.798 281.164 657.02 281.085C662.084 281.006 666.039 276.658 666 271.282C665.96 265.906 661.886 261.677 656.822 261.677H656.783ZM825.112 262.31C820.246 262.349 816.567 266.421 816.567 271.56C816.607 276.738 820.365 280.73 825.231 280.73C830.137 280.73 833.934 276.777 833.973 271.639C834.013 266.342 830.136 262.23 825.112 262.31ZM614.69 262.151C609.666 262.072 605.789 266.184 605.868 271.48C605.947 276.619 609.745 280.571 614.611 280.571C619.477 280.571 623.236 276.579 623.275 271.44H623.235C623.235 266.302 619.516 262.23 614.69 262.151ZM867.678 262.863C863.208 262.745 859.332 266.737 859.332 271.52C859.332 276.184 862.971 280.097 867.362 280.216C871.832 280.334 875.71 276.342 875.71 271.56C875.71 266.895 872.07 262.982 867.678 262.863ZM572.084 262.666C567.693 262.785 564.093 266.697 564.093 271.322C564.093 276.105 567.969 280.137 572.479 280.019C576.87 279.9 580.47 275.986 580.47 271.361C580.47 266.579 576.593 262.548 572.084 262.666ZM909.89 263.613C905.816 263.495 902.177 267.25 902.177 271.559C902.177 275.709 905.499 279.425 909.455 279.623C913.49 279.821 917.169 276.184 917.328 271.836C917.486 267.567 913.965 263.653 909.89 263.574V263.613ZM529.906 263.298C525.834 263.381 522.316 267.253 522.474 271.56C522.633 275.908 526.312 279.544 530.347 279.347C534.303 279.149 537.626 275.472 537.587 271.282C537.586 266.986 533.967 263.24 529.906 263.298ZM952.062 264.247C948.344 264.247 945.099 267.686 945.099 271.6C945.06 275.552 948.304 278.991 952.022 278.991C955.741 278.991 958.985 275.552 958.985 271.639C959.025 267.686 955.781 264.247 952.062 264.247ZM487.78 263.931C484.061 263.931 480.857 267.37 480.857 271.283C480.857 275.196 484.102 278.635 487.82 278.635C491.538 278.634 494.743 275.196 494.743 271.283C494.743 267.37 491.499 263.931 487.78 263.931ZM994.154 264.998C990.752 265.117 987.943 268.239 988.022 271.797C988.102 275.354 991.068 278.358 994.43 278.279C997.793 278.161 1000.6 275.038 1000.52 271.48H1000.56C1000.48 267.923 997.517 264.919 994.154 264.998ZM445.688 264.603C442.326 264.523 439.358 267.527 439.279 271.085C439.2 274.642 442.048 277.765 445.411 277.884C448.773 277.963 451.741 274.959 451.82 271.401C451.899 267.844 449.051 264.721 445.688 264.603ZM1036.4 265.749C1033.36 265.789 1030.87 268.555 1030.91 271.757C1030.99 274.959 1033.6 277.607 1036.6 277.567C1039.65 277.528 1042.14 274.761 1042.1 271.56C1042.02 268.358 1039.41 265.71 1036.4 265.749ZM403.398 265.274C400.392 265.195 397.78 267.883 397.701 271.085C397.661 274.287 400.193 277.053 403.2 277.093C406.207 277.172 408.817 274.484 408.896 271.282C408.936 268.081 406.405 265.314 403.398 265.274ZM1078.85 266.421C1075.96 266.382 1073.75 268.713 1073.79 271.796C1073.83 274.84 1076.16 277.133 1079.05 276.975C1081.78 276.856 1083.8 274.524 1083.76 271.599C1083.72 268.674 1081.62 266.46 1078.85 266.421ZM360.989 265.907C358.22 265.947 356.123 268.16 356.084 271.085C356.044 274.01 358.061 276.342 360.791 276.461C363.679 276.619 366.013 274.327 366.052 271.283C366.092 268.2 363.877 265.868 360.989 265.907ZM1121.5 267.172C1118.97 266.816 1116.87 268.714 1116.67 271.362C1116.48 274.05 1118.22 276.224 1120.75 276.382L1120.79 276.422C1123.32 276.58 1125.41 274.682 1125.41 271.994C1125.41 269.227 1124.11 267.528 1121.5 267.172ZM323.17 270.769C322.972 268.12 320.875 266.223 318.344 266.579C315.733 266.935 314.427 268.634 314.427 271.401C314.427 274.089 316.524 275.986 319.095 275.828V275.789C321.627 275.631 323.367 273.456 323.17 270.769ZM1163.43 267.883C1161.97 267.764 1160.35 269.74 1158.77 270.808V272.468C1160.19 273.614 1161.49 275.433 1163.08 275.749C1165.45 276.223 1167.39 274.326 1166.99 271.836C1166.72 270.255 1164.78 268.001 1163.43 267.883ZM1206.2 267.527C1205.68 267.567 1205.21 267.606 1204.7 267.606C1203.82 268.99 1202.04 270.531 1202.24 271.678C1202.52 273.14 1204.26 274.959 1205.64 275.235C1206.55 275.393 1208.73 273.141 1208.77 271.876C1208.85 270.453 1207.15 268.99 1206.24 267.527H1206.2ZM276.369 267.211C275.024 267.33 273.085 269.583 272.808 271.164C272.413 273.654 274.391 275.551 276.725 275.077C278.308 274.761 279.614 272.943 281.038 271.836V270.137C279.455 269.069 277.833 267.092 276.369 267.211ZM1247.91 267.438C1246.5 269.436 1245.05 270.577 1245.09 271.639C1245.13 272.745 1246.63 273.813 1247.5 274.88C1248.57 273.852 1250.15 273.022 1250.47 271.797C1250.66 270.892 1249.21 269.517 1247.91 267.438ZM233.604 266.816C232.694 268.279 230.993 269.741 231.072 271.164C231.112 272.429 233.328 274.683 234.198 274.524C235.583 274.248 237.323 272.429 237.6 270.967C237.798 269.82 236.017 268.279 235.107 266.896C234.593 266.895 234.118 266.856 233.604 266.816ZM1290.19 268.002C1288.88 269.741 1287.49 270.808 1287.61 271.599C1287.81 272.705 1289 274.05 1290.03 274.366C1290.62 274.563 1292.36 272.943 1292.4 272.073C1292.48 271.006 1291.29 269.899 1290.19 268.002ZM1332.24 268.595C1331.21 270.097 1330.1 270.967 1330.14 271.797C1330.18 272.667 1331.37 273.418 1332.04 274.248C1332.83 273.418 1334.06 272.706 1334.29 271.758C1334.45 271.086 1333.27 270.058 1332.24 268.556V268.595ZM1374.53 268.871C1373.58 270.215 1372.59 271.045 1372.59 271.796C1372.63 272.586 1373.7 273.338 1374.33 274.089C1375.04 273.338 1376.19 272.705 1376.43 271.796C1376.58 271.203 1375.44 270.215 1374.53 268.871ZM191.908 266.618C190.602 268.713 189.138 270.097 189.376 271.006C189.692 272.231 191.274 273.101 192.343 274.089C193.213 273.022 194.717 271.954 194.757 270.848C194.796 269.78 193.332 268.634 191.908 266.618ZM149.658 267.172C148.55 269.03 147.403 270.176 147.442 271.243C147.482 272.113 149.223 273.733 149.816 273.575C150.845 273.259 152.031 271.915 152.229 270.809C152.348 270.018 150.964 268.95 149.658 267.211V267.172ZM107.565 267.686C106.537 269.188 105.349 270.216 105.508 270.888C105.745 271.836 106.971 272.548 107.762 273.378C108.435 272.548 109.622 271.796 109.662 270.927C109.701 270.097 108.594 269.227 107.565 267.726V267.686ZM65.2751 267.923C64.3655 269.267 63.218 270.255 63.3757 270.848C63.613 271.757 64.7607 272.39 65.5125 273.141C66.1454 272.39 67.2131 271.638 67.2527 270.848C67.2524 270.097 66.2635 269.267 65.3142 267.923H65.2751ZM1247.91 267.438C1247.92 267.429 1247.93 267.419 1247.93 267.409H1247.89C1247.9 267.419 1247.91 267.429 1247.91 267.438ZM720.277 239.422C720.139 239.42 720 239.422 719.863 239.427C719.751 239.424 719.638 239.421 719.525 239.423C714.58 239.541 710.466 244.047 710.585 249.305C710.703 254.443 714.818 258.713 719.644 258.713C719.974 258.715 720.299 258.696 720.621 258.66C725.262 258.42 729.142 254.253 729.258 249.265C729.376 244.007 725.262 239.462 720.277 239.383V239.422ZM761.815 239.58C756.989 239.62 752.835 244.047 752.875 249.146C752.914 254.245 757.108 258.633 761.934 258.594C766.761 258.554 770.914 254.126 770.875 249.027C770.835 243.928 766.641 239.541 761.815 239.58ZM677.947 239.502C673.121 239.463 668.928 243.85 668.888 248.949C668.888 254.048 673.003 258.476 677.829 258.555C682.655 258.594 686.849 254.207 686.888 249.107C686.888 244.008 682.773 239.581 677.947 239.502ZM804.383 240.056C799.398 239.937 795.56 243.811 795.56 249.028C795.521 254.127 799.121 258.08 803.868 258.199C808.853 258.318 812.69 254.443 812.69 249.226C812.73 244.127 809.13 240.174 804.383 240.056ZM635.381 239.937C630.633 240.056 627.033 244.009 627.073 249.068C627.113 254.286 630.95 258.16 635.895 258.041C640.642 257.922 644.242 253.97 644.203 248.91C644.163 243.692 640.326 239.819 635.381 239.937ZM846.237 240.608C841.767 240.688 838.285 244.522 838.325 249.226L838.365 249.265C838.405 253.969 842.005 257.724 846.435 257.724C850.866 257.723 854.466 253.968 854.506 249.265C854.545 244.403 850.826 240.49 846.237 240.608ZM593.565 240.411C588.976 240.293 585.258 244.206 585.337 249.067C585.376 253.771 588.976 257.526 593.407 257.526C597.838 257.526 601.438 253.771 601.477 249.067C601.517 244.364 597.996 240.53 593.565 240.411ZM888.567 241.162C884.492 241.202 880.972 245.036 881.091 249.345L881.051 249.306C881.169 253.654 884.849 257.329 888.884 257.171C892.84 257.013 896.202 253.377 896.202 249.187C896.241 244.878 892.642 241.123 888.567 241.162ZM551.195 240.924C547.121 240.885 543.56 244.64 543.56 248.948C543.56 253.138 546.923 256.775 550.879 256.973C554.914 257.131 558.593 253.455 558.712 249.146V249.106C558.83 244.837 555.309 240.963 551.195 240.924ZM930.936 241.873C927.257 241.834 923.974 245.194 923.934 249.146C923.895 253.06 927.099 256.539 930.818 256.578C934.497 256.617 937.781 253.257 937.82 249.305C937.86 245.391 934.655 241.913 930.936 241.873ZM508.827 241.557C505.108 241.596 501.903 245.075 501.982 248.988C502.022 252.941 505.306 256.301 509.024 256.262C512.743 256.222 515.947 252.743 515.868 248.83C515.828 244.877 512.545 241.517 508.827 241.557ZM973.305 242.546C969.903 242.427 966.975 245.352 966.817 248.949L966.778 248.909C966.659 252.506 969.35 255.709 972.752 255.906C976.154 256.104 979.2 253.297 979.437 249.7C979.675 245.985 976.866 242.665 973.305 242.546ZM466.457 242.19C462.896 242.309 460.088 245.629 460.325 249.345C460.562 252.942 463.608 255.788 467.01 255.551C470.413 255.353 473.103 252.191 472.945 248.594H472.984C472.826 244.997 469.859 242.072 466.457 242.19ZM1015.24 243.297C1012.15 243.376 1009.74 245.984 1009.74 249.226C1009.7 252.625 1012.31 255.313 1015.52 255.234C1018.6 255.155 1021.02 252.546 1021.02 249.305C1021.05 245.905 1018.44 243.218 1015.24 243.297ZM424.562 242.861C421.358 242.782 418.747 245.47 418.787 248.869C418.787 252.11 421.2 254.72 424.286 254.799C427.49 254.878 430.101 252.189 430.061 248.79C430.061 245.549 427.648 242.94 424.562 242.861ZM1057.65 244.047C1054.88 244.047 1052.74 246.222 1052.66 249.146C1052.58 252.19 1054.76 254.6 1057.65 254.601C1060.42 254.601 1062.55 252.387 1062.63 249.502C1062.71 246.458 1060.54 244.047 1057.65 244.047ZM382.154 243.533C379.266 243.533 377.091 245.945 377.17 248.988C377.249 251.874 379.425 254.087 382.154 254.087C385.042 254.087 387.217 251.676 387.138 248.633C387.059 245.708 384.884 243.533 382.154 243.533ZM1099.74 244.72H1099.78C1097.25 244.799 1095.35 246.894 1095.55 249.582C1095.74 252.349 1097.25 253.891 1099.86 253.97C1102.39 254.088 1104.25 252.033 1104.25 249.306C1104.25 246.618 1102.31 244.641 1099.74 244.72ZM340.061 244.166C337.49 244.087 335.591 246.064 335.552 248.752C335.552 251.479 337.411 253.535 339.982 253.416C342.593 253.337 344.097 251.795 344.295 249.028C344.492 246.34 342.593 244.245 340.061 244.166ZM1141.36 244.602C1140.29 246.104 1138.63 247.526 1138.35 249.187C1137.96 251.716 1139.78 253.772 1142.11 253.298C1143.61 253.021 1145.71 250.926 1145.79 249.503C1145.91 247.961 1144.01 246.262 1142.98 244.602H1141.36ZM1185.03 245.154C1184.52 245.194 1184.04 245.233 1183.53 245.233C1182.66 246.617 1180.88 248.158 1181.08 249.305C1181.35 250.767 1183.09 252.586 1184.48 252.862C1185.39 253.02 1187.56 250.768 1187.6 249.503C1187.68 248.08 1185.98 246.617 1185.07 245.154H1185.03ZM296.822 244.008C295.793 245.668 293.895 247.368 294.013 248.909C294.093 250.332 296.229 252.427 297.693 252.743C300.027 253.217 301.846 251.162 301.451 248.633C301.174 246.973 299.473 245.549 298.444 244.047H296.822V244.008ZM1226.37 244.996C1225.15 247.131 1223.8 248.396 1223.92 249.463C1224.08 250.57 1225.66 251.479 1226.61 252.467C1227.56 251.4 1229.1 250.372 1229.3 249.146C1229.46 248.198 1227.84 246.972 1226.37 244.996ZM254.69 244.443C253.78 245.906 252.08 247.368 252.159 248.791C252.198 250.056 254.414 252.309 255.284 252.151C256.669 251.875 258.409 250.056 258.686 248.594C258.884 247.447 257.104 245.906 256.194 244.522C255.68 244.522 255.204 244.483 254.69 244.443ZM1268.58 246.933C1267.83 246.814 1266.84 248.316 1265.22 249.739C1267.04 250.846 1268.15 252.071 1269.14 251.992C1269.97 251.913 1271.47 250.016 1271.28 249.423C1270.92 248.316 1269.61 247.091 1268.58 246.933ZM213.354 244.331C211.9 246.28 210.344 247.494 210.462 248.436C210.659 249.661 212.203 250.689 213.152 251.796C214.102 250.808 215.683 249.898 215.842 248.791C215.96 247.725 214.619 246.461 213.354 244.331ZM1353.16 246.538C1352.33 247.921 1351.38 248.83 1351.46 249.581C1351.58 250.372 1352.69 251.004 1353.36 251.716C1354.04 250.886 1355.14 250.175 1355.3 249.266C1355.42 248.633 1354.19 247.763 1353.16 246.498V246.538ZM1311.11 247.289C1310.48 247.092 1309.45 248.317 1307.99 249.305V249.345C1309.33 250.491 1310.12 251.716 1310.91 251.716C1311.71 251.676 1312.54 250.49 1313.33 249.818C1312.62 248.909 1312.02 247.605 1311.11 247.289ZM171.219 246.143C170.19 246.301 168.884 247.526 168.567 248.593C168.369 249.186 169.873 251.083 170.704 251.162C171.684 251.24 172.781 250.077 174.572 248.94C172.956 247.52 171.969 246.025 171.219 246.143ZM131.815 248.475C130.352 247.486 129.323 246.261 128.69 246.459C127.78 246.775 127.187 248.08 126.475 248.949C127.266 249.621 128.097 250.806 128.888 250.846C129.679 250.845 130.471 249.621 131.815 248.475ZM86.6375 245.589C85.6089 246.854 84.3821 247.723 84.5007 248.316C84.6589 249.225 85.7666 249.937 86.4392 250.767C87.1117 250.055 88.2197 249.423 88.3386 248.633C88.4177 247.882 87.4683 246.972 86.6375 245.589ZM174.572 248.94C174.575 248.943 174.578 248.947 174.581 248.949L174.62 248.909C174.604 248.919 174.588 248.93 174.572 248.94ZM213.349 244.324C213.351 244.326 213.353 244.329 213.354 244.331C213.366 244.316 213.378 244.301 213.389 244.285L213.349 244.324ZM740.69 217.722C735.943 217.761 732.263 221.674 732.263 226.694C732.224 231.754 735.903 235.706 740.65 235.746C745.437 235.825 749.196 231.991 749.275 226.971C749.354 221.753 745.596 217.722 740.69 217.722ZM699.033 217.683C694.128 217.683 690.369 221.714 690.448 226.893C690.527 231.913 694.326 235.748 699.073 235.708C703.82 235.668 707.46 231.715 707.46 226.655H707.499C707.499 221.635 703.78 217.683 699.033 217.683ZM783.077 217.919C778.656 217.893 774.792 221.919 774.713 226.615C774.594 231.279 778.352 235.431 782.822 235.589C787.371 235.747 791.367 231.596 791.367 226.734C791.327 221.997 787.5 217.93 783.077 217.919ZM656.703 217.801C652.272 217.801 648.435 221.872 648.395 226.576C648.395 231.438 652.431 235.628 656.98 235.47C661.451 235.312 665.169 231.201 665.09 226.497C665.01 221.793 661.134 217.761 656.703 217.801ZM825.309 218.473C820.918 218.394 817.477 221.912 817.397 226.536C817.318 231.2 820.602 234.917 824.954 235.035C829.503 235.193 833.063 231.556 833.063 226.773C833.063 222.149 829.74 218.512 825.349 218.473H825.309ZM614.414 218.354C610.023 218.394 606.699 221.991 606.699 226.655C606.699 231.438 610.26 235.075 614.809 234.917C619.161 234.798 622.444 231.082 622.365 226.418C622.286 221.793 618.844 218.276 614.414 218.315V218.354ZM867.56 219.026C863.446 218.987 860.163 222.387 860.163 226.734C860.123 231.082 863.367 234.562 867.442 234.562C871.556 234.601 874.839 231.201 874.84 226.854C874.879 222.505 871.635 219.026 867.56 219.026ZM572.203 218.828C568.128 218.828 564.884 222.307 564.924 226.655C564.924 231.003 568.207 234.403 572.321 234.363C576.396 234.363 579.64 230.884 579.6 226.536C579.6 222.188 576.317 218.789 572.203 218.828ZM909.89 219.579C906.172 219.5 902.888 222.94 902.888 226.893C902.889 230.687 906.013 234.047 909.613 234.126C913.332 234.205 916.616 230.766 916.616 226.813C916.616 223.019 913.49 219.658 909.89 219.579ZM529.873 219.263C526.273 219.342 523.187 222.663 523.147 226.497C523.147 230.45 526.431 233.889 530.149 233.81C533.749 233.731 536.835 230.41 536.875 226.576C536.875 222.623 533.591 219.184 529.873 219.263ZM951.903 220.212C948.541 220.291 945.693 223.374 945.732 226.932C945.772 230.489 948.699 233.533 952.061 233.494C955.424 233.415 958.272 230.332 958.233 226.774C958.194 223.217 955.266 220.172 951.903 220.212ZM487.859 219.896C484.497 219.857 481.57 222.861 481.53 226.418C481.49 229.975 484.338 233.098 487.701 233.138C491.063 233.177 493.991 230.174 494.031 226.616C494.071 223.059 491.222 219.936 487.859 219.896ZM994.233 220.924C991.147 220.924 988.694 223.493 988.615 226.734C988.536 230.173 991.068 232.9 994.272 232.9C997.358 232.9 999.811 230.331 999.89 227.09C999.969 223.691 997.437 220.924 994.233 220.924ZM445.53 220.528C442.326 220.528 439.794 223.256 439.873 226.694C439.952 229.936 442.444 232.506 445.53 232.506C448.734 232.506 451.266 229.778 451.187 226.379C451.108 223.138 448.616 220.567 445.53 220.567V220.528ZM1036.6 221.635C1033.67 221.556 1031.46 223.848 1031.46 226.932C1031.5 229.857 1033.56 232.109 1036.33 232.188C1039.25 232.267 1041.47 229.975 1041.47 226.892C1041.43 223.967 1039.33 221.714 1036.6 221.635ZM403.121 221.161C400.391 221.24 398.295 223.493 398.295 226.418C398.295 229.501 400.51 231.834 403.437 231.755C406.207 231.676 408.263 229.422 408.263 226.497C408.263 223.414 406.048 221.082 403.121 221.161ZM1078.66 222.347C1076.04 222.465 1074.54 224.007 1074.38 226.773C1074.22 229.461 1076.12 231.557 1078.66 231.597C1081.23 231.636 1083.13 229.66 1083.13 226.972C1083.13 224.244 1081.23 222.228 1078.66 222.347ZM1120.83 221.2C1119.09 223.849 1117.46 225.311 1117.23 226.972C1116.91 229.501 1118.69 231.201 1121.14 231.122C1123.6 231.043 1125.3 229.225 1124.78 226.734C1124.43 225.074 1122.73 223.73 1120.83 221.2ZM361.108 221.793C358.537 221.674 356.637 223.691 356.637 226.418C356.638 229.106 358.537 231.122 361.108 231.043C363.64 231.003 365.539 228.908 365.381 226.22C365.222 223.453 363.719 221.912 361.108 221.793ZM318.902 220.653C317.056 223.153 315.334 224.492 314.98 226.142C314.466 228.632 316.167 230.45 318.62 230.529C321.073 230.608 322.853 228.948 322.497 226.418C322.26 224.759 320.602 223.297 318.902 220.653ZM1167.19 226.141C1165.89 225.192 1164.38 223.334 1163.31 223.571C1161.93 223.888 1160.94 225.904 1159.75 227.169C1160.9 228.355 1162.01 230.449 1163.2 230.449C1164.54 230.528 1165.93 228.71 1167.27 227.722C1167.27 227.208 1167.19 226.654 1167.19 226.141ZM1290.11 224.758C1289.31 225.588 1288.13 226.3 1287.89 227.288C1287.73 227.96 1288.96 228.988 1290.03 230.45V230.41C1291.02 228.908 1292.12 227.999 1292.04 227.169C1291.96 226.339 1290.82 225.548 1290.11 224.758ZM1205.45 222.623C1204.1 224.718 1202.72 225.904 1202.8 226.972C1202.88 228.078 1204.42 229.066 1205.33 230.094C1206.36 229.027 1207.94 228.118 1208.18 226.893C1208.37 225.983 1206.83 224.679 1205.45 222.623ZM276.449 222.939C275.381 222.702 273.877 224.56 272.572 225.509C272.572 226.01 272.499 226.548 272.495 227.051C273.839 228.039 275.223 229.857 276.567 229.817C277.754 229.817 278.862 227.723 280.01 226.537C278.823 225.272 277.833 223.256 276.449 222.939ZM1247.97 224.561C1246.98 224.482 1245.88 225.668 1244.06 226.774C1245.68 228.197 1246.67 229.699 1247.42 229.58C1248.45 229.461 1249.32 228.079 1250.27 227.209C1249.52 226.26 1248.8 224.64 1247.97 224.561ZM149.658 223.889C148.985 224.679 147.799 225.43 147.719 226.3C147.64 227.13 148.748 228.039 149.737 229.541V229.581C150.805 228.119 151.991 227.091 151.873 226.419C151.635 225.431 150.449 224.719 149.658 223.889ZM234.316 221.912C232.932 223.968 231.389 225.273 231.587 226.182C231.824 227.407 233.407 228.316 234.435 229.383C235.345 228.355 236.887 227.366 236.967 226.26C237.045 225.193 235.661 223.967 234.316 221.912ZM1332.36 224.125C1331.37 225.429 1330.3 226.221 1330.3 226.972C1330.3 227.762 1331.37 228.552 1331.96 229.343C1332.71 228.631 1333.86 228.038 1334.14 227.129C1334.33 226.536 1333.23 225.508 1332.36 224.125ZM191.79 223.81C190.959 223.889 190.247 225.509 189.495 226.458C190.444 227.328 191.315 228.711 192.344 228.829C193.095 228.947 194.084 227.446 195.667 226.023H195.706C193.886 224.917 192.779 223.731 191.79 223.81ZM107.407 223.216C106.537 224.599 105.429 225.627 105.627 226.181C105.904 227.09 107.051 227.683 107.802 228.395C108.396 227.604 109.464 226.813 109.464 226.022C109.463 225.272 108.396 224.481 107.407 223.177V223.216ZM272.493 227.09C272.493 227.077 272.495 227.064 272.495 227.051H272.493V227.09ZM318.896 220.646C318.898 220.649 318.901 220.651 318.902 220.653C318.913 220.638 318.925 220.623 318.936 220.607L318.896 220.646ZM719.862 195.814C715.489 195.662 711.885 199.102 711.574 203.769C711.297 208.512 714.541 212.464 719.011 212.859C719.345 212.888 719.674 212.894 719.999 212.881C720.247 212.885 720.499 212.879 720.752 212.859C725.222 212.504 728.466 208.512 728.149 203.769C727.838 199.103 724.235 195.662 719.862 195.814ZM761.934 196.021C757.385 195.942 753.944 199.618 753.983 204.44C754.023 209.105 757.385 212.662 761.776 212.701C766.326 212.78 769.768 209.105 769.728 204.282C769.689 199.618 766.326 196.06 761.934 196.021ZM677.75 195.941C673.359 195.941 669.995 199.539 669.956 204.203C669.956 209.025 673.358 212.702 677.947 212.662C682.338 212.662 685.701 209.065 685.741 204.401C685.741 199.579 682.339 195.902 677.75 195.941ZM803.987 196.297C799.873 196.376 796.391 200.211 796.47 204.52C796.55 208.867 800.15 212.583 804.224 212.504C808.339 212.425 811.82 208.591 811.741 204.282C811.662 199.934 808.062 196.218 803.987 196.297ZM635.737 196.179C631.662 196.1 628.062 199.776 627.983 204.124C627.904 208.433 631.425 212.267 635.5 212.346C639.574 212.424 643.175 208.748 643.254 204.4C643.333 200.092 639.812 196.258 635.737 196.179ZM846.633 196.93C842.637 196.772 839.394 199.934 839.275 204.124C839.117 208.393 842.123 211.792 846.079 211.95C850.074 212.108 853.319 208.946 853.437 204.756C853.595 200.487 850.589 197.088 846.633 196.93ZM593.091 196.731C589.135 196.89 586.128 200.29 586.286 204.559C586.444 208.748 589.648 211.91 593.683 211.792C597.639 211.634 600.646 208.235 600.488 203.966C600.33 199.776 597.126 196.613 593.091 196.731ZM888.686 197.443C884.888 197.404 882.001 200.448 882.001 204.44C882.001 208.314 884.73 211.278 888.37 211.437C892.128 211.594 895.135 208.63 895.214 204.638C895.293 200.606 892.444 197.483 888.686 197.443ZM551.037 197.207C547.279 197.247 544.43 200.369 544.51 204.361C544.589 208.354 547.596 211.318 551.393 211.199C555.033 211.081 557.723 208.077 557.762 204.203C557.762 200.211 554.835 197.168 551.077 197.207H551.037ZM930.738 198.076C927.455 198.155 924.725 201.12 924.764 204.599C924.844 208.077 927.653 210.962 930.936 210.923C934.22 210.844 936.949 207.88 936.91 204.401C936.831 200.923 934.022 198.037 930.738 198.076ZM508.945 197.76C505.662 197.72 502.853 200.607 502.813 204.085C502.774 207.563 505.503 210.527 508.787 210.606C512.07 210.646 514.879 207.761 514.919 204.282C514.958 200.804 512.229 197.839 508.945 197.76ZM973.068 198.669C970.22 198.709 967.688 201.357 967.609 204.361C967.53 207.484 970.18 210.33 973.147 210.33C975.996 210.291 978.528 207.642 978.607 204.638C978.686 201.515 976.035 198.669 973.068 198.669ZM466.655 198.313C463.688 198.313 461.038 201.159 461.117 204.282C461.196 207.286 463.767 209.935 466.576 209.975C469.543 209.975 472.193 207.128 472.114 204.005C472.035 201.001 469.464 198.353 466.655 198.313ZM1015.64 199.341C1012.99 199.183 1010.61 201.396 1010.45 204.242C1010.29 207.049 1012.39 209.579 1015.08 209.737C1017.73 209.895 1020.11 207.682 1020.26 204.836C1020.42 202.029 1018.33 199.499 1015.64 199.341ZM424.089 198.906C421.399 199.064 419.302 201.594 419.46 204.4C419.618 207.246 421.992 209.46 424.642 209.302C427.332 209.143 429.429 206.614 429.27 203.808C429.112 200.962 426.739 198.748 424.089 198.906ZM1057.41 200.013C1054.88 200.369 1053.34 201.831 1053.38 204.638C1053.45 207.405 1054.96 208.946 1057.61 209.064C1060.14 209.183 1062.08 207.009 1061.88 204.321C1061.64 201.515 1060.06 200.21 1057.41 200.013ZM1100.02 200.725C1098.53 200.607 1096.92 202.586 1095.39 203.66V205.35C1096.81 206.496 1098.12 208.275 1099.7 208.591C1102.04 209.025 1104.01 207.128 1103.58 204.638C1103.34 203.096 1101.36 200.844 1100.02 200.725ZM382.312 199.499C379.662 199.657 378.08 201.001 377.843 203.808C377.645 206.496 379.583 208.669 382.115 208.551C384.765 208.432 386.268 206.891 386.347 204.124C386.387 201.318 384.805 199.855 382.312 199.499ZM339.706 200.171C338.361 200.289 336.383 202.503 336.145 204.084C335.71 206.574 337.688 208.472 340.061 208.037C341.644 207.76 342.95 205.942 344.374 204.796V203.136C342.831 202.069 341.209 200.053 339.706 200.171ZM1142.58 200.566C1142.11 200.606 1141.64 200.645 1141.16 200.646C1140.33 202.069 1138.83 203.571 1138.95 204.915C1139.06 206.101 1141.16 208.156 1142.03 207.958C1143.34 207.681 1145.08 205.863 1145.2 204.559C1145.31 203.333 1143.57 201.91 1142.62 200.566H1142.58ZM1184.16 200.211C1182.9 202.345 1181.55 203.61 1181.67 204.678C1181.79 205.824 1183.37 206.733 1184.32 207.722C1185.31 206.615 1186.85 205.627 1187.05 204.401C1187.21 203.492 1185.63 202.226 1184.16 200.25V200.211ZM1226.89 200.843C1225.54 202.542 1224.12 203.57 1224.24 204.36C1224.4 205.467 1225.7 206.416 1226.49 207.404C1227.4 206.614 1228.91 205.863 1228.99 204.993C1229.06 203.926 1227.92 202.78 1226.89 200.843ZM297.098 199.935C296.149 201.278 294.409 202.701 294.527 203.927C294.646 205.231 296.387 207.049 297.692 207.326C298.562 207.524 300.659 205.468 300.778 204.282C300.896 202.938 299.353 201.437 298.562 200.014C298.088 200.014 297.613 199.974 297.138 199.935H297.098ZM255.6 199.578C254.137 201.555 252.554 202.82 252.713 203.729C252.911 204.955 254.453 205.943 255.442 207.05C256.392 206.062 257.974 205.152 258.093 204.006C258.211 202.939 256.866 201.674 255.6 199.539V199.578ZM1268.78 202.543C1267.99 202.662 1267.32 203.926 1266.61 204.717C1267.44 205.507 1268.19 206.733 1269.1 206.931C1269.73 207.049 1270.6 205.705 1271.95 204.52C1270.48 203.531 1269.53 202.424 1268.78 202.543ZM1310.95 202.701C1310.4 202.544 1309.49 203.769 1308.22 204.757C1309.49 205.745 1310.28 206.812 1310.99 206.772C1311.75 206.733 1312.42 205.587 1313.13 204.915C1312.42 204.124 1311.82 202.938 1310.95 202.701ZM212.836 200.092C211.807 202.028 210.66 203.175 210.739 204.242C210.818 205.112 212.361 205.864 213.231 206.654C214.022 205.666 215.328 204.717 215.486 203.61C215.605 202.82 214.181 201.792 212.836 200.053V200.092ZM170.941 201.752C170.19 201.633 169.24 202.74 167.776 203.729C169.121 204.914 170.03 206.257 170.624 206.14C171.534 205.942 172.286 204.716 173.117 203.926C172.405 203.135 171.732 201.871 170.941 201.752ZM131.5 203.927C130.234 202.939 129.324 201.714 128.77 201.871C127.9 202.108 127.307 203.294 126.594 204.085C127.306 204.757 127.979 205.903 128.73 205.942C129.442 205.982 130.234 204.915 131.5 203.927ZM1095.35 203.689C1095.36 203.68 1095.38 203.67 1095.39 203.66V203.649L1095.35 203.689ZM740.769 174.082C736.774 174.042 733.332 177.561 733.253 181.83C733.174 186.059 736.457 189.735 740.492 189.894C744.448 190.052 747.969 186.613 748.167 182.344C748.365 177.996 744.923 174.122 740.769 174.082ZM698.915 174.043C694.761 174.083 691.319 177.917 691.516 182.305C691.714 186.574 695.236 190.013 699.231 189.854C703.266 189.696 706.549 186.02 706.47 181.791H706.431C706.352 177.522 702.91 174.004 698.915 174.043ZM782.941 174.438C778.906 174.438 775.82 177.64 775.82 181.909C775.781 186.376 778.985 189.657 783.178 189.578C787.214 189.499 790.18 186.218 790.14 181.909H790.101C790.062 177.64 786.976 174.439 782.941 174.438ZM656.703 174.32C652.668 174.32 649.582 177.522 649.543 181.791L649.582 181.831C649.542 186.139 652.549 189.42 656.545 189.499C660.738 189.578 663.902 186.298 663.863 181.831C663.823 177.562 660.738 174.36 656.703 174.32ZM825.508 174.794C821.828 174.557 818.427 177.956 818.347 181.909C818.268 185.704 821.314 189.143 824.914 189.341C828.593 189.578 831.996 186.178 832.075 182.226C832.154 178.431 829.108 174.992 825.508 174.794ZM614.136 174.636C610.537 174.833 607.49 178.272 607.569 182.027C607.648 185.98 611.051 189.38 614.769 189.143C618.369 188.945 621.416 185.506 621.337 181.751C621.258 177.798 617.855 174.399 614.136 174.636ZM867.56 175.348C864.119 175.308 861.27 178.076 861.112 181.712C860.954 185.507 863.684 188.669 867.244 188.827C870.804 188.985 873.771 186.06 873.85 182.266C873.929 178.471 871.121 175.387 867.56 175.348ZM572.163 175.071C568.602 175.111 565.794 178.194 565.873 181.988V182.028C565.952 185.823 568.919 188.748 572.518 188.59C576.079 188.471 578.809 185.309 578.611 181.475C578.453 177.838 575.605 175.032 572.163 175.071ZM909.81 175.94C906.527 175.901 903.995 178.43 903.916 181.869C903.797 185.348 906.171 188.075 909.415 188.233C912.856 188.392 915.507 185.743 915.508 182.146C915.508 178.668 913.094 176.059 909.81 175.979V175.94ZM529.873 175.703C526.589 175.743 524.176 178.392 524.216 181.87C524.216 185.467 526.866 188.115 530.307 187.957C533.551 187.799 535.885 185.111 535.806 181.633C535.688 178.194 533.195 175.664 529.912 175.703H529.873ZM952.061 176.414C949.213 176.375 946.642 178.984 946.602 182.027C946.563 185.071 949.015 187.759 951.903 187.838C954.751 187.877 957.323 185.269 957.363 182.226C957.403 179.182 954.949 176.493 952.061 176.414ZM487.623 176.099C484.735 176.138 482.281 178.866 482.321 181.909C482.361 184.953 484.932 187.561 487.82 187.521C490.708 187.482 493.16 184.755 493.121 181.711C493.081 178.668 490.51 176.059 487.623 176.099ZM994.312 177.047C991.701 177.007 989.288 179.419 989.407 182.186C989.526 185.15 991.188 186.929 993.957 187.285C996.488 187.601 998.94 185.15 999.059 182.384C999.178 179.656 996.923 177.126 994.312 177.047ZM445.412 176.651C442.801 176.691 440.545 179.221 440.664 181.988C440.783 184.755 443.236 187.206 445.767 186.89C448.536 186.534 450.198 184.795 450.317 181.791C450.436 179.024 447.983 176.612 445.412 176.651ZM1036.13 177.719C1033.87 178.272 1032.17 179.617 1032.33 182.463C1032.45 185.032 1033.99 186.613 1036.44 186.613C1039.06 186.574 1040.6 184.913 1040.6 182.146C1040.6 179.34 1038.9 177.956 1036.09 177.68L1036.13 177.719ZM403.596 177.205C400.788 177.482 399.087 178.866 399.087 181.633C399.087 184.4 400.63 186.06 403.28 186.1C405.732 186.099 407.276 184.518 407.394 181.949C407.552 179.103 405.851 177.719 403.596 177.166V177.205ZM1082.22 182.541C1082.85 180.209 1081.27 178.193 1078.93 178.47C1077.39 178.628 1075.96 180.169 1074.46 181.118L1074.42 181.158C1074.38 181.751 1074.38 182.384 1074.38 182.977C1075.81 184.004 1077.23 185.901 1078.62 185.901C1079.88 185.901 1081.82 184.003 1082.22 182.541ZM1121.06 178.944C1119.92 178.747 1118.45 180.485 1117.15 181.395L1117.07 181.355V182.897C1118.37 183.886 1119.68 185.546 1120.95 185.546C1122.05 185.546 1124.15 183.45 1124.03 182.541C1123.87 181.158 1122.29 179.181 1121.06 178.944ZM360.752 177.917C358.418 177.64 356.836 179.656 357.469 181.988C357.864 183.451 359.802 185.348 361.068 185.349C362.453 185.349 363.877 183.49 365.302 182.423C365.302 181.83 365.262 181.198 365.222 180.605C363.719 179.657 362.295 178.115 360.752 177.917ZM1163.16 179.458C1162.29 179.221 1160.98 180.762 1159 182.146C1160.9 183.648 1162.01 185.19 1163 185.15C1164.07 185.071 1165.06 183.49 1166.08 182.581C1165.13 181.474 1164.3 179.774 1163.16 179.458ZM322.536 180.842C321.231 179.933 319.767 178.194 318.62 178.392C317.394 178.629 315.812 180.605 315.653 181.988C315.534 182.897 317.63 184.993 318.738 184.993C320.004 184.993 321.31 183.332 322.615 182.384V180.842H322.536ZM1205.37 178.636C1204.27 180.231 1202.96 181.364 1203.11 182.146C1203.31 183.214 1204.69 184.044 1205.57 184.992C1206.36 184.044 1207.7 183.134 1207.86 182.027C1207.98 181.238 1206.56 180.173 1205.37 178.636ZM1247.66 180.17C1246.87 180.289 1246.19 181.553 1245.48 182.344C1246.31 183.134 1247.06 184.36 1247.97 184.558C1248.61 184.676 1249.48 183.332 1250.82 182.146C1249.36 181.158 1248.41 180.051 1247.66 180.17ZM1289.81 179.367C1288.95 180.774 1287.97 181.638 1288.05 182.384C1288.13 183.174 1289.24 183.846 1289.91 184.558C1290.62 183.767 1291.69 183.056 1291.89 182.146C1292 181.558 1290.84 180.657 1289.81 179.367ZM280.681 181.514C278.703 180.13 277.397 178.589 276.527 178.826C275.38 179.143 274.549 180.842 273.599 181.949C274.628 182.858 275.617 184.439 276.685 184.519C277.674 184.598 278.782 183.016 280.681 181.514ZM234.356 177.917C233.169 179.459 231.745 180.526 231.864 181.316C232.022 182.423 233.367 183.332 234.198 184.32C235.068 183.372 236.413 182.542 236.65 181.475C236.808 180.684 235.464 179.538 234.356 177.917ZM192.066 179.379C191.315 179.261 190.365 180.367 188.902 181.355C190.247 182.541 191.156 183.885 191.75 183.767C192.66 183.569 193.411 182.343 194.242 181.553C193.53 180.762 192.857 179.497 192.066 179.379ZM149.934 178.51C148.906 179.814 147.719 180.723 147.877 181.316C148.075 182.226 149.143 182.937 149.855 183.728C150.528 183.016 151.635 182.344 151.715 181.554C151.794 180.803 150.805 179.933 149.934 178.51ZM1289.81 179.367C1289.82 179.358 1289.82 179.349 1289.83 179.34H1289.79C1289.8 179.349 1289.8 179.358 1289.81 179.367ZM1205.37 178.628C1205.37 178.631 1205.37 178.633 1205.37 178.636C1205.38 178.62 1205.4 178.605 1205.41 178.589L1205.37 178.628ZM719.644 152.263C715.965 152.223 712.682 155.583 712.642 159.536C712.603 163.449 715.807 166.928 719.525 166.968C719.631 166.969 719.736 166.966 719.841 166.962C719.946 166.966 720.052 166.969 720.158 166.968C723.877 166.928 727.081 163.449 727.042 159.536C727.002 155.583 723.718 152.223 720 152.263C719.94 152.263 719.881 152.267 719.822 152.27C719.763 152.267 719.704 152.263 719.644 152.263ZM761.934 152.5C758.295 152.421 755.169 155.544 755.051 159.418C754.892 163.41 758.097 166.81 761.855 166.81C765.495 166.77 768.58 163.568 768.58 159.694C768.58 155.86 765.574 152.579 761.934 152.5ZM677.71 152.422C674.07 152.501 671.063 155.781 671.063 159.615C671.063 163.489 674.149 166.691 677.789 166.73C681.547 166.73 684.712 163.331 684.594 159.339C684.475 155.465 681.31 152.343 677.71 152.422ZM803.868 152.855C800.426 152.974 797.736 155.94 797.736 159.576C797.697 163.41 800.545 166.375 804.145 166.375C807.706 166.375 810.514 163.292 810.435 159.497L810.474 159.457C810.395 155.662 807.468 152.737 803.868 152.855ZM635.815 152.816C632.215 152.698 629.288 155.623 629.209 159.417L629.21 159.731C629.306 163.362 632.051 166.257 635.539 166.295C639.139 166.295 641.986 163.331 641.947 159.536C641.947 155.9 639.217 152.935 635.815 152.816ZM846.396 153.29C843.152 153.251 840.303 156.137 840.263 159.615C840.224 163.094 842.955 166.097 846.238 166.137C849.482 166.176 852.33 163.291 852.37 159.812C852.409 156.334 849.68 153.33 846.396 153.29ZM593.249 153.093C589.965 153.132 587.236 156.136 587.275 159.614C587.315 163.093 590.163 166.018 593.446 165.939C596.73 165.9 599.459 162.895 599.42 159.417C599.38 155.939 596.532 153.014 593.249 153.093ZM888.488 153.804C885.442 153.843 882.949 156.611 882.989 159.812C883.068 163.014 885.68 165.663 888.686 165.623C891.732 165.583 894.225 162.817 894.185 159.615C894.106 156.413 891.495 153.764 888.488 153.804ZM551.195 153.568C548.189 153.49 545.578 156.177 545.499 159.379C545.459 162.581 547.991 165.347 550.998 165.387C554.004 165.466 556.615 162.778 556.694 159.576C556.734 156.374 554.202 153.608 551.195 153.568ZM930.857 154.477C927.969 154.437 925.755 156.809 925.834 159.893C925.913 162.818 928.009 165.031 930.778 165.031C933.666 165.071 935.881 162.699 935.802 159.616C935.723 156.691 933.626 154.477 930.857 154.477ZM508.827 154.159C506.058 154.159 503.961 156.374 503.882 159.299C503.803 162.382 506.018 164.753 508.906 164.714C511.675 164.714 513.772 162.5 513.851 159.575C513.93 156.492 511.715 154.12 508.827 154.159ZM972.949 154.911C970.417 155.109 968.796 156.611 968.558 159.496C968.321 162.263 970.417 164.635 973.028 164.556C975.758 164.477 977.381 162.895 977.618 160.01C977.855 157.283 975.758 154.99 972.949 154.95V154.911ZM466.734 154.595C463.926 154.595 461.868 156.887 462.066 159.654C462.304 162.54 463.926 164.121 466.655 164.2C469.266 164.279 471.363 161.907 471.126 159.18C470.888 156.294 469.226 154.792 466.734 154.595ZM1014.49 154.872C1013.38 156.493 1011.64 157.995 1011.36 159.773C1010.97 162.224 1012.75 163.885 1015.16 164.122C1017.34 164.359 1019.87 161.908 1019.28 159.734C1018.76 157.956 1017.18 156.493 1016.07 154.872H1014.49ZM423.574 154.437C422.466 156.057 420.884 157.52 420.37 159.299C419.777 161.473 422.308 163.924 424.484 163.687C426.897 163.449 428.678 161.788 428.282 159.338C428.005 157.559 426.264 156.057 425.156 154.437H423.574ZM1058.28 155.425C1057.73 155.464 1057.17 155.465 1056.62 155.465C1055.75 156.927 1054.05 158.508 1054.21 159.812C1054.4 161.236 1056.18 163.133 1057.53 163.449C1059.78 163.963 1061.45 162.065 1061.01 159.654C1060.73 158.113 1059.23 156.848 1058.28 155.425ZM381.402 154.951C380.453 156.335 378.949 157.639 378.673 159.181C378.238 161.592 379.899 163.489 382.154 162.976C383.499 162.659 385.279 160.762 385.477 159.339C385.635 158.034 383.935 156.453 383.064 154.99C382.51 154.99 381.956 154.991 381.402 154.951ZM1100.02 155.148C1098.47 157.322 1096.89 158.548 1096.97 159.694C1097.05 160.88 1098.67 162.817 1099.7 162.856C1100.69 162.896 1102.47 161.157 1102.67 159.971C1102.87 158.864 1101.36 157.481 1100.02 155.148ZM1142.23 155.701C1140.81 157.559 1139.34 158.745 1139.46 159.614C1139.66 160.76 1140.92 162.262 1142.03 162.618C1142.66 162.855 1144.56 161.117 1144.64 160.168C1144.72 159.022 1143.42 157.796 1142.23 155.701ZM1184.4 156.65C1183.33 158.073 1182.19 158.903 1182.19 159.733C1182.22 160.603 1183.37 161.433 1184 162.303C1184.87 161.512 1186.1 160.88 1186.38 159.932C1186.58 159.299 1185.39 158.192 1184.44 156.65H1184.4ZM339.666 154.595C338.321 156.927 336.818 158.311 337.015 159.418C337.214 160.604 338.994 162.342 340.022 162.303C341.051 162.263 342.673 160.326 342.752 159.141C342.831 157.994 341.249 156.769 339.706 154.556L339.666 154.595ZM297.416 155.069C296.229 157.164 294.963 158.39 295.042 159.536C295.121 160.485 297.02 162.224 297.653 162.026C298.761 161.671 300.026 160.208 300.224 159.022C300.343 158.153 298.839 156.966 297.455 155.108L297.416 155.069ZM1226.45 157.955C1225.74 158.034 1225.15 159.259 1224.47 159.971C1225.23 160.682 1225.94 161.828 1226.81 161.986C1227.4 162.104 1228.18 160.831 1229.34 159.732C1228.04 158.863 1227.16 157.837 1226.45 157.955ZM255.205 155.938C254.255 157.48 253.108 158.587 253.266 159.22C253.544 160.168 254.809 160.84 255.639 161.591C256.272 160.721 257.42 159.891 257.42 159.021C257.42 158.191 256.273 157.361 255.205 155.938ZM213.191 157.244C212.479 157.126 211.609 158.152 210.304 159.021C211.468 160.12 212.248 161.392 212.835 161.275C213.705 161.117 214.418 159.971 215.17 159.26C214.497 158.548 213.903 157.323 213.191 157.244ZM740.729 130.72C737.525 130.68 734.677 133.645 734.558 137.044C734.44 140.562 737.367 143.803 740.729 143.804C743.934 143.843 746.782 140.879 746.901 137.479C747.02 133.961 744.092 130.72 740.729 130.72ZM698.915 130.681C695.552 130.681 692.624 133.883 692.743 137.44C692.862 140.84 695.75 143.804 698.954 143.804C702.316 143.804 705.244 140.602 705.126 137.045C705.007 133.646 702.119 130.681 698.915 130.681ZM783.138 131.154C779.855 131.036 777.284 133.487 777.126 136.926C776.968 140.562 779.46 143.408 782.862 143.408C786.146 143.448 788.637 140.878 788.717 137.439C788.756 133.961 786.382 131.273 783.138 131.154ZM656.466 130.996C653.222 131.115 650.848 133.803 650.927 137.281L650.887 137.32C650.967 140.759 653.459 143.33 656.743 143.29C660.145 143.29 662.638 140.443 662.479 136.807C662.321 133.368 659.749 130.878 656.466 130.996ZM825.112 131.393C822.066 131.432 819.573 134.199 819.613 137.4C819.692 140.602 822.304 143.25 825.31 143.211C828.356 143.171 830.849 140.405 830.809 137.203C830.73 134.001 828.119 131.353 825.112 131.393ZM614.532 131.234C611.526 131.156 608.915 133.843 608.836 137.045C608.796 140.247 611.328 143.013 614.335 143.053C617.341 143.132 619.952 140.444 620.031 137.242C620.07 134.04 617.539 131.274 614.532 131.234ZM867.442 131.984C864.515 131.984 862.379 134.238 862.379 137.36C862.379 140.443 864.515 142.736 867.442 142.736C870.37 142.736 872.506 140.483 872.506 137.36C872.506 134.277 870.37 131.984 867.442 131.984ZM572.202 131.747C569.275 131.747 567.138 134 567.138 137.123C567.138 140.246 569.275 142.499 572.242 142.499C575.169 142.499 577.305 140.246 577.305 137.123C577.305 134 575.169 131.747 572.202 131.747ZM909.613 132.342C907.121 132.381 904.945 134.792 904.984 137.44C905.024 140.089 907.318 142.381 909.81 142.342C912.342 142.302 914.479 139.891 914.439 137.243C914.4 134.595 912.105 132.302 909.613 132.342ZM530.031 132.064C527.539 132.025 525.284 134.317 525.205 136.966C525.165 139.614 527.342 142.025 529.834 142.064C532.326 142.104 534.581 139.811 534.66 137.163C534.699 134.515 532.523 132.104 530.031 132.064ZM952.061 132.934C949.49 133.171 947.789 134.555 947.75 137.361C947.71 139.931 949.174 141.59 951.587 141.788C954.237 141.986 955.899 140.405 956.057 137.638C956.216 134.831 954.593 133.369 952.061 132.895V132.934ZM487.543 132.578C485.011 133.013 483.389 134.515 483.548 137.321C483.706 140.088 485.406 141.669 488.017 141.472C490.43 141.314 491.895 139.614 491.855 137.045C491.816 134.238 490.114 132.854 487.543 132.617V132.578ZM1120.98 141.273L1121.02 141.234C1121.02 141.232 1121.02 141.228 1121.02 141.226C1121.01 141.242 1121 141.257 1120.98 141.273ZM994.075 133.725C992.809 133.843 990.989 135.859 990.673 137.321C990.158 139.693 991.86 141.591 994.154 141.195C995.697 140.919 997.041 139.297 998.466 138.27V136.412C997.002 135.424 995.459 133.606 994.075 133.725ZM1120.83 134.87C1120.03 135.819 1118.69 136.728 1118.53 137.835C1118.41 138.624 1119.83 139.688 1121.02 141.226C1122.12 139.631 1123.44 138.498 1123.28 137.716C1123.08 136.649 1121.7 135.819 1120.83 134.87ZM445.609 133.329C444.224 133.211 442.681 135.028 441.218 136.017V137.874H441.178C442.603 138.902 443.948 140.523 445.53 140.8C447.824 141.195 449.526 139.297 449.011 136.926C448.695 135.463 446.875 133.448 445.609 133.329ZM1035.69 133.408C1034.82 134.792 1033.28 136.215 1033.32 137.559C1033.36 138.744 1035.38 140.919 1036.25 140.761C1037.51 140.563 1039.37 138.824 1039.53 137.52C1039.69 136.294 1037.99 134.792 1037.12 133.408H1035.69ZM318.778 134.238C317.908 135.187 316.562 136.017 316.325 137.084C316.167 137.875 317.512 139.021 318.62 140.642C319.807 139.1 321.231 138.033 321.112 137.242C320.954 136.136 319.609 135.226 318.778 134.238ZM1078.66 133.052C1077.31 135.147 1075.93 136.333 1076 137.4C1076.08 138.507 1077.63 139.495 1078.54 140.522C1079.57 139.455 1081.15 138.546 1081.39 137.321C1081.58 136.412 1080.04 135.107 1078.66 133.052ZM402.488 132.934C401.618 134.317 399.917 135.82 400.075 137.045C400.233 138.349 402.093 140.089 403.398 140.286C404.268 140.444 406.286 138.27 406.326 137.124C406.365 135.78 404.822 134.357 403.952 132.974H402.488V132.934ZM360.989 132.539C359.604 134.594 358.062 135.899 358.26 136.809C358.497 138.034 360.08 138.943 361.108 140.01C362.018 138.982 363.56 137.993 363.639 136.887C363.718 135.82 362.334 134.594 360.989 132.539ZM1163.35 134.238C1162.25 135.661 1161.1 136.491 1161.1 137.321C1161.1 138.191 1162.25 139.021 1162.88 139.891C1163.71 139.1 1164.98 138.467 1165.25 137.519C1165.45 136.886 1164.3 135.779 1163.35 134.238ZM1205.64 134.594C1204.62 135.859 1203.51 136.61 1203.51 137.361C1203.47 138.152 1204.5 138.982 1205.09 139.772C1205.88 139.061 1207.07 138.507 1207.35 137.638C1207.54 137.045 1206.48 136.017 1205.64 134.594ZM276.291 133.605C275.341 135.147 274.194 136.254 274.391 136.887C274.668 137.835 275.935 138.467 276.765 139.258C277.398 138.388 278.546 137.558 278.546 136.688C278.545 135.858 277.398 135.028 276.291 133.605ZM234 133.883C233.169 135.306 232.102 136.334 232.3 136.927C232.577 137.796 233.763 138.349 234.554 139.061C235.108 138.27 236.176 137.44 236.136 136.649C236.136 135.898 235.028 135.148 234 133.883ZM719.407 108.94C716.401 109.059 713.869 111.865 713.987 115.027C714.106 118.19 716.757 120.877 719.763 120.759C719.779 120.758 719.795 120.756 719.81 120.755C719.834 120.756 719.858 120.759 719.882 120.76C722.888 120.878 725.539 118.229 725.618 115.027C725.697 111.865 723.204 109.02 720.198 108.94C720.065 108.935 719.934 108.937 719.802 108.942C719.671 108.937 719.54 108.935 719.407 108.94ZM761.894 109.178C759.046 109.138 756.475 111.747 756.435 114.79C756.396 117.834 758.848 120.562 761.736 120.602C764.584 120.641 767.156 118.032 767.196 114.988C767.236 111.945 764.782 109.217 761.894 109.178ZM677.71 109.138C674.822 109.177 672.369 111.905 672.409 114.948C672.449 117.992 675.02 120.6 677.908 120.561C680.796 120.521 683.248 117.794 683.209 114.75C683.169 111.706 680.598 109.098 677.71 109.138ZM804.105 109.652C801.336 109.613 799.16 111.786 799.042 114.672C798.923 117.755 801.099 120.206 803.987 120.206C806.756 120.245 808.932 118.071 809.051 115.186C809.169 112.102 806.993 109.652 804.105 109.652ZM635.499 109.533C632.611 109.533 630.435 111.983 630.594 115.066C630.712 117.952 632.888 120.126 635.657 120.087C638.545 120.087 640.721 117.636 640.562 114.553C640.444 111.667 638.268 109.494 635.499 109.533ZM846.713 110.126C844.141 109.81 841.768 111.865 841.767 114.632C841.767 117.517 843.152 119.336 845.882 119.691C848.493 120.047 850.708 117.952 850.866 115.027L850.827 114.988C850.748 112.34 849.482 110.482 846.713 110.126ZM597.798 114.553C597.797 111.786 595.424 109.731 592.852 110.047C590.091 110.402 588.864 112.251 588.74 114.888C588.907 117.803 591.157 119.889 593.723 119.573C596.453 119.217 597.837 117.399 597.798 114.553ZM888.488 110.481C885.917 110.916 884.295 112.339 884.374 115.146C884.453 117.715 885.956 119.335 888.409 119.375C891.02 119.454 892.681 117.794 892.681 115.027C892.721 112.221 891.059 110.798 888.488 110.481ZM551.117 110.244C548.546 110.56 546.884 111.984 546.924 114.751C546.924 117.518 548.585 119.178 551.196 119.099C553.649 119.059 555.152 117.438 555.231 114.869C555.31 112.063 553.688 110.6 551.117 110.205V110.244ZM934.655 114.869C934.576 112.26 932.874 110.482 930.501 111.035C928.919 111.431 927.692 113.249 925.318 115.265H925.279C927.811 117.043 929.196 118.782 930.778 119.02C933.191 119.375 934.774 117.478 934.655 114.869ZM509.103 110.719C506.73 110.165 505.029 111.944 504.95 114.553C504.831 117.162 506.414 119.059 508.827 118.703C510.409 118.466 511.794 116.727 514.286 114.948C511.912 112.932 510.646 111.075 509.103 110.719ZM973.425 111.628C972.04 111.786 970.18 113.525 969.824 114.948C969.587 115.857 971.565 118.348 972.752 118.506C974.057 118.664 975.6 117.003 977.024 116.134L977.064 116.095V114.553C975.838 113.525 974.493 111.51 973.425 111.628ZM466.18 111.232C465.112 111.114 463.767 113.091 462.541 114.158V115.699L462.581 115.739C464.005 116.609 465.548 118.268 466.853 118.11C468.04 117.952 470.018 115.501 469.781 114.553C469.425 113.13 467.565 111.391 466.18 111.232ZM1015.25 110.333C1013.83 112.557 1012.31 113.929 1012.47 115.027C1012.63 116.213 1014.33 118.031 1015.36 118.031C1016.35 118.031 1018.05 116.174 1018.17 114.988C1018.29 113.883 1016.75 112.58 1015.25 110.333ZM1057.65 112.379C1056.58 112.339 1055.47 113.722 1053.53 115.066C1055.39 116.489 1056.54 117.991 1057.37 117.834C1058.48 117.636 1059.82 116.213 1060.1 115.027C1060.26 114.355 1058.56 112.379 1057.65 112.379ZM424.345 109.959C422.888 112.193 421.359 113.491 421.437 114.593C421.556 115.779 423.257 117.636 424.246 117.676C425.274 117.676 426.975 115.897 427.134 114.672C427.291 113.57 425.764 112.194 424.345 109.959ZM381.956 111.904C381.046 111.905 379.345 113.881 379.504 114.553C379.781 115.739 381.125 117.161 382.233 117.398C383.064 117.557 384.211 116.055 386.07 114.632V114.592C384.132 113.248 383.024 111.865 381.956 111.904ZM1099.66 112.933C1099.07 112.775 1098.08 114.039 1096.66 115.106C1098.04 116.173 1098.87 117.359 1099.66 117.32C1100.49 117.281 1101.2 116.055 1101.99 115.344C1101.24 114.474 1100.57 113.209 1099.66 112.933ZM1141.99 113.131C1141.24 113.25 1140.65 114.435 1139.97 115.146C1140.73 115.858 1141.4 117.005 1142.27 117.202C1142.86 117.32 1143.69 116.055 1144.88 114.948C1143.57 114.039 1142.7 113.052 1141.99 113.131ZM342.95 114.553C341.526 113.485 340.536 112.221 339.943 112.379C339.033 112.656 338.4 113.92 337.609 114.79C338.4 115.502 339.112 116.727 339.943 116.806C340.734 116.845 341.565 115.659 342.95 114.592V114.553ZM297.613 112.498C296.901 112.38 296.07 113.407 294.725 114.316C295.912 115.423 296.743 116.688 297.337 116.569C298.207 116.372 298.879 115.225 299.631 114.514C298.958 113.802 298.365 112.617 297.613 112.498ZM588.738 114.909C588.738 114.902 588.74 114.895 588.74 114.888C588.74 114.882 588.738 114.875 588.738 114.869V114.909ZM1015.24 110.323C1015.24 110.327 1015.25 110.33 1015.25 110.333C1015.26 110.317 1015.27 110.301 1015.28 110.284L1015.24 110.323ZM424.345 109.959C424.352 109.949 424.358 109.939 424.365 109.929H424.325C424.331 109.939 424.339 109.949 424.345 109.959ZM740.769 87.5156C738.237 87.4366 735.983 89.7291 735.943 92.417C735.864 95.0652 738.039 97.4363 740.571 97.5156C743.103 97.5947 745.359 95.3022 745.398 92.6143C745.477 89.966 743.301 87.5947 740.769 87.5156ZM698.796 87.4756C696.264 87.5152 694.089 89.9269 694.168 92.5752C694.207 95.2631 696.502 97.5556 698.994 97.4766C701.526 97.4369 703.701 95.0261 703.622 92.3779C703.582 89.69 701.288 87.3965 698.796 87.4756ZM782.901 87.9502C780.33 88.2664 778.708 89.6498 778.708 92.4561C778.668 95.2625 780.171 96.8443 782.782 97.042C785.274 97.2001 787.292 95.1049 787.174 92.417C787.055 89.6106 785.472 88.227 782.901 87.9502ZM656.703 87.8711C654.132 88.1478 652.549 89.4919 652.43 92.3379C652.312 95.0257 654.329 97.1209 656.861 96.9629C659.472 96.7653 660.976 95.1835 660.936 92.377C660.936 89.5707 659.274 88.1873 656.703 87.8711ZM829.226 92.7734C829.464 90.4413 827.169 87.7533 825.112 88.3857C823.411 88.8996 822.026 90.5988 820.483 91.7451V93.4453C822.026 94.5916 823.451 96.4494 825.112 96.7656C827.446 97.2003 828.989 95.3031 829.226 92.7734ZM614.453 88.2275C612.396 87.5951 610.101 90.2831 610.339 92.6152C610.616 95.1449 612.158 97.0422 614.453 96.6074C616.114 96.2911 617.538 94.4334 619.081 93.2871V91.5869C617.538 90.4011 616.154 88.7414 614.453 88.2275ZM910.314 88.3857C909.804 88.3869 909.333 88.4648 908.822 88.4648C907.952 89.8482 906.172 91.429 906.409 92.5752C906.686 94.0377 908.585 95.1057 909.811 96.3311C910.919 95.1057 912.897 93.9192 912.897 92.6543C912.936 91.2449 911.269 89.7959 910.314 88.3857ZM866.69 88.1875C865.701 89.6105 864.198 90.8754 863.921 92.417C863.486 94.8282 865.147 96.7257 867.402 96.2119C868.747 95.9352 870.528 93.9977 870.725 92.6143C870.923 91.3099 869.222 89.729 868.351 88.2666V88.2266C867.798 88.1871 867.244 88.1875 866.69 88.1875ZM572.875 87.9502C572.321 87.9502 571.767 87.9497 571.214 87.9893V88.0293C570.343 89.4917 568.642 91.0726 568.84 92.377C569.037 93.7604 570.818 95.6978 572.163 95.9746C574.418 96.4885 576.079 94.5909 575.644 92.1797C575.367 90.6381 573.864 89.3732 572.875 87.9502ZM529.28 88.0703C528.331 89.4932 526.629 90.9551 526.669 92.3779C526.669 93.6428 528.647 94.8284 529.755 96.0537C530.981 94.8284 532.88 93.7613 533.157 92.2988C533.394 91.1525 531.613 89.5715 530.743 88.1484C530.242 88.1484 529.779 88.0742 529.28 88.0703ZM951.688 88.2559C950.427 90.373 949.056 91.6319 949.214 92.6943C949.372 93.801 950.955 94.7101 951.904 95.6982C952.853 94.5916 954.396 93.6032 954.594 92.3779C954.712 91.4732 953.146 90.2157 951.688 88.2559ZM994.47 89.9668C993.368 89.8487 992.186 91.1794 990.185 92.3613C991.91 93.8957 992.971 95.4995 993.798 95.3818C994.905 95.2237 996.369 93.9197 996.725 92.7734C996.923 92.141 995.38 90.0855 994.47 89.9668ZM487.899 87.9111C486.435 89.8875 484.853 91.1128 485.011 92.0615C485.209 93.2868 486.752 94.3146 487.741 95.3818C488.69 94.3938 490.272 93.4845 490.43 92.3779C490.589 91.3107 489.204 90.0457 487.938 87.9111H487.899ZM1036.4 89.4521C1035.38 90.9542 1034.27 91.8242 1034.31 92.6543C1034.35 93.5239 1035.53 94.2754 1036.21 95.1055C1037 94.2754 1038.22 93.5638 1038.46 92.6152C1038.66 91.9433 1037.43 90.9152 1036.4 89.4131V89.4521ZM445.094 89.5713C444.185 89.6504 442.642 91.7455 442.84 92.3779C443.196 93.5242 444.66 94.8282 445.767 94.9863C446.594 95.104 447.656 93.5005 449.382 91.9658C447.379 90.745 446.158 89.4532 445.094 89.5713ZM1078.77 89.7295C1077.79 91.0338 1076.72 91.8242 1076.72 92.5752C1076.72 93.3657 1077.78 94.1567 1078.38 94.9473C1079.13 94.2358 1080.28 93.6425 1080.55 92.7334C1080.75 92.1405 1079.64 91.1128 1078.77 89.7295ZM403.161 88.9385C402.132 90.4405 400.945 91.4686 401.103 92.1406C401.341 93.0893 402.567 93.8008 403.358 94.6309C404.031 93.8009 405.218 93.0501 405.258 92.1807C405.297 91.3506 404.189 90.4804 403.161 88.9785V88.9385ZM360.792 89.2148C359.922 90.5982 358.814 91.6263 359.011 92.1797C359.288 93.0888 360.436 93.682 361.187 94.3936C361.781 93.603 362.848 92.812 362.848 92.0215C362.848 91.2706 361.781 90.4799 360.792 89.1758V89.2148ZM990.158 92.3779C990.167 92.3726 990.176 92.3667 990.185 92.3613C990.176 92.3535 990.167 92.3457 990.158 92.3379V92.3779ZM449.382 91.9658C449.39 91.971 449.398 91.9772 449.407 91.9824V91.9434C449.398 91.9509 449.39 91.9583 449.382 91.9658ZM910.314 88.3857C910.318 88.3857 910.321 88.3857 910.325 88.3857L910.286 88.3457C910.295 88.3592 910.305 88.3722 910.314 88.3857ZM951.688 88.2559C951.694 88.2463 951.7 88.2371 951.706 88.2275H951.666C951.673 88.2372 951.681 88.2462 951.688 88.2559ZM718.852 65.1816C717.705 66.7627 715.925 68.1861 715.569 69.9648C715.055 72.4156 716.835 74.1159 719.209 74.4717C719.391 74.4982 719.576 74.5032 719.762 74.4941C719.949 74.5032 720.135 74.4982 720.317 74.4717C722.691 74.1158 724.43 72.4155 723.956 69.9648C723.6 68.1862 721.82 66.7627 720.634 65.1816C720.345 65.1816 720.043 65.1824 719.743 65.1895C719.443 65.1824 719.141 65.1816 718.852 65.1816ZM760.946 65.6172C759.997 67.1588 758.256 68.7396 758.335 70.2021C758.374 71.5461 760.233 73.5621 761.618 73.918C763.833 74.5109 765.653 72.7718 765.337 70.3213C765.139 68.6611 763.636 67.1979 762.686 65.6562V65.6172H760.946ZM676.84 65.5771C675.93 67.1186 674.427 68.5812 674.189 70.2412C673.873 72.6919 675.693 74.4318 677.908 73.8389C679.293 73.4831 681.152 71.4665 681.191 70.1621C681.27 68.6996 679.53 67.1187 678.541 65.5771H676.84ZM804.145 66.9219C802.998 66.7242 801.534 68.4629 800.228 69.3721V70.9141C801.534 71.8627 802.839 73.5224 804.105 73.5225C805.213 73.4829 807.269 71.3888 807.151 70.4795C806.953 69.0961 805.372 67.1199 804.145 66.9219ZM639.337 69.2529C638.031 68.3438 636.567 66.5651 635.42 66.7627C634.193 66.9604 632.611 68.9369 632.413 70.3203C632.294 71.2294 634.352 73.3245 635.499 73.3643C636.765 73.3643 638.07 71.7036 639.376 70.7549V69.2139L639.337 69.2529ZM846.231 65.8223C844.888 67.8729 843.468 69.0972 843.587 70.1631C843.706 71.3092 845.248 72.2576 846.158 73.2852C847.147 72.218 848.729 71.2693 848.967 70.0439C849.123 69.1027 847.607 67.8494 846.231 65.8223ZM593.307 65.6455C591.928 67.684 590.401 68.9418 590.558 69.8467C590.796 71.072 592.378 72.0207 593.367 73.0879C594.277 72.0602 595.82 71.1112 595.938 69.9648C596.056 68.9027 594.647 67.6834 593.307 65.6455ZM888.686 66.0518C887.302 67.9094 885.798 69.0557 885.917 69.9648C886.115 71.1112 887.38 72.614 888.488 72.9697C889.121 73.2067 891.02 71.4672 891.099 70.5186C891.178 69.3723 889.873 68.1467 888.686 66.0518ZM930.541 67.751C929.71 67.8696 928.997 69.4507 928.246 70.3994C929.195 71.2295 930.066 72.6133 931.094 72.7715C931.846 72.8901 932.796 71.3879 934.418 69.9648H934.457C932.637 68.8581 931.53 67.6325 930.541 67.751ZM550.84 65.7754C549.653 67.8703 548.386 69.0959 548.466 70.2422C548.545 71.1909 550.444 72.93 551.077 72.7324C552.185 72.3767 553.45 70.8739 553.648 69.7275C553.766 68.8185 552.263 67.672 550.879 65.8145L550.84 65.7754ZM972.871 68.1074C972.277 67.9493 971.288 69.214 969.864 70.2812C971.249 71.3485 972.08 72.5346 972.871 72.4951C973.701 72.4553 974.414 71.23 975.205 70.5186C974.453 69.6491 973.781 68.3844 972.871 68.1074ZM509.063 67.4355C508.074 67.3174 506.967 68.5428 505.147 69.6494C506.769 71.0722 507.718 72.5733 508.51 72.4551C509.538 72.297 510.409 70.9141 511.358 70.084C510.607 69.1353 509.894 67.5146 509.063 67.4355ZM1015.24 68.3047C1014.49 68.4233 1013.89 69.6098 1013.22 70.3213C1013.97 71.0327 1014.65 72.1781 1015.52 72.376C1016.11 72.4946 1016.94 71.2298 1018.13 70.123C1016.82 69.214 1015.95 68.2258 1015.24 68.3047ZM469.662 69.9258C468.238 68.8585 467.248 67.5929 466.655 67.751C465.745 68.0278 465.112 69.2925 464.321 70.1621C465.112 70.8736 465.824 72.0994 466.655 72.1787C467.446 72.2182 468.277 71.0321 469.662 69.9648V69.9258ZM424.326 67.8701C423.614 67.7515 422.783 68.7794 421.438 69.6885C422.625 70.7951 423.455 72.0598 424.049 71.9414C424.919 71.7438 425.592 70.5973 426.344 69.8857C425.671 69.1743 425.077 67.9889 424.326 67.8701ZM846.231 65.8223C846.233 65.8196 846.235 65.8171 846.237 65.8145L846.198 65.7754C846.209 65.7913 846.22 65.8065 846.231 65.8223ZM593.307 65.6455C593.314 65.636 593.32 65.6267 593.327 65.6172H593.288C593.294 65.6268 593.301 65.6359 593.307 65.6455ZM741.165 43.6787C740.69 43.7182 740.216 43.7578 739.741 43.7578C738.91 45.1808 737.407 46.6434 737.486 47.9873C737.565 49.173 739.661 51.228 740.532 51.0703C741.837 50.8332 743.618 49.0154 743.737 47.7109C743.856 46.4857 742.115 45.0626 741.205 43.7187L741.165 43.6787ZM698.321 43.6787C697.411 45.0226 695.67 46.4456 695.789 47.6709C695.908 48.9753 697.688 50.7931 698.994 51.0303C699.864 51.1877 701.961 49.1329 702.04 47.9473C702.119 46.6034 700.616 45.1407 699.785 43.7178C699.31 43.7178 698.835 43.6782 698.36 43.6387L698.321 43.6787ZM783.099 43.6396C781.675 45.4972 780.172 46.6431 780.29 47.5127C780.448 48.6985 781.714 50.2008 782.822 50.5566C783.455 50.7543 785.354 49.0541 785.433 48.1055C785.512 46.9593 784.286 45.6943 783.099 43.5996V43.6396ZM656.387 43.5205C655.201 45.6153 653.975 46.8802 654.053 48.0264C654.133 48.975 656.031 50.6752 656.704 50.4775C657.811 50.1216 659.077 48.6193 659.235 47.4336C659.353 46.564 657.851 45.4181 656.427 43.5605L656.387 43.5205ZM909.653 44.8643C908.704 46.2079 907.715 47.0381 907.715 47.7891C907.754 48.5796 908.822 49.3311 909.455 50.082C910.167 49.331 911.314 48.6982 911.552 47.7891C911.709 47.1961 910.563 46.2079 909.653 44.8643ZM825.27 45.6152C824.44 45.6944 823.688 46.9193 822.936 47.6309C823.688 48.4609 824.36 49.7657 825.27 50.0029C825.903 50.2006 826.853 48.8964 828.277 47.8291H828.316C826.892 46.7223 826.061 45.5757 825.27 45.6152ZM867.363 45.8525C866.611 45.9711 865.978 47.1176 865.305 47.8291C866.057 48.5801 866.73 49.7262 867.6 49.9238C868.194 50.0421 869.024 48.7771 870.251 47.71H870.211C868.906 46.801 868.075 45.7738 867.363 45.8525ZM614.255 45.4971C613.472 45.4584 612.651 46.5794 611.255 47.6748C612.675 48.7803 613.622 50.0419 614.255 49.8848C615.165 49.6476 615.838 48.3428 616.59 47.5127C615.838 46.8012 615.085 45.5366 614.255 45.4971ZM529.873 44.5879C528.963 45.9317 527.815 46.9198 527.973 47.5127C528.211 48.4218 529.358 49.0546 530.11 49.8057C530.743 49.0546 531.811 48.3032 531.85 47.5127C531.85 46.7617 530.861 45.9317 529.912 44.5879H529.873ZM572.123 45.6162C571.411 45.5374 570.58 46.5647 569.275 47.4736C570.501 48.5409 571.372 49.8061 571.926 49.6875C572.796 49.4897 573.468 48.3438 574.18 47.5928C573.508 46.8813 572.874 45.7348 572.123 45.6162ZM611.209 47.7109C611.224 47.699 611.239 47.6867 611.255 47.6748C611.253 47.6734 611.251 47.6723 611.249 47.6709L611.209 47.7109ZM719.683 21.1865C718.299 23.0444 716.795 24.1914 716.914 25.1006C717.112 26.2468 718.378 27.7486 719.485 28.1045C719.548 28.1282 719.624 28.1311 719.71 28.1182C719.839 28.1586 719.951 28.1711 720.04 28.1436C721.147 27.7876 722.413 26.2858 722.611 25.1396C722.73 24.2305 721.226 23.0843 719.842 21.2266L719.802 21.1865C719.783 21.2207 719.762 21.2544 719.743 21.2881C719.723 21.2543 719.703 21.2208 719.683 21.1865ZM761.578 23.2031C760.945 23.045 759.996 24.3493 758.611 25.4561C760.035 26.4838 760.905 27.6699 761.657 27.5908C762.488 27.5118 763.2 26.2862 763.952 25.5352C763.161 24.7051 762.488 23.4403 761.578 23.2031ZM680.875 25.417C679.49 24.3102 678.501 23.006 677.908 23.1641C676.998 23.4013 676.325 24.666 675.534 25.4961C676.286 26.2471 676.998 27.4727 677.829 27.5518C678.58 27.6308 679.451 26.4842 680.875 25.417ZM740.848 0C739.82 1.26471 738.712 2.01568 738.712 2.7666C738.672 3.55713 739.701 4.3872 740.295 5.17773C741.086 4.46645 742.273 3.91331 742.55 3.04395C742.747 2.45104 741.679 1.42295 740.848 0ZM698.597 0C697.767 1.4229 696.699 2.45105 696.897 3.04395C697.174 3.91334 698.361 4.46633 699.152 5.17773C699.706 4.38731 700.774 3.55701 700.734 2.7666C700.734 2.01568 699.626 1.26471 698.597 0Z" fill="#FF6026" fill-opacity="0.08"/>
</g>
<defs>
<clipPath id="clip0_2534_6533">
<rect width="1440" height="399.538" fill="white" transform="matrix(-1 0 0 1 1440 0)"/>
</clipPath>
</defs>
</svg>
