<svg width="100%" height="100%" overflow="visible" style="display: block;" viewBox="0 0 72 31.6797" fill="none" xmlns="http://www.w3.org/2000/svg">
<path id="Union" d="M56.3086 0C56.3086 15.8403 56.3085 15.8408 72 15.8408C56.3085 15.8408 56.3086 15.8405 56.3086 31.6797C56.3086 17.9799 56.3084 16.1298 46.1543 15.8799C36.0008 16.1298 36.001 17.9798 36.001 31.6797C36.001 17.9795 36.0007 16.1298 25.8457 15.8799C15.693 16.1299 15.6934 17.9802 15.6934 31.6797C15.6934 15.8404 15.6929 15.8408 0 15.8408C15.6929 15.8408 15.6934 15.8404 15.6934 0C15.6934 13.7005 15.693 15.5498 25.8457 15.7998C36.0006 15.5499 36.001 13.7012 36.001 0C36.001 13.7009 36.0008 15.5499 46.1543 15.7998C56.3084 15.5498 56.3086 13.7008 56.3086 0Z" fill="var(--fill-0, #D44E1A)"/>
</svg>
