<svg preserveAspectRatio="none" width="100%" height="100%" overflow="visible" style="display: block;" viewBox="0 0 202.995 53.6396" fill="none" xmlns="http://www.w3.org/2000/svg">
<path id="Union" d="M43.3721 8.55176C43.5447 8.55022 43.717 8.56506 43.8867 8.59668C44.3803 8.71268 44.8265 8.97919 45.1631 9.3584C45.4995 9.7375 45.7109 10.2112 45.7676 10.7148L49.1992 35.9121C49.3747 37.431 49.8692 38.896 50.6494 40.2109C55.2648 48.1731 68.0284 47.9366 68.4443 47.9365H164.878C165.757 47.9369 166.617 47.6795 167.351 47.1963C168.084 46.7131 168.66 46.025 169.007 45.2178L171.517 39.3613H170.888C167.223 39.3613 166.152 38.2291 165.133 35.5898L154.378 8.57422H160.438L170.19 32.6787C170.677 34.0095 171.125 34.3154 172.563 34.3154H173.696L184.797 8.57422H190.908L174.224 47.3984C173.452 49.1906 172.187 50.7274 170.577 51.8301C168.967 52.9326 167.078 53.5557 165.128 53.6279H65.584C43.8758 53.6277 44.4707 32.4062 44.4707 32.4062L42.1484 32.418C42.1484 32.418 42.7144 53.6396 21.0342 53.6396H8.85742C7.00471 53.5735 5.20427 53.0085 3.64551 52.0049C2.08667 51.0012 0.827049 49.5958 0 47.9365H18.6895C21.1644 47.9025 31.8238 47.3697 35.9922 40.2109C36.7724 38.896 37.2669 37.431 37.4424 35.9121L40.874 10.7148C40.9307 10.2112 41.1421 9.7375 41.4785 9.3584C41.8151 8.97919 42.2613 8.71268 42.7549 8.59668C42.9246 8.56506 43.0969 8.55022 43.2695 8.55176H43.3721ZM202.445 38.1611C202.552 38.1631 202.655 38.1949 202.744 38.2529C202.833 38.311 202.905 38.3927 202.949 38.4893C202.992 38.5881 203.005 38.6974 202.988 38.8037C202.971 38.91 202.924 39.0093 202.853 39.0898L197.274 45.2295C197.119 45.4014 197.02 45.6168 196.991 45.8467V45.9482C197.016 46.181 197.115 46.3995 197.274 46.5713L202.858 52.7168C202.924 52.7976 202.966 52.8948 202.98 52.998C202.994 53.1015 202.98 53.2072 202.938 53.3027C202.895 53.3983 202.827 53.4806 202.741 53.54C202.655 53.5993 202.554 53.6339 202.45 53.6396C202.349 53.6395 202.249 53.6122 202.162 53.5605L194.426 48.7861C194.247 48.6755 194.041 48.6167 193.831 48.6162C193.631 48.6217 193.435 48.6804 193.265 48.7861L185.527 53.5605C185.438 53.6115 185.336 53.6387 185.233 53.6396C185.127 53.6378 185.023 53.6059 184.934 53.5479C184.845 53.4898 184.774 53.407 184.729 53.3105C184.688 53.2126 184.674 53.105 184.691 53C184.708 52.895 184.755 52.7967 184.825 52.7168L190.404 46.5713C190.562 46.4001 190.663 46.1846 190.693 45.9541V45.8525C190.667 45.6194 190.565 45.4007 190.404 45.2295L184.825 39.0898C184.751 38.988 184.714 38.8641 184.718 38.7383C184.722 38.6124 184.768 38.4913 184.849 38.3945C184.929 38.2978 185.04 38.231 185.163 38.2041C185.286 38.1773 185.414 38.192 185.527 38.2461L193.236 43.0146C193.414 43.1237 193.619 43.1816 193.828 43.1816C194.037 43.1816 194.242 43.1237 194.42 43.0146L202.156 38.2461C202.242 38.19 202.343 38.1604 202.445 38.1611ZM139.896 8.78906C147.049 8.78912 150.526 11.9332 150.526 18.418C150.526 21.4422 149.739 23.6228 148.131 25.084C146.392 26.6639 143.679 27.4336 139.834 27.4336H123.852V30.2031C123.852 33.3407 125.834 35.1474 129.294 35.1475H148.913V40.7041H129.294C120.198 40.7041 118.295 35.063 118.295 30.334V19.1709C118.295 14.4531 120.198 8.7891 129.294 8.78906H139.896ZM22.9033 0C26.6583 0 29.5248 0.855021 31.3994 2.50879C33.2738 4.16256 34.2588 6.68291 34.3154 9.99023V15.1729C34.3141 15.2006 34.2522 16.4643 34.1514 17.0244C33.2735 21.8328 29.6996 24.0986 22.9033 24.0986H5.91309V40.5225L0 40.5166V11.0264C0.0170432 7.49243 1.01389 4.76815 3.02441 2.86523C5.03492 0.96241 7.98554 6.39797e-05 11.7969 0H22.9033ZM96.1787 20.1787L106.957 8.54004H114.529L99.9678 24.4326L114.744 40.4834H107.002L95.9414 28.0625L84.6484 40.4834H77.0703L92.2148 23.8096L78.1406 8.54004H85.8203L96.1787 20.1787ZM75.7617 14.0684H65.2393C62.1186 14.0684 60.6064 15.5862 60.6064 18.7012V40.4775C59.0553 40.3647 57.6037 39.6696 56.543 38.5322C55.4823 37.3949 54.8902 35.8989 54.8857 34.3438V17.71C54.8857 14.4024 55.4753 12.2044 56.7949 10.7432C58.1146 9.28223 60.2554 8.56836 63.3418 8.56836H70.7041L75.7617 14.0684ZM129.294 14.2832C125.834 14.2832 123.852 16.0842 123.852 19.2217V23.1357H139.652C143.135 23.1357 144.903 21.7479 144.903 18.8145C144.903 15.8807 143.102 14.2832 139.834 14.2832H129.294ZM11.7744 6.37109C10.5223 6.34333 9.28523 6.64847 8.18945 7.25488C7.61103 7.59728 7.11495 8.06246 6.73535 8.61719C6.35577 9.1719 6.10186 9.80268 5.99219 10.4658C5.92605 10.8757 5.89969 11.2911 5.91309 11.7061V18.9443H22.7051C25.7464 18.9443 27.5989 17.891 28.1992 15.8125C28.3261 15.3669 28.3866 14.9047 28.3799 14.4414L28.335 11.0439C28.3358 10.6352 28.284 10.2278 28.1816 9.83203C27.7739 8.25191 26.517 6.37115 22.8584 6.37109H11.7744Z" fill="var(--fill-0, #060411)"/>
</svg>
