<svg width="100%" height="100%" overflow="visible" style="display: block;" viewBox="0 0 87.544 25" fill="none" xmlns="http://www.w3.org/2000/svg">
<g id="Frame 895">
<path id="Vector" d="M17.261 18.391C15.74 19.956 13.674 20.804 11.5 20.804C7.044 20.804 3.804 17.304 3.804 12.5C3.804 7.674 7.044 4.174 11.5 4.174C13.653 4.174 15.696 5.021 17.24 6.565L17.848 7.174L20.522 4.5L19.935 3.891C17.718 1.608 14.718 0.370001 11.5 0.370001C4.935 0.370001 0 5.587 0 12.521C0 19.434 4.957 24.63 11.5 24.63C14.74 24.63 17.74 23.37 19.957 21.087L20.544 20.478L17.892 17.761L17.261 18.391Z" fill="var(--fill-0, black)"/>
<path id="Vector_2" d="M22.544 0H26.544V25H22.544V0ZM40.544 17.025C40.544 20.851 37.327 21.156 36.37 21.156C33.979 21.156 33.544 18.918 33.544 17.568V8H29.544V17.548C29.544 19.918 30.288 21.874 31.592 23.178C32.744 24.331 34.47 24.961 36.34 24.961C37.666 24.961 39.544 24.548 40.544 23.635V25H44.544V8H40.544V17.025ZM52.544 2H48.544V8H45.544V12H48.544V25H52.544V12H55.544V8H52.544V2ZM68.141 19.917C67.27 20.7 66.12 21.134 64.858 21.134C62.076 21.134 60.033 19.091 60.033 16.286C60.033 13.481 62.011 11.524 64.858 11.524C66.098 11.524 67.27 11.937 68.163 12.72L68.77 13.242L71.467 10.546L70.792 9.937C69.205 8.504 67.098 7.7 64.857 7.7C59.857 7.7 56.226 11.308 56.226 16.265C56.226 21.201 59.944 24.938 64.857 24.938C67.14 24.938 69.269 24.134 70.836 22.678L71.488 22.069L68.749 19.375L68.141 19.917ZM85.744 9.482C84.592 8.33 83.242 7.7 81.372 7.7C80.046 7.7 78.544 8.113 77.544 9.025V0H73.544V25H77.544V15.635C77.544 11.809 80.262 11.505 81.219 11.505C83.61 11.505 83.544 13.744 83.544 15.092V25H87.544V15.113C87.544 12.743 87.049 10.787 85.744 9.482Z" fill="var(--fill-0, black)"/>
<path id="Vector_3" d="M64.8083 13.4385C65.5726 13.4385 66.3055 13.7432 66.8459 14.2855C67.3863 14.8279 67.6899 15.5635 67.6899 16.3305C67.6899 17.0975 67.3863 17.8331 66.8459 18.3754C66.3055 18.9178 65.5726 19.2225 64.8083 19.2225C64.0441 19.2225 63.3111 18.9178 62.7707 18.3754C62.2303 17.8331 61.9268 17.0975 61.9268 16.3305C61.9268 15.5635 62.2303 14.8279 62.7707 14.2855C63.3111 13.7432 64.0441 13.4385 64.8083 13.4385Z" fill="var(--fill-0, #FF3D2E)"/>
</g>
</svg>
