<svg width="50" height="50" viewBox="0 0 50 50" fill="none" xmlns="http://www.w3.org/2000/svg">
<path fill-rule="evenodd" clip-rule="evenodd" d="M30.7275 1.14572C31.2676 1.00088 31.8314 0.963187 32.3857 1.03635C32.9399 1.10956 33.4741 1.2916 33.958 1.5715C34.4419 1.85149 34.8662 2.22416 35.2061 2.66818C35.5459 3.11238 35.7956 3.61983 35.9395 4.16037L36.3789 5.79904L48.7617 18.1779C49.1565 18.5732 49.4702 19.043 49.6826 19.5598C49.8943 20.0751 50.0021 20.6277 50 21.1848L49.9814 21.6037C49.9425 22.0195 49.8417 22.4279 49.6826 22.8156C49.4702 23.333 49.1569 23.8038 48.7617 24.1994L48.7607 24.2004L47.5469 25.4055L43.0205 42.3117C42.7263 43.4015 42.0114 44.332 41.0332 44.8947C40.0551 45.4573 38.8931 45.6075 37.8037 45.3137L36.1641 44.8703L19.2686 49.4035C18.1786 49.6953 17.0154 49.5428 16.0381 48.9787C15.0607 48.4145 14.3478 47.4848 14.0547 46.3947L13.6133 44.7531L1.24219 32.3772C0.446583 31.5775 6.98268e-05 30.4947 0 29.3664C0 28.2378 0.44621 27.1545 1.24219 26.3547L2.44922 25.1487L6.97656 8.24338C7.12102 7.70327 7.37174 7.19678 7.71191 6.75315C8.05217 6.30956 8.47681 5.93688 8.96094 5.65744C9.44494 5.37816 9.97919 5.19689 10.5332 5.12424C11.0876 5.05162 11.6515 5.08923 12.1914 5.23459L13.8291 5.67307L30.7275 1.14572ZM17.4834 49.0539V49.053V49.0539ZM36.165 44.4221V44.4231V44.4221ZM15.7871 48.2854C15.9341 48.4022 16.0903 48.5088 16.2549 48.6037C16.4194 48.6987 16.59 48.7801 16.7646 48.8489L16.5918 48.7756C16.4772 48.7238 16.3647 48.6662 16.2549 48.6028C16.0353 48.476 15.8303 48.3292 15.6426 48.1643L15.7871 48.2854ZM15.1328 47.6203C15.2085 47.7189 15.29 47.8127 15.375 47.9035C15.29 47.8128 15.2085 47.7188 15.1328 47.6203ZM18.8604 47.9162L18.5996 47.9709C18.6869 47.9568 18.7741 47.9391 18.8604 47.9162L34.0039 43.842L34.002 43.841L18.8604 47.9162ZM16.8135 47.6447V47.6457V47.6447ZM12.7578 25.1487L12.752 25.1506C12.6822 25.1686 12.6127 25.191 12.5342 25.218L12.4727 25.2395C12.4355 25.2548 12.3982 25.2702 12.3623 25.2883L12.3516 25.2942L12.3398 25.299L12.3203 25.3069L12.1748 25.3889L12.168 25.3928L12.1064 25.427C12.0737 25.4477 12.0401 25.4726 12.0039 25.5002L11.9951 25.508L11.9854 25.5149C11.9679 25.5269 11.9479 25.543 11.9248 25.5627L11.8242 25.6477L11.7354 25.7307L11.7344 25.7317C11.7216 25.7434 11.7061 25.7567 11.6807 25.7844L11.5918 25.8889C11.5712 25.9132 11.5532 25.9367 11.5371 25.9592L11.4844 26.0383L11.4756 26.049C11.4549 26.078 11.4354 26.1088 11.418 26.1399L11.4111 26.1526C11.1325 26.6122 11.026 27.1556 11.1094 27.6867L11.1289 27.7942L11.1328 27.8225C11.134 27.8265 11.1364 27.8315 11.1377 27.8362C11.1426 27.8529 11.1502 27.8885 11.1572 27.9338L15.9688 45.8967C16.1278 46.4763 16.5097 46.9701 17.0303 47.2697C17.5503 47.5689 18.1672 47.6504 18.7471 47.4973L32.3281 43.843L19.8418 40.5061C18.7524 40.2128 17.8231 39.4989 17.2588 38.5217C16.6948 37.5447 16.5411 36.3834 16.8311 35.2932L20.0781 23.1672L12.7578 25.1487ZM14.002 44.5305V44.5295V44.5305ZM38.8691 45.0256C38.889 45.0258 38.9089 45.0257 38.9287 45.0256C38.9089 45.0257 38.889 45.0258 38.8691 45.0256ZM38.5352 45.0071C38.557 45.0092 38.5788 45.0111 38.6006 45.0129C38.5788 45.0111 38.557 45.0092 38.5352 45.0071ZM39.5166 44.9778C39.5296 44.9757 39.5427 44.9741 39.5557 44.9719C39.5427 44.9741 39.5296 44.9757 39.5166 44.9778ZM38.2012 44.9592C38.2204 44.9628 38.2395 44.9666 38.2588 44.9699C38.2395 44.9666 38.2204 44.9628 38.2012 44.9592ZM39.8467 44.9094C39.8558 44.9071 39.8649 44.9049 39.874 44.9026C39.8649 44.9049 39.8558 44.9071 39.8467 44.9094ZM40.167 44.8137C40.1746 44.8111 40.1819 44.8076 40.1895 44.8049C40.1819 44.8076 40.1746 44.8111 40.167 44.8137ZM41.0791 44.3508C41.0872 44.3452 41.0955 44.3398 41.1035 44.3342C41.0955 44.3398 41.0872 44.3452 41.0791 44.3508ZM41.3389 44.1545C41.3507 44.1448 41.3624 44.1351 41.374 44.1252C41.3624 44.1351 41.3507 44.1448 41.3389 44.1545ZM19.5146 38.6916C19.7385 38.8314 19.9837 38.9389 20.2432 39.009L38.2295 43.8293L38.2285 43.8283L20.2432 39.009C19.9836 38.9388 19.7387 38.8306 19.5146 38.6906V38.6916ZM40.0342 43.6692C40.0042 43.6829 39.9728 43.6937 39.9424 43.7063C40.0136 43.6768 40.0835 43.6443 40.1523 43.6086L40.0342 43.6692ZM35.5938 37.3332L35.5957 37.3352C35.5399 37.3941 35.4807 37.4506 35.4189 37.5031L35.417 37.5012C34.8241 38.0318 34.0953 38.3869 33.3115 38.5246C32.5239 38.663 31.7129 38.578 30.9717 38.2776L30.96 38.2717L30.7891 38.1975L30.7793 38.1936C30.474 38.0494 30.1883 37.8659 29.9258 37.6535C29.7973 37.5636 29.6791 37.4586 29.5771 37.3567L22.3223 30.0979L20.7109 28.4817L18.749 35.8049C18.5945 36.3874 18.6764 37.0076 18.9775 37.5295C19.2789 38.0517 19.7747 38.4329 20.3564 38.5901L38.3359 43.4094C38.9164 43.5596 39.5346 43.4739 40.0527 43.1721C40.5707 42.8702 40.9496 42.3754 41.1055 41.7961L44.7314 28.1946L35.5938 37.3332ZM41.999 43.4553C42.0113 43.4385 42.0232 43.4215 42.0352 43.4045C42.0232 43.4215 42.0113 43.4385 41.999 43.4553ZM42.1875 43.1721C42.1962 43.1576 42.2044 43.1428 42.2129 43.1281C42.2044 43.1428 42.1962 43.1576 42.1875 43.1721ZM42.3447 42.8821C42.3553 42.8605 42.3648 42.8384 42.375 42.8166C42.3649 42.8384 42.3553 42.8605 42.3447 42.8821ZM45.5645 26.7463L41.5234 41.9094L45.5664 26.7453L45.5645 26.7463ZM17.4014 13.9387C16.8749 13.9387 16.3663 14.1203 15.9619 14.4504L15.7949 14.6018L12.9668 17.4319L2.63965 27.759C2.21484 28.1865 1.97754 28.7664 1.97754 29.3694C1.97772 29.9716 2.21561 30.5495 2.63965 30.9768L12.5703 40.9201L9.23633 28.4279L9.14746 28.0158C8.98892 27.0497 9.16769 26.0529 9.66113 25.1975C10.2251 24.2201 11.1545 23.5067 12.2441 23.2141L20.9111 20.8879H20.9141L21.0273 20.8586L22.1592 20.5539H22.1621L24.3535 19.9738L19.0068 14.6018L18.8408 14.4504C18.4365 14.12 17.9279 13.9389 17.4014 13.9387ZM48.4551 23.8928L47.1592 25.1819L48.4561 23.8928C48.4684 23.8804 48.479 23.8663 48.4912 23.8537C48.4789 23.8664 48.4676 23.8803 48.4551 23.8928ZM19.249 39.8215C19.3278 39.8605 19.4087 39.8953 19.4902 39.9289C19.4087 39.8953 19.3278 39.8605 19.249 39.8215ZM18.1992 39.0549C18.3474 39.2078 18.5086 39.347 18.6797 39.4729C18.5087 39.3469 18.3474 39.2079 18.1992 39.0549ZM32.4648 38.1535C32.5296 38.1554 32.5943 38.155 32.6592 38.1535C32.5943 38.155 32.5296 38.1554 32.4648 38.1535ZM35.1377 37.1721C34.6036 37.6528 33.9449 37.9735 33.2373 38.0979C33.0638 38.1284 32.8887 38.1462 32.7139 38.1526C32.7998 38.1494 32.8859 38.1439 32.9717 38.135C33.0603 38.1257 33.1491 38.1143 33.2373 38.0989C33.3257 38.0833 33.4133 38.0648 33.5 38.0432C34.1074 37.892 34.6704 37.5936 35.1377 37.1731C35.1875 37.1307 35.2353 37.0848 35.2803 37.0373L35.1377 37.1721ZM32.2246 38.1379C32.2705 38.1421 32.3163 38.1451 32.3623 38.1477C32.3163 38.1451 32.2705 38.1421 32.2246 38.1379ZM31.9561 38.1037C32.0064 38.112 32.0568 38.119 32.1074 38.1252C32.0568 38.119 32.0064 38.112 31.9561 38.1037ZM31.709 38.0549C31.7612 38.067 31.8136 38.0782 31.8662 38.0881C31.8136 38.0782 31.7612 38.067 31.709 38.0549ZM17.4727 37.9934C17.4801 38.0095 17.4884 38.0252 17.4961 38.0412C17.4884 38.0252 17.4801 38.0095 17.4727 37.9934ZM31.4014 37.9709C31.4728 37.9939 31.5447 38.0147 31.6172 38.0334C31.5447 38.0147 31.4728 37.9939 31.4014 37.9709ZM18.6025 37.7463C18.6473 37.8238 18.6954 37.8988 18.7471 37.9709L18.6025 37.7453C18.5579 37.6679 18.517 37.5888 18.4805 37.508L18.6025 37.7463ZM31.1758 37.8899C31.2439 37.9166 31.3125 37.9414 31.3818 37.9641C31.3125 37.9414 31.2439 37.9166 31.1758 37.8899ZM29.8848 37.05C29.9308 37.0961 29.9782 37.1408 30.0264 37.1828C30.0748 37.2251 30.1238 37.265 30.1738 37.3C30.2343 37.3497 30.297 37.3968 30.3604 37.4426C30.5503 37.5801 30.7526 37.7008 30.9648 37.801L31.083 37.8518L30.9648 37.8C30.682 37.6665 30.4165 37.4986 30.1748 37.3C30.0747 37.2299 29.9763 37.1416 29.8838 37.049L29.8848 37.05ZM17.3477 37.6867C17.3515 37.6975 17.3554 37.7082 17.3594 37.719C17.3554 37.7082 17.3515 37.6975 17.3477 37.6867ZM17.2461 37.3567C17.2511 37.3758 17.2545 37.3953 17.2598 37.4143C17.2545 37.3953 17.2511 37.3758 17.2461 37.3567ZM32.8574 37.0393C33.0344 37.0218 33.2083 36.9869 33.377 36.9358C33.2083 36.9869 33.0344 37.0218 32.8574 37.0393ZM17.1357 36.7346C17.1373 36.7516 17.1398 36.7684 17.1416 36.7854C17.1398 36.7684 17.1373 36.7516 17.1357 36.7346ZM40.7539 22.1311C41.0456 23.2218 40.8927 24.3848 40.3281 25.3625C39.7635 26.34 38.8333 27.053 37.7432 27.3449L25.625 30.594L30.9844 35.9543C31.4108 36.3798 31.9886 36.6192 32.5908 36.6194C33.1932 36.6193 33.7717 36.38 34.1982 35.9543L47.3477 22.7951C47.5588 22.5844 47.7275 22.3335 47.8418 22.0578C47.9559 21.7823 48.0137 21.4869 48.0137 21.1887C48.0137 20.8905 47.9559 20.595 47.8418 20.3196C47.7275 20.0439 47.5588 19.793 47.3477 19.5822L37.4072 9.63791L40.7539 22.1311ZM17.1211 36.383C17.121 36.4117 17.1215 36.4403 17.1221 36.469C17.1215 36.4403 17.121 36.4117 17.1211 36.383ZM34.5039 36.261C34.4405 36.3243 34.3744 36.3844 34.3057 36.4406L34.5049 36.261L41.6602 29.1008L34.5039 36.261ZM17.1348 36.0617C17.133 36.0822 17.1313 36.1027 17.1299 36.1233C17.1313 36.1027 17.133 36.0822 17.1348 36.0617ZM1.30371 31.799C1.32345 31.8231 1.34487 31.8457 1.36523 31.8694C1.34488 31.8457 1.32345 31.8231 1.30371 31.799ZM1.0957 31.5197C1.11643 31.5503 1.13754 31.5806 1.15918 31.6106C1.13754 31.5806 1.11643 31.5503 1.0957 31.5197ZM0.932617 31.2571C0.941455 31.2726 0.949925 31.2884 0.958984 31.3039C0.949924 31.2885 0.941455 31.2726 0.932617 31.2571ZM0.665039 30.6779C0.671347 30.6953 0.678014 30.7125 0.68457 30.7297C0.678013 30.7125 0.671348 30.6953 0.665039 30.6779ZM0.567383 30.3694C0.570378 30.3804 0.573078 30.3915 0.576172 30.4026C0.573078 30.3915 0.570378 30.3804 0.567383 30.3694ZM0.492188 30.0295C0.495493 30.0483 0.497393 30.0674 0.500977 30.0862C0.497393 30.0674 0.495493 30.0483 0.492188 30.0295ZM0.451172 29.7444C0.452526 29.758 0.455532 29.7717 0.457031 29.7854C0.45435 29.761 0.451434 29.7366 0.449219 29.7121L0.451172 29.7444ZM26.1162 21.0998L29.1738 24.1584L28.0498 28.343L23.875 29.4602L23.876 29.4612L28.0508 28.343L29.1738 24.1584L26.1172 21.0998H26.1162ZM1.66016 28.5813C1.63453 28.6659 1.61398 28.7521 1.59668 28.8391C1.6139 28.7524 1.63468 28.6666 1.66016 28.5822V28.5813ZM22.293 22.5744L21.3008 26.2678L24.0068 28.9768L27.6953 27.9875L28.6895 24.2863L25.9863 21.5822L22.293 22.5744ZM37.9912 26.8098C37.8737 26.8541 37.7532 26.8932 37.6309 26.926L32.6777 28.2541L37.6318 26.926C37.754 26.8933 37.8739 26.8541 37.9912 26.8098ZM1.41895 26.7981C1.3345 26.8918 1.25496 26.9892 1.18066 27.0901C1.25497 26.9893 1.3345 26.8918 1.41895 26.7981ZM32.126 3.00119C31.8301 2.96263 31.5294 2.98311 31.2412 3.06076L17.6631 6.71213L30.1543 10.05L30.4922 10.1555C31.2636 10.434 31.9412 10.9309 32.4404 11.5881C32.9398 12.2457 33.2365 13.0323 33.2979 13.8508L33.3105 14.2033C33.3085 14.417 33.289 14.6313 33.2539 14.842L33.252 14.8401C33.2292 14.9841 33.2008 15.1272 33.1621 15.2678L33.1611 15.2668L33.0742 15.5949L30.541 25.0549L30.5059 25.1848L29.916 27.3889L37.2354 25.4289C37.8171 25.2724 38.3133 24.8906 38.6143 24.3684C38.9151 23.8463 38.9977 23.2259 38.8418 22.6438L34.0283 4.67014C33.951 4.38141 33.8167 4.10938 33.6348 3.87229C33.4529 3.63521 33.2265 3.43564 32.9678 3.28635C32.7089 3.13705 32.4223 3.03987 32.126 3.00119ZM9.58203 26.6672C9.58016 26.6779 9.57892 26.6887 9.57715 26.6994C9.57893 26.6887 9.58016 26.6779 9.58203 26.6672ZM38.6621 26.4787C38.6095 26.5115 38.5562 26.5433 38.502 26.5735C38.6107 26.5129 38.7163 26.4469 38.8184 26.3762L38.6621 26.4787ZM9.6543 26.342C9.65032 26.357 9.64637 26.3719 9.64258 26.3869C9.64638 26.3719 9.65032 26.357 9.6543 26.342ZM11.3555 25.4992L11.2998 25.5627L11.3564 25.4992C11.379 25.4746 11.4019 25.4502 11.4258 25.427C11.4017 25.4504 11.3782 25.4745 11.3555 25.4992ZM10.0361 25.4143L10.0215 25.4416C10.0266 25.4325 10.0319 25.4233 10.0371 25.4143C10.0449 25.4007 10.0536 25.3877 10.0615 25.3742C10.0535 25.3878 10.044 25.4006 10.0361 25.4143ZM34.4463 4.55686L39.2588 22.5305C39.3516 22.877 39.3739 23.2353 39.3281 23.5842C39.3167 23.6715 39.3011 23.7581 39.2812 23.844C39.2215 24.1015 39.1236 24.351 38.9893 24.5842C38.8548 24.8175 38.688 25.0273 38.4951 25.2082C38.688 25.0275 38.8558 24.8184 38.9902 24.5852C39.3486 23.9634 39.4455 23.2247 39.2598 22.5315L34.4473 4.55686C34.4242 4.47073 34.3965 4.38609 34.3652 4.30295L34.4463 4.55686ZM11.6436 25.2317L11.543 25.3166H11.5439L11.6436 25.2326L11.7412 25.1565L11.6436 25.2317ZM10.2217 25.1233C10.2154 25.1321 10.2103 25.1417 10.2041 25.1506C10.2103 25.1417 10.2154 25.1321 10.2217 25.1233ZM12.126 24.9192C12.0661 24.9492 12.0057 24.9838 11.9482 25.0188H11.9492C12.0066 24.9838 12.0671 24.9491 12.127 24.9192H12.126ZM30.4219 23.8254H30.4229H30.4219ZM10.4414 24.843C10.4249 24.8623 10.4087 24.8819 10.3926 24.9016C10.4087 24.8819 10.4249 24.8623 10.4414 24.843ZM12.6445 24.7307C12.557 24.7532 12.4736 24.7813 12.3936 24.8088L12.6445 24.7317L20.6885 22.5539L12.6445 24.7307ZM11.1357 24.2072C11.1319 24.21 11.1278 24.2123 11.124 24.2151C11.1278 24.2123 11.1319 24.21 11.1357 24.2072ZM11.4141 24.0276C11.4085 24.0308 11.403 24.034 11.3975 24.0373C11.403 24.034 11.4085 24.0308 11.4141 24.0276ZM11.7178 23.8674C11.7051 23.8734 11.6923 23.8789 11.6797 23.885C11.6923 23.8789 11.7051 23.8734 11.7178 23.8674ZM8.46875 8.6467L4.41211 23.7951L14.7031 13.4992C14.7139 13.4885 14.7245 13.4776 14.7354 13.467C14.7244 13.4778 14.713 13.4883 14.7021 13.4992L4.41211 23.7951L8.46973 8.6467C8.48067 8.60594 8.49308 8.56567 8.50586 8.52561C8.49309 8.56563 8.47968 8.60597 8.46875 8.6467ZM48.623 23.7121C48.639 23.6939 48.6543 23.675 48.6699 23.6565C48.6543 23.675 48.639 23.6939 48.623 23.7121ZM21.0244 21.3069V21.3078V21.3069ZM48.9541 23.2737C48.9754 23.2407 48.9963 23.2076 49.0166 23.174C48.9963 23.2076 48.9754 23.2407 48.9541 23.2737ZM31.6221 15.008H31.623H31.6221ZM40.4336 22.7512C40.4366 22.7753 40.4398 22.7993 40.4424 22.8235C40.4398 22.7993 40.4366 22.7753 40.4336 22.7512ZM11.0762 7.07736C10.5777 7.07795 10.0927 7.24334 9.69727 7.54709C9.30173 7.85092 9.01702 8.27708 8.8877 8.759L5.24902 22.3449L14.3965 13.1936C14.7912 12.7979 15.2602 12.483 15.7764 12.2688C16.2923 12.0548 16.8458 11.9446 17.4043 11.9446C17.9628 11.9446 18.5163 12.0548 19.0322 12.2688C19.5485 12.483 20.0183 12.7979 20.4131 13.1936L29.2822 22.0666L31.2041 14.8967L31.2412 14.7551C31.3753 14.2498 31.3321 13.7135 31.1182 13.2365C30.9042 12.7601 30.5323 12.3714 30.0664 12.136L29.8555 12.0442C29.7839 12.0173 29.7108 11.9933 29.6367 11.9738L11.6689 7.15549C11.4759 7.10379 11.276 7.07727 11.0762 7.07736ZM48.2412 22.2248L48.2422 22.2238L48.2412 22.2248ZM48.2412 20.1526C48.3773 20.4809 48.4473 20.8333 48.4473 21.1887H48.4482C48.4482 20.8333 48.3783 20.4809 48.2422 20.1526H48.2412ZM49.5566 20.9289C49.5552 20.9055 49.5537 20.882 49.5518 20.8586C49.5537 20.882 49.5552 20.9055 49.5566 20.9289ZM24.8203 20.299L24.2812 20.4416L24.8213 20.299L25.1914 20.2014L25.1904 20.2004L24.8203 20.299ZM49.4805 20.3742C49.4751 20.3491 49.4697 20.324 49.4639 20.299C49.4697 20.324 49.4751 20.3491 49.4805 20.3742ZM49.1836 19.511C49.1702 19.4834 49.1566 19.4561 49.1426 19.4289C49.1566 19.4561 49.1702 19.4834 49.1836 19.511ZM48.8926 19.011C48.8817 18.9952 48.8705 18.9797 48.8594 18.9641C48.8705 18.9797 48.8817 18.9952 48.8926 19.011ZM48.4551 18.4846H48.4561H48.4551ZM15.6875 14.1164C15.6187 14.1727 15.5518 14.2318 15.4883 14.2951L12.6963 17.0881L12.6592 17.1252L12.6973 17.0881L15.4883 14.2951C15.5518 14.2318 15.6187 14.1727 15.6875 14.1164ZM32.8691 13.9856C32.868 13.9611 32.8679 13.9367 32.8662 13.9123C32.8679 13.9367 32.868 13.9611 32.8691 13.9856ZM32.8506 13.758C32.8455 13.711 32.8408 13.6641 32.834 13.6174C32.8408 13.6641 32.8455 13.711 32.8506 13.758ZM32.8105 13.4787C32.8 13.4211 32.7886 13.3638 32.7754 13.3069C32.7886 13.3638 32.8 13.4211 32.8105 13.4787ZM14.9287 13.2903C14.9141 13.3027 14.9001 13.3157 14.8857 13.3283C14.9001 13.3157 14.9141 13.3027 14.9287 13.2903ZM19.9209 13.3274C19.9072 13.3153 19.8938 13.303 19.8799 13.2912C19.8937 13.3031 19.9072 13.3153 19.9209 13.3274ZM32.7471 13.1936C32.732 13.1362 32.716 13.0792 32.6982 13.0227C32.716 13.0792 32.732 13.1362 32.7471 13.1936ZM19.4766 12.9904C19.4543 12.9761 19.4317 12.9624 19.4092 12.9485C19.4317 12.9624 19.4543 12.9761 19.4766 12.9904ZM15.3818 12.9582C15.3688 12.9664 15.3557 12.9743 15.3428 12.9826C15.3557 12.9743 15.3688 12.9664 15.3818 12.9582ZM32.6553 12.8938C32.6376 12.8438 32.6183 12.7945 32.5986 12.7453C32.6183 12.7945 32.6376 12.8438 32.6553 12.8938ZM16.2949 12.5432C16.1754 12.5794 16.0572 12.6211 15.9414 12.6692H15.9424C16.0579 12.6212 16.1757 12.5794 16.2949 12.5432ZM32.5488 12.6252C32.5304 12.5834 32.5102 12.5424 32.4902 12.5012C32.5102 12.5424 32.5304 12.5834 32.5488 12.6252ZM18.626 12.5803C18.61 12.5749 18.5942 12.5689 18.5781 12.5637C18.5942 12.5689 18.61 12.5749 18.626 12.5803ZM18.0674 12.4367C18.0605 12.4355 18.0537 12.434 18.0469 12.4328C18.0537 12.434 18.0605 12.4355 18.0674 12.4367ZM17.2197 12.3821C17.2142 12.3823 17.2087 12.3837 17.2031 12.384C17.2087 12.3837 17.2142 12.3823 17.2197 12.3821ZM11.7812 6.73752L29.7461 11.5549C29.9231 11.6014 30.095 11.6667 30.2588 11.7483C30.4673 11.8533 30.6602 11.9837 30.833 12.136L30.6543 11.9904C30.5306 11.8988 30.3987 11.8173 30.2598 11.7473C30.096 11.6657 29.924 11.6014 29.7471 11.5549L11.7812 6.73654V6.73752ZM30.1133 10.4904C30.3941 10.5721 30.6637 10.6831 30.916 10.8244C30.6637 10.6829 30.394 10.5722 30.1133 10.4904ZM8.05566 7.01682H8.05469C7.9782 7.11657 7.90686 7.21992 7.84082 7.32639C7.7748 7.4327 7.7144 7.54237 7.65918 7.65451H7.66016C7.77062 7.43023 7.9028 7.21615 8.05566 7.01682ZM9.10547 7.50022C9.09143 7.51523 9.07911 7.53178 9.06543 7.54709C9.08523 7.52491 9.10445 7.50222 9.125 7.48068L9.10547 7.50022ZM10.0029 6.8674H10.0039H10.0029ZM10.8535 6.65354C10.927 6.64739 11.001 6.64483 11.0752 6.64475L11.249 6.64865C11.1914 6.64501 11.1331 6.64373 11.0752 6.64377C11.001 6.64386 10.927 6.6474 10.8535 6.65354ZM8.71094 6.34982H8.71191H8.71094ZM9.46582 5.884C9.43945 5.89637 9.41281 5.90814 9.38672 5.92111C9.41281 5.90814 9.43946 5.89636 9.46582 5.884ZM9.99414 5.68186C9.96375 5.69093 9.93348 5.70034 9.90332 5.71018C9.93347 5.70035 9.96375 5.69093 9.99414 5.68186ZM10.7871 5.53342C10.7774 5.53418 10.7676 5.53453 10.7578 5.53537C10.7676 5.53453 10.7774 5.53418 10.7871 5.53342ZM35.4492 4.04025C35.4401 4.0131 35.4306 3.98613 35.4209 3.9592C35.4306 3.98613 35.4401 4.0131 35.4492 4.04025ZM33.4082 3.05588C33.5521 3.15911 33.6856 3.27617 33.8066 3.40549C33.8673 3.47019 33.9253 3.53801 33.9795 3.60861V3.60764C33.763 3.32546 33.4926 3.0891 33.1846 2.91135L33.4082 3.05588ZM35.2344 3.52756C35.2196 3.49846 35.2049 3.46936 35.1895 3.44065C35.2049 3.46936 35.2196 3.49846 35.2344 3.52756ZM32.1826 2.5715C31.9268 2.5381 31.668 2.5425 31.4141 2.58225C31.5803 2.5563 31.7487 2.54571 31.917 2.551C32.0056 2.55377 32.0944 2.56096 32.1826 2.57248C32.4471 2.60702 32.7049 2.67993 32.9473 2.78928L32.7002 2.69162C32.5325 2.63482 32.3591 2.59454 32.1826 2.5715ZM34.3086 2.34885C34.2861 2.3296 34.2632 2.31092 34.2402 2.29221C34.2632 2.3109 34.2861 2.32963 34.3086 2.34885ZM31.7666 1.43381C31.9473 1.43086 32.1285 1.4403 32.3086 1.46311C32.1285 1.4403 31.9474 1.43087 31.7666 1.43381Z" fill="#060411"/>
</svg>
