<svg width="50" height="50" viewBox="0 0 50 50" fill="none" xmlns="http://www.w3.org/2000/svg">
<path d="M39.1035 14C39.1035 25.0003 39.1031 25 50 25C39.1031 25 39.1035 25.0005 39.1035 36C39.1035 26.4858 39.1031 25.2008 32.0508 25.0273C25.0005 25.201 25.001 26.4865 25.001 36C25.001 26.4858 25.0005 25.2008 17.9482 25.0273C10.8979 25.201 10.8975 26.4864 10.8975 36C10.8975 25.0004 10.8979 25 0 25C10.8979 25 10.8975 25.0004 10.8975 14C10.8975 23.5143 10.8979 24.798 17.9482 24.9717C25.0005 24.7982 25.001 23.5149 25.001 14C25.001 23.5142 25.0005 24.798 32.0508 24.9717C39.1031 24.7982 39.1035 23.5149 39.1035 14Z" fill="#060411"/>
</svg>
