<svg width="57" height="11" viewBox="0 0 57 11" fill="none" xmlns="http://www.w3.org/2000/svg">
<path d="M8.43848 0.0107422C9.44709 0.112999 10.2343 0.964432 10.2344 2V9L10.2236 9.2041C10.1282 10.1456 9.38002 10.8938 8.43848 10.9893L8.23438 11H2C0.964349 11 0.113005 10.2128 0.0107422 9.2041L0 9V2C9.89832e-05 0.895515 0.895492 3.52308e-09 2 0H8.23438L8.43848 0.0107422ZM54.4932 0.0107422C55.5018 0.112999 56.289 0.964432 56.2891 2V9L56.2783 9.2041C56.1761 10.2128 55.3247 11 54.2891 11H16.3281C15.2925 11 14.4411 10.2128 14.3389 9.2041L14.3281 9V2C14.3282 0.964432 15.1154 0.112999 16.124 0.0107422L16.3281 0H54.2891L54.4932 0.0107422ZM2 1C1.44778 1 1.0001 1.4478 1 2V9C1 9.55228 1.44772 10 2 10H8.23438C8.78666 10 9.23438 9.55228 9.23438 9V2C9.23428 1.4478 8.7866 1 8.23438 1H2ZM16.3281 1C15.7759 1 15.3282 1.4478 15.3281 2V9C15.3281 9.55228 15.7758 10 16.3281 10H54.2891C54.8413 10 55.2891 9.55229 55.2891 9V2C55.289 1.4478 54.8413 1 54.2891 1H16.3281Z" fill="#060411"/>
</svg>
