<svg width="24" height="11" viewBox="0 0 24 11" fill="none" xmlns="http://www.w3.org/2000/svg">
<g clip-path="url(#clip0_5_938)">
<path d="M8.43848 0.0107422C9.44709 0.112999 10.2343 0.964432 10.2344 2V9L10.2236 9.2041C10.1282 10.1456 9.38002 10.8938 8.43848 10.9893L8.23438 11H2C0.964349 11 0.113005 10.2128 0.0107422 9.2041L0 9V2C9.89832e-05 0.895515 0.895492 3.52308e-09 2 0H8.23438L8.43848 0.0107422ZM21.5391 0C22.6436 3.52276e-09 23.539 0.895515 23.5391 2V9C23.5391 10.1046 22.6436 11 21.5391 11H15.3047C14.2001 11 13.3047 10.1046 13.3047 9V2C13.3048 0.895515 14.2002 3.52276e-09 15.3047 0H21.5391ZM2 1C1.44778 1 1.0001 1.4478 1 2V9C1 9.55228 1.44772 10 2 10H8.23438C8.78666 10 9.23438 9.55228 9.23438 9V2C9.23428 1.4478 8.7866 1 8.23438 1H2Z" fill="#060411"/>
</g>
<defs>
<clipPath id="clip0_5_938">
<rect width="23.5391" height="11" fill="white"/>
</clipPath>
</defs>
</svg>
