<svg width="277" height="1000" viewBox="0 0 277 1000" fill="none" xmlns="http://www.w3.org/2000/svg">
<g clip-path="url(#clip0_8_1595)">
<path d="M-4.35422e-06 634.862C1.94888 633.186 2.00384 631.071 -4.42924e-06 628.571L-4.35422e-06 634.862ZM-4.68772e-06 606.895C2.63516 603.434 2.49792 600.494 -4.786e-06 598.654L-4.68772e-06 606.895ZM0.0546821 549.121C3.54086 545.439 3.37615 540.989 0.054682 539.066L0.0546821 549.121ZM0.109369 460.934C3.45828 459.011 3.62292 454.561 0.109368 450.879L0.109369 460.934ZM0.137688 401.345C2.63512 399.477 2.77255 396.565 0.137688 393.104L0.137688 401.345ZM0.219719 371.428C2.22338 368.928 2.16854 366.813 0.219719 365.137L0.219719 371.428ZM18.5019 499.698C18.4196 495.824 14.9329 492.582 10.8428 492.582C6.67043 492.582 3.07488 496.016 3.15722 499.945C3.15762 499.963 3.1596 499.981 3.16015 500C3.1596 500.018 3.15762 500.036 3.15722 500.054C3.07488 503.983 6.643 507.417 10.8428 507.417C14.9329 507.417 18.4196 504.148 18.5019 500.274C18.504 500.178 18.5023 500.082 18.5 499.986C18.5023 499.89 18.504 499.794 18.5019 499.698ZM18.2549 529.148C18.2821 525.165 14.9331 522.061 10.706 522.116C6.58862 522.198 3.37615 525.247 3.37597 529.148C3.34854 533.131 6.69766 536.236 10.9248 536.181C15.0423 536.099 18.2549 533.049 18.2549 529.148ZM18.3096 470.796C18.3096 466.895 15.1254 463.846 10.9805 463.791C6.75317 463.736 3.40435 466.84 3.40429 470.824C3.40429 474.725 6.5884 477.775 10.7334 477.83C14.9606 477.884 18.3095 474.78 18.3096 470.796ZM18.0352 558.681C18.1449 554.945 14.9605 551.758 11.0078 551.648C7.02764 551.538 3.65097 554.56 3.54101 558.296C3.43121 562.033 6.61553 565.22 10.5684 565.33C14.5486 565.439 17.9253 562.417 18.0352 558.681ZM18.1172 441.263C18.0072 437.527 14.6305 434.533 10.6777 434.643C6.72515 434.753 3.54076 437.939 3.65038 441.675C3.76019 445.412 7.13702 448.406 11.0898 448.296C15.0426 448.186 18.227 444.999 18.1172 441.263ZM17.623 587.775C17.5956 584.149 14.5764 581.374 10.706 581.401C6.83557 581.428 3.89834 584.286 3.92578 587.94C3.95349 591.566 6.97256 594.34 10.8428 594.313C14.7132 594.286 17.6504 591.429 17.623 587.775ZM17.7324 412.225C17.7599 408.571 14.8225 405.741 10.9795 405.686C7.10918 405.659 4.08996 408.434 4.06249 412.087C4.03506 415.741 6.97241 418.571 10.8154 418.625C14.6857 418.653 17.7048 415.879 17.7324 412.225ZM17.2383 617.17C17.2383 613.846 14.4111 611.126 10.8975 611.043C7.3016 610.961 4.28222 613.764 4.28222 617.17C4.28237 620.494 7.10961 623.214 10.623 623.296C14.2189 623.379 17.2381 620.577 17.2383 617.17ZM17.4033 382.801C17.403 379.395 14.3839 376.62 10.7881 376.675C7.27462 376.758 4.42019 379.477 4.41991 382.801C4.41991 386.208 7.43917 388.983 11.0351 388.928C14.5488 388.846 17.4033 386.125 17.4033 382.801ZM16.7451 646.456C16.7174 643.406 14.0271 640.88 10.7881 640.852C7.4667 640.825 4.63955 643.489 4.69433 646.621C4.72177 649.67 7.41223 652.198 10.6514 652.225C13.9726 652.252 16.8 649.587 16.7451 646.456ZM16.9639 353.543C17.0187 350.412 14.1915 347.746 10.8975 347.801C7.65859 347.829 4.96914 350.384 4.9414 353.433C4.8865 356.565 7.71377 359.23 11.0078 359.175C14.2468 359.148 16.9364 356.593 16.9639 353.543ZM16.1953 675.769C16.1678 672.995 13.643 670.66 10.7061 670.66C7.74154 670.66 5.24343 673.022 5.21582 675.796C5.18838 678.653 7.8233 681.098 10.8428 681.016C13.8074 680.934 16.2502 678.544 16.1953 675.769ZM16.4707 324.203C16.5254 321.428 14.0817 319.038 11.1172 318.956C8.09786 318.873 5.46297 321.318 5.49023 324.203C5.51766 326.977 8.01583 329.34 10.9805 329.34C13.9175 329.34 16.4431 327.005 16.498 324.23L16.4707 324.203ZM15.6465 705.357C15.7562 702.857 13.6149 700.632 10.9248 700.495C8.2622 700.357 5.90112 702.335 5.70898 704.89C5.51687 707.5 7.74112 709.808 10.541 709.89C13.2035 709.972 15.5367 707.912 15.6465 705.384L15.6465 705.357ZM15.9482 294.615C15.8382 292.087 13.5052 290.028 10.8428 290.11C8.04284 290.192 5.81957 292.5 6.01171 295.11C6.20397 297.665 8.56411 299.643 11.2266 299.478C13.9167 299.313 16.058 297.115 15.9482 294.615ZM15.207 734.725C15.3443 732.445 13.2311 730.302 10.7607 730.247C8.40005 730.192 6.25839 732.088 6.12109 734.34C5.98385 736.621 8.09784 738.764 10.5684 738.819C12.929 738.874 15.0697 736.978 15.207 734.725ZM15.5371 265.248C15.3999 262.995 13.2589 261.099 10.9258 261.154C8.45525 261.209 6.34136 263.352 6.45116 265.66C6.58855 267.912 8.72933 269.807 11.0625 269.752C13.5329 269.698 15.6467 267.555 15.5371 265.248ZM14.7139 763.928C14.7688 761.868 12.7916 759.999 10.623 760.027C8.53701 760.054 6.67025 761.813 6.61523 763.791C6.56033 765.851 8.53747 767.719 10.7061 767.692C12.7921 767.664 14.6589 765.906 14.7139 763.928ZM15.0703 236.071C15.0152 234.093 13.1485 232.362 11.0898 232.307C8.92132 232.28 6.94524 234.148 6.97265 236.208C7.02755 238.187 8.89434 239.917 10.9531 239.972C13.1215 239.999 15.0977 238.131 15.0703 236.071ZM14.1641 793.269C14.219 791.456 12.5446 789.834 10.623 789.834C8.70157 789.807 6.91745 791.456 7.05469 793.242C7.19204 795.192 8.39956 796.346 10.458 796.539C12.352 796.703 14.109 795.082 14.1641 793.269ZM14.6308 206.703C14.5757 204.89 12.8187 203.269 10.9248 203.434C8.86632 203.627 7.65871 204.781 7.52147 206.731C7.38454 208.516 9.1686 210.137 11.0625 210.137C12.984 210.137 14.6583 208.488 14.6308 206.703ZM13.6699 822.472C13.6424 820.796 12.5167 819.725 10.7324 819.67C8.81122 819.616 7.60382 820.687 7.54883 822.5C7.49392 824.34 8.70163 825.275 10.5957 825.495L10.623 825.495C12.4897 825.247 13.6974 824.313 13.6699 822.472ZM13.6426 851.319C12.6544 850.687 11.7209 849.643 10.6504 849.478C8.94864 849.204 7.68603 850.385 8.07031 851.951C8.29001 852.885 9.66235 854.094 10.623 854.204C11.5564 854.286 12.627 853.104 13.6152 852.472L13.6426 852.472L13.6426 851.319ZM14.165 177.5C14.1923 175.659 13.0111 174.725 11.1172 174.478L11.0898 174.505C9.1961 174.753 7.98827 175.687 8.04296 177.5C8.09786 179.313 9.27855 180.385 11.2275 180.33C13.0117 180.275 14.1376 179.203 14.165 177.5ZM13.835 881.346C12.3252 880.275 11.4738 879.176 10.6777 879.231C9.85419 879.286 8.50986 880.412 8.48242 881.126C8.45523 881.813 9.6629 883.05 10.4863 883.187C11.2549 883.324 12.2157 882.28 13.835 881.346ZM14.1367 147.5C13.1487 146.868 12.0785 145.687 11.1728 145.769C10.2121 145.879 8.83883 147.088 8.59179 148.022C8.20766 149.588 9.471 150.742 11.1728 150.495C12.2431 150.33 13.1761 149.286 14.1641 148.654L14.1641 147.5L14.1367 147.5ZM13.0937 939.752C11.9409 939.011 11.1173 938.104 10.5684 938.242C9.82721 938.407 9.27783 939.368 8.64648 940C9.3602 940.549 10.0195 941.456 10.7881 941.539C11.3371 941.593 12.0508 940.604 13.0937 939.752ZM12.4346 910.604C12.2699 909.835 11.1717 909.285 10.458 908.625C9.79935 909.23 8.64694 909.862 8.64648 910.494C8.64648 911.263 9.63495 912.005 10.5957 913.324C11.529 912.005 12.5718 911.181 12.4346 910.604ZM12.0234 969.121C12.1328 968.681 11.2274 968.021 10.459 967.06C9.74527 968.022 8.92166 968.627 8.97656 969.176C9.03189 969.753 9.8819 970.247 10.4033 970.769C10.9798 970.22 11.8587 969.752 12.0234 969.121ZM11.8857 998.461C11.9955 998.077 11.1453 997.472 10.4316 996.593L10.4316 996.566C9.77289 997.472 9.03128 998.022 9.05859 998.516C9.11349 999.038 9.90927 999.505 10.376 1000C10.8975 999.505 11.7209 999.066 11.8857 998.461ZM14.4111 118.626C12.7916 117.692 11.8311 116.648 11.0625 116.786C10.239 116.923 9.03115 118.159 9.05858 118.874C9.08642 119.588 10.4315 120.714 11.2549 120.769C12.0508 120.824 12.9017 119.725 14.4385 118.654L14.4111 118.626ZM13.0391 89.3677C13.1758 88.7908 12.1323 87.9664 11.1992 86.648C10.2385 87.9666 9.25097 88.7088 9.25097 89.478C9.25112 90.1099 10.4037 90.7418 11.0625 91.3462C11.7762 90.6868 12.8743 90.1094 13.0391 89.3677ZM13.7246 60.2476C12.6815 59.3959 11.9679 58.4065 11.4189 58.4614C10.6505 58.544 9.99181 59.4501 9.27831 59.9995C9.9096 60.6313 10.4308 61.5933 11.1992 61.7583C11.7481 61.8956 12.5719 60.9893 13.7246 60.2476ZM12.709 30.8511C12.5441 30.2194 11.6662 29.752 11.0898 29.2026C10.5683 29.7246 9.717 30.2195 9.6621 30.7964C9.60732 31.3458 10.4309 31.9228 11.1445 32.9116C11.9131 31.9501 12.8188 31.2632 12.709 30.8511ZM12.6269 1.53858C12.4622 0.934207 11.6387 0.521488 11.1172 -0.000485111C10.6506 0.4939 9.85494 0.961063 9.79979 1.48291C9.74489 1.97742 10.513 2.52747 11.1719 3.43409L11.1719 3.40576C11.8853 2.52692 12.7361 1.92322 12.6269 1.53858ZM33.874 514.492C33.8663 510.542 30.4646 507.363 26.2969 507.417C22.2345 507.445 18.9409 510.549 18.8584 514.395C18.7761 518.323 22.1246 521.566 26.2969 521.593C30.4643 521.621 33.8659 518.414 33.874 514.492ZM33.9004 485.494C33.9001 481.565 30.4965 478.351 26.3242 478.406C22.152 478.433 18.8036 481.703 18.8584 485.631C18.9407 489.477 22.2343 492.555 26.2969 492.61C30.4692 492.637 33.8728 489.45 33.873 485.522L33.9004 485.494ZM33.626 544.01C33.708 540.109 30.5245 536.978 26.4072 536.951C22.3995 536.923 19.1331 539.89 19.0508 543.654C18.9686 547.555 22.1522 550.687 26.2695 550.714C30.2773 550.742 33.5436 547.774 33.626 544.01ZM33.6816 455.961C33.5993 452.198 30.3594 449.258 26.3242 449.286C22.2069 449.313 19.0231 452.445 19.1055 456.346C19.1879 460.11 22.4268 463.049 26.4619 463.022C30.5794 462.995 33.764 459.863 33.6816 455.961ZM33.3525 573.123C33.3198 569.473 30.0547 566.456 26.2148 566.539C22.4543 566.594 19.3528 569.533 19.2978 573.104C19.2429 576.73 22.4274 579.807 26.2978 579.807C30.1616 579.807 33.369 576.768 33.3525 573.123ZM33.4619 426.84C33.4892 423.187 30.2776 420.137 26.4072 420.165C22.5368 420.165 19.325 423.242 19.3799 426.896C19.435 430.467 22.5099 433.379 26.2978 433.461C30.1407 433.516 33.4071 430.521 33.4346 426.868L33.4619 426.84ZM32.9678 602.528C32.9952 599.176 29.9483 596.263 26.4072 596.208C22.8662 596.154 19.7641 598.984 19.6543 602.363C19.5447 605.687 22.5097 608.654 26.0781 608.792C29.7013 608.929 32.9675 605.962 32.9678 602.528ZM33.1055 397.445C33.1054 394.011 29.8382 391.044 26.2148 391.181C22.6464 391.319 19.6823 394.286 19.7646 397.61C19.8745 400.961 22.9757 403.791 26.5166 403.736L26.5449 403.763C30.0858 403.708 33.1329 400.796 33.1055 397.445ZM32.4736 631.895C32.5009 628.763 29.8379 626.099 26.5166 625.989C23.1129 625.851 20.1754 628.461 20.0654 631.675C19.9831 634.89 22.7563 637.637 26.1602 637.692L26.1602 637.719C29.5639 637.774 32.4736 635.109 32.4736 631.895ZM32.6934 368.077C32.6934 364.862 29.8111 362.198 26.3799 362.252L26.3525 362.28C22.9487 362.335 20.149 365.082 20.2588 368.296C20.3411 371.511 23.2778 374.12 26.709 373.983C30.0304 373.873 32.6933 371.208 32.6934 368.077ZM31.9521 661.181C31.9796 658.214 29.399 655.769 26.2422 655.769C23.1953 655.797 20.6429 658.104 20.5605 660.989C20.4509 663.983 22.9761 666.483 26.1328 666.538C29.3169 666.592 31.9246 664.203 31.9521 661.208L31.9521 661.181ZM32.1719 338.736C32.1717 335.742 29.5365 333.352 26.3799 333.407C23.2232 333.462 20.698 335.961 20.8076 338.956C20.8899 341.84 23.4149 344.148 26.4892 344.148C29.646 344.148 32.2267 341.703 32.1992 338.736L32.1719 338.736ZM31.4307 690.466C31.4305 687.747 29.0697 685.549 26.1602 685.604C23.3603 685.659 21.1096 687.774 21.0547 690.412C20.9998 693.159 23.2778 695.412 26.1875 695.412C29.0698 695.439 31.4033 693.241 31.4033 690.494L31.4307 690.466ZM31.7051 309.478C31.7051 306.731 29.399 304.533 26.4892 304.56C23.5797 304.56 21.3016 306.813 21.3564 309.56C21.4113 312.197 23.6621 314.313 26.4619 314.34C29.3715 314.395 31.7322 312.198 31.7324 309.451L31.7051 309.478ZM30.8545 719.752C30.7996 717.362 28.6855 715.439 26.1875 715.439C23.6622 715.466 21.5489 717.445 21.5488 719.807C21.5214 722.28 23.7448 724.312 26.3525 724.23C28.8778 724.147 30.9093 722.115 30.8545 719.752ZM31.1836 280.192C31.2384 277.829 29.207 275.797 26.6816 275.714C24.0739 275.632 21.8505 277.692 21.8779 280.137C21.878 282.5 23.9914 284.478 26.4892 284.478C28.9872 284.478 31.1013 282.527 31.1562 280.165L31.1836 280.192ZM30.3594 749.01C30.2493 746.868 28.4109 745.248 26.1328 745.275L26.1328 745.247C23.8544 745.302 22.0694 746.978 22.042 749.121C22.0145 751.373 23.9089 753.131 26.2695 753.104C28.6302 753.077 30.4692 751.236 30.3594 749.01ZM30.7168 250.961C30.8266 248.736 28.9875 246.895 26.6269 246.868C24.2663 246.84 22.3721 248.598 22.3994 250.851C22.4269 252.994 24.2109 254.67 26.4892 254.698C28.7675 254.725 30.6069 253.104 30.7168 250.961ZM29.8389 778.434C29.8114 776.511 28.2462 775.054 26.2148 775.054C24.0738 775.054 22.4549 776.621 22.5098 778.626C22.5374 780.549 24.1016 782.005 26.1328 782.005C28.2738 782.005 29.8936 780.439 29.8389 778.434ZM30.25 221.539C30.3049 219.533 28.685 217.967 26.5439 217.995C24.5127 217.995 22.9484 219.451 22.8935 221.374C22.8387 223.379 24.4578 224.945 26.5986 224.917C28.6298 224.917 30.195 223.461 30.25 221.539ZM29.3447 808.131C29.4818 806.373 28.1915 804.944 26.3525 804.834L26.3799 804.807C24.4859 804.725 22.9484 805.961 22.9482 807.719C22.9208 809.532 23.8822 810.659 25.8037 810.878C27.6701 811.098 29.2075 809.862 29.3447 808.131ZM29.3994 836.84C28.3838 836.071 27.478 834.862 26.3252 834.615C24.5959 834.23 23.1136 835.467 23.3603 837.087C23.5251 838.131 24.8975 839.643 25.8857 839.752C26.9837 839.862 28.2191 838.598 29.3994 837.939L29.3721 837.939C29.3995 837.582 29.3994 837.197 29.3994 836.84ZM26.8193 195.137C28.6583 195.027 29.9752 193.598 29.8105 191.84C29.6733 190.11 28.1361 188.873 26.2695 189.093C24.3483 189.313 23.3877 190.439 23.3877 192.252C23.3877 194.011 24.9246 195.247 26.791 195.165L26.8193 195.137ZM23.4697 925.247L23.4971 925.275C23.4988 925.274 23.5012 925.272 23.5029 925.271C23.4917 925.263 23.481 925.254 23.4697 925.247ZM27.917 925.137C27.2583 924.588 26.6268 923.654 25.8584 923.543C25.3103 923.461 24.5707 924.448 23.5029 925.271C24.6106 926.036 25.3969 926.949 25.9404 926.84C26.6815 926.703 27.2582 925.742 27.917 925.137ZM28.3838 866.51C28.4658 865.686 27.2028 864.753 26.5166 863.874L25.4463 863.928C24.8424 864.862 23.7176 865.824 23.7998 866.703C23.8547 867.472 25.3909 868.818 26.0225 868.708C26.9832 868.544 28.3014 867.362 28.3838 866.51ZM29.9209 163.132C29.9209 162.775 29.921 162.39 29.8935 162.033C28.7133 161.373 27.4778 160.111 26.3799 160.22C25.3918 160.33 24.0195 161.84 23.8545 162.884C23.6074 164.505 25.0892 165.741 26.8183 165.357C27.9712 165.11 28.8778 163.902 29.9209 163.132ZM28.0547 895.769C28.1916 895.165 27.0662 894.313 26.0508 892.967C25.0627 894.341 24.0196 895.137 24.1016 895.824C24.1839 896.565 25.3089 897.198 25.9678 897.884C26.7089 897.17 27.8625 896.566 28.0547 895.769ZM28.5752 74.7798C27.9167 74.1755 27.3404 73.2416 26.5996 73.0767C26.0506 72.9668 25.2543 73.9012 24.1289 74.6704C25.1993 75.4945 25.9403 76.4831 26.4892 76.4009C27.2578 76.291 27.889 75.3567 28.5752 74.7798ZM28.9326 133.461C28.8501 132.61 27.532 131.429 26.5713 131.264C25.9398 131.155 24.4039 132.5 24.3486 133.269C24.2663 134.148 25.3912 135.11 25.9951 136.044L27.0654 136.044L27.0654 136.099C27.7517 135.22 29.015 134.286 28.9326 133.461ZM27.5596 954.533C27.4772 953.983 26.5988 953.516 26.0498 953.022C25.5008 953.599 24.6499 954.121 24.5127 954.752C24.4305 955.192 25.3641 955.796 26.1875 956.73C26.8737 955.714 27.6418 955.055 27.5596 954.533ZM28.1367 983.846C27.2036 983.214 26.5996 982.527 26.0781 982.554C25.5291 982.582 25.0343 983.351 24.5127 983.791C25.0343 984.285 25.5015 985.082 26.1328 985.219C26.5446 985.302 27.1762 984.505 28.1094 983.846L28.1367 983.846ZM28.6308 104.175C28.4387 103.379 27.2851 102.774 26.5439 102.06C25.8851 102.747 24.7326 103.379 24.6777 104.121C24.5956 104.807 25.6388 105.604 26.6269 106.978C27.6426 105.632 28.7681 104.78 28.6308 104.175ZM28.2187 45.4399C28.3011 44.918 27.5329 44.2581 26.8467 43.2417C26.0232 44.1758 25.0895 44.7806 25.1719 45.2202C25.3094 45.8519 26.1601 46.3739 26.709 46.9507C27.2579 46.4563 28.1361 45.9893 28.2187 45.4399ZM28.8232 16.0991C27.89 15.4399 27.2584 14.6429 26.8467 14.7251C26.2153 14.89 25.7481 15.6593 25.2266 16.1538C25.7481 16.5934 26.243 17.3627 26.792 17.3901C27.3134 17.4172 27.9175 16.7308 28.8506 16.0991L28.8232 16.0991ZM49.3555 499.807C49.3827 495.906 46.1984 492.857 42.081 492.775C37.8263 492.692 34.4776 495.796 34.4775 499.78C34.477 499.852 34.4807 499.925 34.4824 499.997C34.4811 500.052 34.4775 500.108 34.4775 500.165C34.4776 504.148 37.8264 507.253 42.0537 507.17C46.1711 507.088 49.3553 504.011 49.3555 500.11C49.3555 500.059 49.3526 500.009 49.3516 499.958C49.3526 499.908 49.3555 499.858 49.3555 499.807ZM49.1904 529.188C49.2097 525.267 46.0011 522.252 41.8613 522.252C37.8264 522.253 34.642 525.192 34.5596 528.983C34.4772 532.911 37.6344 535.989 41.7519 536.043C45.9199 536.071 49.1834 533.083 49.1904 529.188ZM49.2461 470.742C49.2461 466.841 45.979 463.846 41.834 463.901C37.7165 463.956 34.5602 467.06 34.6426 470.989C34.725 474.78 37.9092 477.719 41.9443 477.719C46.089 477.719 49.3008 474.67 49.2734 470.769L49.2461 470.742ZM49.0264 558.599C49.0813 555 45.8967 551.868 42.0537 551.758C38.1559 551.648 34.7248 554.835 34.7246 558.516C34.7246 562.115 37.9911 565.22 41.8066 565.22L41.834 565.248C45.6495 565.275 48.9439 562.225 49.0264 558.599ZM49.081 441.374C48.9986 437.747 45.7049 434.698 41.917 434.725C38.1014 434.753 34.8341 437.83 34.8066 441.457C34.8069 445.138 38.2382 448.324 42.1084 448.214C45.9514 448.104 49.1634 444.945 49.081 441.374ZM48.5869 587.857C48.5869 584.34 45.6491 581.511 41.9434 581.456L41.9707 581.483C38.2377 581.428 35.1907 584.176 35.1084 587.692C35.026 591.208 37.9085 594.093 41.6143 594.203C45.4298 594.285 48.5868 591.456 48.5869 587.857ZM48.7236 412.087C48.7235 408.489 45.5948 405.659 41.7519 405.769C38.0463 405.879 35.1639 408.763 35.2461 412.307C35.3284 415.824 38.3478 418.571 42.081 418.516L42.081 418.489C45.7868 418.434 48.7511 415.604 48.7236 412.087ZM48.0928 617.335C48.1751 614.039 45.5398 611.373 42.0811 611.263C38.4576 611.153 35.6026 613.737 35.5752 617.116C35.548 620.412 38.2105 623.022 41.6963 623.077C45.2098 623.132 48.0102 620.604 48.0928 617.335ZM48.2305 382.583C48.1481 379.313 45.3749 376.813 41.8613 376.868C38.3754 376.923 35.6854 379.533 35.7129 382.83C35.713 386.209 38.5954 388.791 42.2187 388.681C45.6772 388.571 48.3125 385.906 48.2305 382.583ZM47.5986 646.675C47.6808 643.516 45.2102 641.043 41.8613 641.043C38.6222 641.016 36.097 643.297 36.0146 646.346C35.9324 649.505 38.4031 651.978 41.7519 651.978C44.9909 652.005 47.5163 649.725 47.5986 646.675ZM47.8184 353.269C47.736 350.22 45.2381 347.939 41.9717 347.966C38.6227 347.966 36.1247 350.44 36.207 353.599C36.2896 356.648 38.7873 358.928 42.0537 358.901C45.4026 358.901 47.9006 356.428 47.8184 353.269ZM46.9951 675.769C46.9402 672.967 44.6892 670.907 41.6973 670.907C38.7327 670.934 36.4816 673.049 36.4814 675.851C36.4814 678.736 38.8151 680.906 41.917 680.824C44.8813 680.741 47.0772 678.571 47.0225 675.742L46.9951 675.769ZM47.2969 324.204C47.3518 321.374 45.1549 319.203 42.2178 319.148C39.1162 319.066 36.7833 321.236 36.7832 324.148C36.7832 326.95 39.0344 329.066 41.999 329.093C44.9908 329.093 47.2418 327.033 47.2969 324.231L47.2969 324.204ZM46.5283 705.083C46.5009 702.555 44.4967 700.66 41.8066 700.66C39.0067 700.632 36.9481 702.61 36.9756 705.248C37.0033 707.775 39.0066 709.67 41.6963 709.67C44.4961 709.698 46.5556 707.72 46.5283 705.083ZM46.8301 294.863C46.885 292.225 44.7989 290.248 41.999 290.275C39.3089 290.275 37.3049 292.198 37.25 294.725C37.1951 297.362 39.2812 299.34 42.081 299.313C44.7711 299.313 46.775 297.39 46.8301 294.863ZM46.0068 734.505C46.0068 732.225 44.2221 730.494 41.834 730.466C39.3361 730.439 37.4423 732.225 37.4971 734.587C37.5245 736.868 39.3637 738.516 41.7793 738.516C44.1948 738.489 46.0068 736.785 46.0068 734.505ZM46.3086 265.44C46.3086 263.16 44.4967 261.457 42.081 261.457L42.1084 261.428C39.693 261.428 37.8538 263.077 37.7988 265.357C37.7439 267.719 39.6379 269.505 42.1357 269.478C44.5238 269.423 46.3084 267.72 46.3086 265.44ZM45.54 763.736C45.485 761.731 43.838 760.219 41.7246 760.219C39.5287 760.192 37.826 761.84 37.8809 763.928C37.9358 766.016 39.7201 767.555 41.9434 767.445C44.0296 767.335 45.5949 765.741 45.54 763.736ZM45.9238 236.181C45.9787 234.176 44.4418 232.582 42.3281 232.472C40.1048 232.362 38.3205 233.901 38.2656 235.989C38.2107 238.077 39.9126 239.725 42.1084 239.698C44.222 239.698 45.8689 238.159 45.9238 236.181ZM45.0732 793.131C44.8536 791.236 43.7558 790.137 41.752 790.054C39.8304 789.944 38.2928 791.456 38.3477 793.269C38.3752 795.082 39.9674 796.482 41.8887 796.318C43.92 796.153 44.9086 794.999 45.0459 793.131L45.0732 793.131ZM45.1006 822.087C44.0301 821.291 43.0418 820.027 41.8066 819.78C40.1049 819.45 38.9524 820.659 38.6777 822.307C38.4307 823.818 40.0497 825.632 41.5869 825.275C42.8496 824.973 43.9204 823.901 45.0732 823.187L45.0459 823.187L45.1006 822.087ZM45.4853 206.813C45.3481 204.945 44.3594 203.819 42.3281 203.626C40.4069 203.462 38.8149 204.89 38.7598 206.703C38.7049 208.516 40.2427 210.027 42.1367 209.917C44.1403 209.835 45.2384 208.736 45.458 206.813L45.4853 206.813ZM45.5674 176.731L45.5674 176.758C44.4145 176.044 43.3438 174.973 42.081 174.67C40.5439 174.313 38.9248 176.154 39.1719 177.637C39.4464 179.285 40.599 180.494 42.3008 180.137C43.5359 179.89 44.5242 178.626 45.6221 177.83L45.5674 176.731ZM44.6064 851.511C43.7006 850.824 42.7121 849.505 41.916 849.615C40.9004 849.725 39.5283 850.879 39.2812 851.813C39.1166 852.417 40.5992 854.038 41.4502 854.121C42.4109 854.203 43.5361 853.104 44.5791 852.527L44.6064 852.527L44.6064 851.511ZM44.8809 881.043C43.289 880.109 42.3008 879.093 41.5322 879.203C40.7088 879.34 40.0769 880.549 39.3633 881.291C40.1593 881.977 40.9011 883.132 41.7246 883.187C42.5206 883.242 43.3987 882.142 44.9082 881.071L44.8809 881.043ZM44.5518 910.522C43.1795 909.616 42.3285 908.626 41.7246 908.736C40.9011 908.901 39.9129 909.835 39.7207 910.604C39.6109 911.071 40.8734 912.334 41.5322 912.334C42.3282 912.362 43.1519 911.428 44.5518 910.549L44.5518 910.522ZM45.1006 147.417C44.0576 146.841 42.9324 145.741 41.9717 145.824C41.1208 145.906 39.6386 147.527 39.8027 148.131C40.0498 149.065 41.4228 150.22 42.4385 150.33C43.2343 150.439 44.2223 149.121 45.1279 148.434L45.1279 147.417L45.1006 147.417ZM45.457 118.874C43.9474 117.802 43.0693 116.703 42.3008 116.758C41.4773 116.813 40.709 117.967 39.9404 118.654C40.654 119.396 41.2851 120.604 42.1084 120.742C42.8769 120.852 43.8651 119.835 45.457 118.901L45.457 118.874ZM43.0967 939.89C43.2339 939.451 42.3835 938.736 41.6973 937.719L41.6699 937.719C40.8739 938.653 40.0225 939.203 40.0225 939.752C40.05 940.302 40.8732 940.879 41.3398 941.428C41.971 940.934 42.8768 940.522 43.0967 939.89ZM43.6738 998.516C42.7405 997.884 42.1358 997.198 41.6143 997.225C41.0654 997.253 40.5712 998.022 40.0498 998.461C40.5714 998.956 41.0386 999.753 41.6699 999.89C42.0816 999.972 42.7127 999.175 43.6455 998.516L43.6738 998.516ZM42.9873 969.204C43.0971 968.819 42.3286 968.132 41.6973 967.225C40.9561 968.077 40.1592 968.571 40.1592 969.066C40.1592 969.588 40.928 970.11 41.3672 970.632C41.9436 970.165 42.7676 969.78 42.9873 969.204ZM45.1553 89.396C43.7553 88.5168 42.9318 87.5824 42.1357 87.6099C41.4769 87.6102 40.2148 88.8732 40.3242 89.3403C40.5163 90.1096 41.5046 91.0436 42.3281 91.2085C42.932 91.3184 43.783 90.3299 45.1553 89.4233L45.1553 89.396ZM43.7558 60.0542C43.5361 59.4225 42.6302 59.0105 42.0264 58.5161C41.5597 59.0656 40.7356 59.6425 40.708 60.1919C40.708 60.7413 41.5594 61.291 42.3555 62.2251C43.0417 61.2086 43.8931 60.4938 43.7558 60.0542ZM44.3594 1.42823C43.4266 0.769168 42.7955 -0.0266696 42.3838 0.0551786C41.7524 0.220035 41.2852 0.989383 40.7637 1.48389C41.2851 1.9234 41.7793 2.69245 42.3281 2.72022C42.8497 2.74768 43.4544 2.06012 44.3877 1.42823L44.3594 1.42823ZM43.6728 30.7417C43.4806 30.1649 42.6301 29.78 42.0537 29.313C41.6145 29.835 40.8457 30.3574 40.8457 30.8794C40.846 31.3738 41.6418 31.8687 42.3828 32.7202C43.0141 31.8136 43.8101 31.1263 43.6728 30.7417ZM64.7002 514.505C64.7276 510.632 61.4611 507.555 57.3437 507.583C53.336 507.637 50.1515 510.632 50.124 514.423C50.0968 518.297 53.3631 521.374 57.4805 521.346L57.4805 521.319C61.4882 521.291 64.6727 518.297 64.7002 514.505ZM64.7549 485.384C64.7548 481.593 61.5428 478.598 57.5352 478.571C53.4178 478.571 50.1513 481.621 50.1787 485.522C50.1788 489.313 53.3908 492.307 57.3984 492.334C61.5159 492.334 64.7823 489.285 64.7549 485.384ZM64.5625 543.846C64.5899 540.247 61.3789 537.143 57.5361 537.06L57.207 537.061C53.5433 537.167 50.4223 540.113 50.2891 543.625C50.1793 547.224 53.3357 550.384 57.1787 550.549C61.049 550.687 64.5073 547.555 64.5625 543.846ZM64.6182 456.043C64.5906 452.335 61.1038 449.203 57.2334 449.368C53.3906 449.533 50.2067 452.719 50.3437 456.291C50.481 459.917 53.8027 462.939 57.5908 462.857C61.4337 462.774 64.6456 459.642 64.6182 456.043ZM64.1514 573.242C64.2063 569.615 61.2139 566.758 57.3711 566.758C53.6379 566.758 50.6731 569.533 50.6182 573.049C50.5633 576.676 53.5555 579.533 57.3984 579.533C61.1315 579.533 64.0964 576.758 64.1514 573.242ZM64.2607 426.675C64.2057 423.159 61.2684 420.384 57.5078 420.384C53.6651 420.384 50.673 423.241 50.7002 426.895C50.7551 430.412 53.6925 433.187 57.4531 433.187C61.2962 433.187 64.2882 430.329 64.2607 426.675ZM63.7119 602.665C63.8217 599.231 61.132 596.538 57.5361 596.483C53.9951 596.428 51.2224 598.846 51.0576 602.142C50.8929 605.604 53.5007 608.352 57.0967 608.461C60.7474 608.571 63.602 606.071 63.7119 602.665ZM63.8496 397.225C63.7398 393.818 60.8843 391.318 57.2334 391.456C53.6376 391.593 51.0297 394.313 51.167 397.775C51.3319 401.071 54.1046 403.489 57.6455 403.434C61.2415 403.379 63.9319 400.687 63.8496 397.225ZM63.2451 632.088C63.4373 628.984 60.9942 626.401 57.7002 626.208C54.4062 626.016 51.6612 628.297 51.4141 631.401C51.167 634.588 53.7203 637.28 57.0967 637.417C60.3629 637.527 63.1075 635.192 63.2725 632.088L63.2451 632.088ZM63.4922 367.857L63.4648 367.83C63.3001 364.725 60.5828 362.391 57.3164 362.528C53.9402 362.665 51.387 365.357 51.6338 368.543C51.8808 371.648 54.6259 373.928 57.9199 373.736C61.2139 373.544 63.6569 370.961 63.4922 367.857ZM62.8066 661.072C62.7792 658.297 60.2535 655.962 57.3164 655.961C54.3518 655.961 51.8536 658.324 51.8262 661.099C51.7989 663.956 54.4338 666.401 57.4531 666.319C60.4176 666.236 62.8613 663.846 62.8066 661.072ZM63.0527 338.846C63.1076 336.071 60.6648 333.682 57.7002 333.599C54.6807 333.517 52.0458 335.962 52.0732 338.846C52.1007 341.621 54.5981 343.984 57.5625 343.984C60.4997 343.984 63.0252 341.648 63.0801 338.874L63.0527 338.846ZM62.2842 690.495C62.2842 687.967 60.0611 685.824 57.3711 685.796C54.681 685.769 52.4027 687.857 52.3203 690.384C52.238 692.994 54.5713 695.219 57.3437 695.192C60.0336 695.164 62.2566 693.022 62.2568 690.495L62.2842 690.495ZM62.5596 309.423C62.5596 306.896 60.3356 304.78 57.6455 304.725C54.8731 304.698 52.5399 306.95 52.5947 309.533C52.6771 312.06 54.9555 314.148 57.6182 314.093C60.3081 314.066 62.531 311.923 62.5312 309.396L62.5596 309.423ZM61.7353 719.89C61.7628 717.637 59.7593 715.659 57.3437 715.631C54.9282 715.604 52.8695 717.5 52.8144 719.78C52.787 722.032 54.7906 724.011 57.2061 724.039C59.6216 724.066 61.6803 722.17 61.7353 719.89ZM62.0654 280.027C62.0379 277.747 59.9515 275.851 57.5361 275.878C55.1205 275.906 53.0886 277.884 53.1435 280.165C53.171 282.445 55.2573 284.34 57.6728 284.313C60.0885 284.286 62.1203 282.307 62.0654 280.027ZM61.2959 749.396C61.4331 747.336 59.567 745.385 57.3711 745.33C55.285 745.275 53.3357 746.95 53.1982 748.928C53.061 750.989 54.928 752.94 57.124 752.995C59.21 753.049 61.1584 751.374 61.2959 749.396ZM61.6807 250.522C61.5434 248.544 59.5949 246.869 57.5088 246.923C55.3128 247.006 53.4183 248.956 53.583 250.989C53.7203 252.967 55.6696 254.642 57.7559 254.587C59.9516 254.505 61.8452 252.555 61.6807 250.522ZM57.3164 781.868C59.2378 781.785 60.9392 780.109 60.7471 778.324C60.5274 776.373 59.3195 775.247 57.2334 775.137C55.3396 775.055 53.6652 776.731 53.665 778.543C53.6916 780.3 55.3418 781.825 57.167 781.869L57.3164 781.868ZM61.1865 221.566C61.3787 219.78 59.6764 218.104 57.7549 218.049C55.861 217.995 54.1046 219.56 54.0771 221.374C54.0497 223.187 55.7514 224.862 57.6455 224.752C59.7317 224.643 60.9394 223.489 61.1865 221.566ZM60.2529 808.077C60.445 806.236 59.2648 805.247 57.4258 804.89C55.5044 805 54.2691 805.879 54.1592 807.719C54.0494 809.423 55.0927 810.55 56.877 810.714C58.7983 810.879 60.0608 809.862 60.2529 808.077ZM57.8652 195.027C59.7044 194.67 60.8845 193.681 60.6924 191.84C60.5002 190.055 59.2378 189.039 57.3164 189.231C55.5321 189.396 54.4888 190.522 54.5986 192.225C54.7085 194.066 55.9438 194.917 57.8652 195.027ZM60.2529 836.648C59.265 835.989 58.3593 834.945 57.2891 834.78C55.5871 834.505 54.2964 835.659 54.6807 837.225C54.9277 838.187 56.2727 839.395 57.2334 839.505C58.1392 839.615 59.21 838.434 60.2256 837.802L60.2529 837.802L60.2529 836.648ZM59.2656 866.51C59.375 865.796 58.249 864.889 57.2061 863.406L57.2061 863.378C56.1355 864.862 54.9832 865.714 55.0654 866.456C55.1478 867.225 56.3829 868.461 57.124 868.461C57.8926 868.489 59.1558 867.279 59.2656 866.51ZM60.7197 162.115C59.7042 161.483 58.6333 160.302 57.7275 160.412C56.7668 160.522 55.3944 161.731 55.1748 162.692C54.7905 164.258 56.0814 165.412 57.7558 165.137C58.8261 164.972 59.7318 163.928 60.7197 163.269L60.7197 162.115ZM59.7871 925C58.442 924.258 57.6454 923.489 56.9043 923.543C56.3004 923.599 55.7785 924.67 55.2295 925.274C55.9432 925.823 56.5751 926.73 57.3437 926.84C57.9202 926.923 58.6342 925.934 59.8145 925L59.7871 925ZM59.0449 896.072C58.9351 895.303 58.0021 894.313 57.2061 894.066C56.7393 893.929 55.3117 895.028 55.2568 895.66C55.2023 896.401 56.1082 897.253 56.959 898.626L56.959 898.599C58.0019 897.391 59.1268 896.649 59.0449 896.072ZM59.165 983.942C58.2694 983.259 57.6968 982.554 57.1787 982.554C56.6297 982.582 56.1076 983.324 55.5586 983.736C56.0802 984.258 56.4927 985.054 57.124 985.219C57.5332 985.328 58.2141 984.571 59.165 983.942ZM59.8144 133.378C59.7045 132.609 58.4414 131.401 57.6728 131.428C56.9317 131.429 55.6967 132.665 55.5869 133.434C55.505 134.176 56.6307 135.027 57.7285 136.483L57.7558 136.51C58.7989 135.027 59.9242 134.12 59.8144 133.378ZM59.21 954.451C58.2492 953.846 57.6456 953.132 57.124 953.187C56.575 953.242 56.1085 954.011 55.5869 954.451C56.1357 954.945 56.6024 955.713 57.2334 955.851C57.6451 955.933 58.3043 955.137 59.21 954.451ZM59.6221 103.819C59.7044 103.242 58.6067 102.499 57.5361 101.291C56.6852 102.664 55.7516 103.517 55.834 104.258C55.8892 104.89 57.3166 105.988 57.7832 105.851C58.579 105.604 59.5121 104.615 59.6221 103.819ZM60.4453 74.9175C59.2649 73.9834 58.5511 72.9943 57.9746 73.0767C57.2061 73.1866 56.575 74.0937 55.8613 74.6431C56.4101 75.2474 56.9315 76.3181 57.5351 76.3735C58.2763 76.4285 59.0729 75.6592 60.418 74.9175L60.4453 74.9175ZM59.8691 45.4673C58.9633 44.7805 58.3318 43.9835 57.8926 44.0659C57.2613 44.2034 56.795 44.9728 56.2461 45.4673C56.7675 45.9069 57.2343 46.676 57.7832 46.731C58.3046 46.7855 58.9087 46.0715 59.8691 45.4673ZM59.8965 15.9888C58.9359 15.357 58.2497 14.5881 57.8379 14.7251C57.2065 14.89 56.794 15.6865 56.2724 16.2085C56.8215 16.6206 57.3436 17.3627 57.8926 17.3901C58.4141 17.39 58.9907 16.6755 59.8965 15.9888ZM59.165 983.942C59.1709 983.946 59.1767 983.951 59.1826 983.956L59.1826 983.928C59.1765 983.932 59.1712 983.938 59.165 983.942ZM80.1816 499.807C80.2088 496.099 76.9154 492.968 72.9629 492.967C69.2021 492.967 66.0216 495.861 65.7842 499.383C65.7501 499.676 65.7343 499.973 65.7432 500.274C65.853 503.9 69.0925 506.895 72.9355 506.922C76.7159 506.922 79.8918 504.058 80.1377 500.54C80.157 500.379 80.1679 500.217 80.1748 500.054L80.1816 500.054C80.1814 500.018 80.1796 499.981 80.1787 499.945C80.1796 499.908 80.1814 499.872 80.1816 499.835L80.1816 499.807ZM80.0449 529.148C80.0449 525.549 76.7784 522.445 72.9629 522.445C69.1473 522.417 65.8535 525.494 65.8535 529.121C65.8536 532.719 69.12 535.824 72.9355 535.824C76.751 535.851 80.0449 532.774 80.0449 529.148ZM80.0996 470.769C80.0996 467.143 76.8058 464.066 72.9902 464.093C69.1747 464.093 65.9082 467.197 65.9082 470.824C65.9082 474.45 69.2021 477.527 73.0176 477.5C76.8331 477.5 80.0995 474.395 80.0996 470.769ZM79.6875 558.819C79.8796 555.138 76.998 552.17 73.1826 552.06C69.422 551.95 66.3201 554.615 66.1553 558.104C65.9906 561.675 68.735 564.615 72.4131 564.835C76.2835 565.083 79.5226 562.39 79.6875 558.819ZM79.7432 441.071C79.5783 437.5 76.339 434.835 72.4687 435.054C68.7904 435.274 66.0453 438.242 66.21 441.813L66.2373 441.813C66.402 445.302 69.4766 447.939 73.2373 447.83C77.0528 447.72 79.9353 444.725 79.7432 441.071ZM79.3037 587.83C79.3037 584.423 76.5587 581.786 72.9902 581.758C69.4218 581.731 66.5942 584.286 66.5117 587.665C66.4294 591.044 69.1199 593.736 72.6885 593.846C76.3667 593.956 79.3037 591.319 79.3037 587.83ZM79.4414 412.087C79.4412 408.599 76.5308 405.962 72.8252 406.072C69.2569 406.182 66.5672 408.874 66.6494 412.252C66.7318 415.632 69.5594 418.187 73.1279 418.16C76.6962 418.104 79.4414 415.466 79.4414 412.087ZM78.8916 617.445C79.1112 614.34 76.4485 611.565 73.0996 611.456C69.9156 611.346 67.1161 613.764 66.8965 616.84C66.6769 619.945 69.3395 622.72 72.6885 622.83C75.8726 622.939 78.672 620.522 78.8916 617.445ZM79.084 382.472C78.8642 379.396 76.0922 376.979 72.8809 377.088C69.532 377.226 66.8686 379.972 67.0605 383.077C67.2801 386.154 70.053 388.571 73.2646 388.461C76.6136 388.324 79.2761 385.577 79.084 382.472ZM78.4521 646.374C78.3972 643.654 75.8998 641.264 72.9902 641.208C69.9982 641.154 67.3352 643.599 67.3076 646.428C67.2527 649.258 69.8879 651.731 72.8799 651.731L72.9072 651.703C75.8993 651.703 78.507 649.203 78.4521 646.374ZM78.6455 353.489C78.7004 350.659 76.0925 348.159 73.1006 348.159C70.1085 348.159 67.4725 350.632 67.5 353.461C67.5276 356.291 70.1906 358.736 73.1826 358.681C76.0922 358.599 78.5905 356.236 78.6455 353.489ZM77.9033 675.989C78.0131 673.406 75.6522 671.071 72.9072 671.043C70.2722 670.989 67.9117 673.132 67.8018 675.631C67.692 678.214 70.0528 680.549 72.7978 680.577C75.433 680.632 77.7935 678.489 77.9033 675.989ZM78.1504 323.901C78.0405 321.401 75.68 319.286 73.0449 319.313C70.2999 319.34 67.939 321.703 68.0488 324.258C68.1587 326.758 70.5192 328.873 73.1543 328.846C75.8993 328.819 78.2602 326.456 78.1504 323.901ZM77.4365 705.083C77.3542 702.72 75.1862 700.769 72.7158 700.824C70.2454 700.879 68.1592 702.939 68.2139 705.274C68.2962 707.609 70.465 709.56 72.9355 709.505L72.9355 709.533C75.4057 709.478 77.4911 707.417 77.4365 705.083ZM77.7392 294.863C77.7942 292.528 75.7077 290.467 73.2373 290.412C70.7668 290.357 68.598 292.335 68.5156 294.67C68.4608 297.005 70.5471 299.066 73.0176 299.121C75.488 299.176 77.6567 297.198 77.7392 294.863ZM76.8877 734.56C76.9424 732.472 75.0759 730.631 72.8525 730.604C70.6566 730.577 68.7356 732.335 68.6807 734.423C68.626 736.511 70.4925 738.352 72.7158 738.379C74.9117 738.407 76.8328 736.648 76.8877 734.56ZM77.2451 265.357C77.2177 263.269 75.2683 261.511 73.0723 261.539C70.8488 261.594 68.9822 263.407 69.0371 265.495C69.0648 267.582 71.0141 269.34 73.21 269.313C75.4332 269.258 77.3 267.445 77.2451 265.357ZM76.3662 763.901C76.4211 762.033 74.8289 760.467 72.8525 760.412C70.8763 760.357 69.2015 761.868 69.1465 763.736C69.0916 765.604 70.6839 767.17 72.6602 767.225C74.6366 767.28 76.3113 765.769 76.3662 763.901ZM76.7783 235.989C76.7234 234.121 75.0487 232.61 73.0723 232.665C71.096 232.72 69.5038 234.313 69.5312 236.154C69.5864 238.022 71.261 239.533 73.2373 239.478C75.2136 239.423 76.8057 237.829 76.7783 235.989ZM75.9004 793.214C75.9004 791.374 74.7746 790.412 72.9355 790.165L72.9629 790.137C71.0139 790.247 69.7787 791.127 69.6689 792.967C69.5593 794.78 70.6021 795.907 72.5234 796.099C74.3625 796.291 75.9003 794.973 75.9004 793.214ZM76.3115 206.675C76.3113 204.917 74.7736 203.598 72.9346 203.791C71.0133 203.983 69.9703 205.11 70.0801 206.923C70.1901 208.764 71.4254 209.643 73.3467 209.725C75.1858 209.478 76.3115 208.516 76.3115 206.675ZM75.9268 822.966C75.8993 822.555 75.8721 822.17 75.8721 821.758C74.7466 821.154 73.5938 820 72.5781 820.11C71.6449 820.192 70.3545 821.538 70.1348 822.527C69.7779 824.093 71.096 825.274 72.7705 824.972C73.9234 824.78 74.8564 823.681 75.8994 822.966L75.9268 822.966ZM74.9941 851.923C75.1314 851.127 73.9234 850.11 73.292 849.204L73.3193 849.148L72.249 849.148C71.5628 850.054 70.4103 850.961 70.4102 851.84C70.4102 852.61 71.8647 854.065 72.4961 853.983C73.4567 853.873 74.8291 852.775 74.9941 851.923ZM76.3652 176.95C75.3226 176.235 74.3897 175.137 73.2373 174.945C71.5628 174.643 70.2447 175.824 70.6016 177.39C70.8213 178.379 72.1118 179.725 73.0176 179.807C74.0332 179.917 75.2136 178.763 76.3115 178.131C76.3115 177.728 76.3384 177.352 76.3652 176.95ZM74.6641 881.154C74.8287 880.549 73.7586 879.643 72.7979 878.269L72.7979 878.242C71.7273 879.56 70.6571 880.329 70.6846 881.016C70.7395 881.758 71.8374 882.444 72.4687 883.159C73.2372 882.5 74.4442 881.95 74.6641 881.154ZM75.3506 910.659C74.143 909.752 73.4015 908.791 72.8525 908.874C72.084 908.984 71.1239 909.808 70.9043 910.522C70.7675 910.907 71.8923 912.143 72.4961 912.17C73.2372 912.225 74.033 911.4 75.3506 910.659ZM73.8135 150.714C74.4447 149.808 75.6525 148.791 75.5156 147.995C75.3509 147.143 73.9783 146.044 73.0176 145.934C72.3862 145.852 70.9318 147.307 70.9316 148.077C70.9316 148.956 72.0844 149.862 72.7432 150.769L73.8135 150.769L73.8135 150.714ZM74.9395 939.752C73.8966 939.093 73.2375 938.351 72.6611 938.406C72.0573 938.488 71.5627 939.313 71.0137 939.807C71.5901 940.329 72.1117 941.153 72.7979 941.291C73.2645 941.373 73.9238 940.522 74.9395 939.752ZM74.7197 969.121C73.759 968.516 73.1544 967.802 72.6328 967.857C72.084 967.912 71.6172 968.681 71.0957 969.121C71.6447 969.615 72.1118 970.385 72.7432 970.522C73.1549 970.604 73.8141 969.807 74.7197 969.121ZM75.2412 118.736C75.0215 117.939 73.8409 117.39 73.0449 116.731C72.4135 117.445 71.3156 118.132 71.2607 118.874C71.2334 119.56 72.3037 120.33 73.3467 121.648L73.374 121.621C74.3348 120.219 75.4059 119.313 75.2412 118.736ZM75.9521 89.229C74.6361 88.4876 73.8402 87.6643 73.1269 87.7192C72.5231 87.7472 71.3987 88.9827 71.5351 89.3677C71.7547 90.082 72.7158 90.9063 73.4844 91.0161C74.0286 91.0977 74.7628 90.1553 75.9521 89.229ZM75.5976 60.1372C74.5822 59.3956 73.9236 58.516 73.457 58.5981C72.7708 58.7355 72.2493 59.5604 71.6728 60.1099C72.2216 60.6043 72.7157 61.4277 73.3193 61.4829C73.8957 61.5378 74.5547 60.7965 75.5976 60.1372ZM75.4062 30.769C74.5005 30.0823 73.8689 29.2856 73.4297 29.3677C72.7983 29.5051 72.3312 30.2745 71.7822 30.769C72.3037 31.2085 72.7705 31.9775 73.3193 32.0327C73.8409 32.0876 74.4455 31.3734 75.4062 30.769ZM75.9521 89.229C75.953 89.2295 75.9542 89.2305 75.9551 89.231L75.9824 89.2036C75.972 89.2117 75.9625 89.2209 75.9521 89.229ZM95.3896 514.533C95.4444 510.879 92.507 507.995 88.6641 507.94C84.6838 507.858 81.6094 510.742 81.6094 514.478C81.6368 518.104 84.6288 520.934 88.4717 520.934L88.4717 520.961C92.3147 520.961 95.3347 518.159 95.3896 514.533ZM95.3896 485.357C95.3347 481.731 92.3422 478.928 88.4717 478.956L88.499 478.928C84.6563 478.928 81.6643 481.758 81.6367 485.412C81.6367 489.148 84.7113 492.033 88.6641 491.951C92.5071 491.868 95.4445 489.011 95.3896 485.357ZM95.1973 543.792C95.1973 540.275 92.2604 537.445 88.5273 537.417C84.7941 537.39 81.7746 540.137 81.7197 543.654C81.6648 547.28 84.6843 550.165 88.5273 550.137C92.2604 550.11 95.2246 547.28 95.2246 543.763L95.1973 543.792ZM95.2793 456.098C95.279 452.582 92.315 449.752 88.6094 449.752C84.7664 449.752 81.747 452.637 81.8018 456.263C81.8567 459.78 84.8762 462.527 88.6094 462.5C92.3425 462.472 95.2791 459.643 95.2793 456.126L95.2793 456.098ZM94.8408 572.995C94.8134 569.616 91.9855 567.06 88.417 567.06C84.8211 567.088 82.0489 569.698 82.0488 573.077C82.0488 576.483 84.7938 579.12 88.3623 579.148C92.0404 579.175 94.8955 576.483 94.8408 572.995ZM94.9502 426.868C95.0049 423.379 92.1499 420.687 88.4717 420.742C84.9034 420.797 82.1583 423.434 82.1582 426.813C82.1582 430.192 84.9307 432.802 88.499 432.83L88.499 432.802C92.0675 432.802 94.8953 430.219 94.9502 426.868ZM94.456 602.554C94.5382 599.45 91.7657 596.758 88.4443 596.758C85.2054 596.758 82.4878 599.285 82.4053 602.334C82.3229 605.439 85.0956 608.131 88.417 608.131C91.6561 608.131 94.3737 605.604 94.456 602.554ZM94.5937 397.28C94.5113 394.231 91.7935 391.731 88.582 391.731C85.2606 391.731 82.4606 394.423 82.543 397.555C82.6256 400.604 85.3432 403.104 88.5547 403.104C91.876 403.104 94.6761 400.412 94.5937 397.28ZM93.9346 631.868C94.0167 629.038 91.4089 626.511 88.417 626.511C85.5347 626.511 82.9546 628.819 82.8174 631.566C82.6802 634.368 85.2052 636.923 88.2246 637.033C91.1892 637.143 93.907 634.697 93.9619 631.868L93.9346 631.868ZM94.1543 367.99C94.0966 365.162 91.4075 362.72 88.417 362.83C85.3975 362.94 82.8725 365.494 83.0098 368.296C83.147 371.044 85.6997 373.351 88.6094 373.324C91.5933 373.324 94.1947 370.81 94.1543 367.99ZM93.4951 661.154C93.4951 658.571 91.1071 656.319 88.3896 656.319C85.6446 656.291 83.2559 658.544 83.2559 661.126C83.2559 663.709 85.6448 665.961 88.3623 665.961C91.1072 665.989 93.4951 663.736 93.4951 661.154ZM93.7148 338.736C93.7148 336.153 91.3269 333.928 88.6094 333.928C85.8918 333.928 83.504 336.181 83.5039 338.763C83.5039 341.346 85.8918 343.571 88.6094 343.571C91.3269 343.571 93.7148 341.318 93.7148 338.736ZM92.9736 690.384C92.8913 688.022 90.7225 686.072 88.2519 686.126C85.7816 686.182 83.6961 688.242 83.751 690.577C83.8334 692.912 86.0013 694.862 88.4717 694.807L88.4717 694.834C90.9422 694.78 93.0285 692.719 92.9736 690.384ZM93.248 309.505C93.3029 307.17 91.2174 305.11 88.7471 305.055C86.2766 305 84.1077 306.978 84.0254 309.313C83.9705 311.648 86.0568 313.708 88.5273 313.763C90.9977 313.818 93.1657 311.84 93.248 309.505ZM92.4521 719.725C92.4247 717.61 90.5036 715.879 88.2803 715.907C86.0568 715.962 84.2177 717.775 84.2451 719.863C84.2728 721.978 86.1937 723.709 88.417 723.681C90.6405 723.626 92.4796 721.813 92.4521 719.725ZM92.7812 280.137C92.8361 278.049 90.9696 276.236 88.7461 276.181C86.5228 276.154 84.6018 277.912 84.5742 280C84.5193 282.087 86.3859 283.901 88.6094 283.956C90.8327 283.983 92.7537 282.225 92.7812 280.137ZM91.9853 749.203C92.0126 747.197 90.3929 745.66 88.252 745.687C86.1385 745.715 84.5465 747.335 84.6562 749.34C84.7386 751.236 86.3583 752.637 88.3896 752.61C90.4209 752.582 91.9579 751.126 91.9853 749.203ZM92.3428 250.686C92.3151 248.763 90.7772 247.307 88.7461 247.28C86.7149 247.252 85.095 248.654 85.0127 250.549C84.903 252.555 86.4958 254.175 88.6094 254.203C90.7504 254.23 92.3702 252.691 92.3428 250.686ZM91.4639 778.818C91.7107 777.06 90.3937 775.604 88.5547 775.466C86.6881 775.329 85.1782 776.538 85.0684 778.296L85.041 778.324C84.9312 780.082 86.2487 781.539 88.1152 781.539C90.0367 781.539 91.2168 780.631 91.4639 778.818ZM88.9658 224.423C90.8048 224.286 92.1228 222.83 91.876 221.072C91.6289 219.259 90.4479 218.352 88.5264 218.352C86.66 218.352 85.3424 219.808 85.4521 221.593L85.4795 221.593C85.5893 223.351 87.0993 224.561 88.9658 224.423ZM90.9697 807.94C91.0521 806.923 89.6796 805.797 88.9385 804.698L87.7861 804.698C86.9902 805.687 85.7277 806.593 85.5078 807.692C85.1784 809.34 86.4962 810.686 88.2256 810.412C89.3234 810.219 90.8869 808.874 90.9697 807.94ZM91.2168 837.637C91.1893 837.28 91.1621 836.95 91.1621 836.593C90.2014 835.989 89.131 834.753 88.335 834.89C87.3194 835.082 86.0565 836.291 85.8643 837.252C85.7545 837.884 87.3188 839.396 88.1973 839.423C89.1855 839.478 90.2012 838.296 91.2168 837.665L91.2168 837.637ZM91.4365 191.922C91.3538 190.988 89.7893 189.643 88.6914 189.451C86.9621 189.176 85.6442 190.55 85.9736 192.17C86.1934 193.269 87.456 194.176 88.2246 195.165L89.4053 195.165C90.1464 194.066 91.5189 192.939 91.4365 191.922ZM91.2803 866.607C89.8923 865.622 89.1 864.616 88.3623 864.643C87.5937 864.671 86.8525 865.714 86.1113 866.319C86.8249 867.061 87.4012 868.16 88.252 868.379C88.8804 868.516 89.8365 867.51 91.2803 866.607ZM91.7109 162.225C90.6953 161.593 89.6796 160.411 88.6914 160.466C87.813 160.494 86.2486 162.033 86.3584 162.637C86.5507 163.599 87.8135 164.807 88.8291 165C89.6251 165.137 90.6956 163.901 91.6562 163.269C91.6562 162.912 91.6835 162.582 91.7109 162.225ZM90.8877 895.961C89.6799 895.055 88.9386 894.093 88.3896 894.175C87.6211 894.313 86.6883 895.138 86.4687 895.852C86.3321 896.264 87.4568 897.472 88.0605 897.5C88.8017 897.554 89.5702 896.731 90.8877 895.961ZM90.4756 925.165C89.4326 924.45 88.8284 923.681 88.252 923.708C87.6482 923.736 87.1271 924.561 86.5508 925.028C87.1269 925.577 87.6209 926.428 88.2793 926.593C88.7459 926.703 89.4599 925.879 90.5029 925.165L90.4756 925.165ZM90.2842 954.533C89.3511 953.874 88.7744 953.186 88.2529 953.186C87.7039 953.214 87.1817 953.955 86.6602 954.395C87.1817 954.89 87.6216 955.686 88.2529 955.851C88.6647 955.96 89.3511 955.164 90.2842 954.533ZM91.8486 133.269C90.3938 132.362 89.4321 131.345 88.8008 131.51C87.9501 131.73 87.3462 132.829 86.6601 133.571C87.4013 134.175 88.1425 135.219 88.9111 135.247C89.6523 135.274 90.4487 134.258 91.8486 133.269ZM91.4639 103.928C90.1739 103.159 89.3778 102.363 88.6367 102.39C88.0328 102.418 86.9078 103.626 87.0176 104.039C87.2373 104.753 88.17 105.577 88.9385 105.714C89.4875 105.797 90.2287 104.835 91.4365 103.928L91.4639 103.928ZM91.1074 74.6978C90.0644 73.9835 89.3504 73.1593 88.8838 73.269C88.225 73.4338 87.7307 74.285 87.1543 74.8345C87.7307 75.3015 88.2525 76.1263 88.8564 76.1538C89.4328 76.181 90.0371 75.4119 91.0801 74.6978L91.1074 74.6978ZM90.9424 45.3296C90.0091 44.6978 89.3228 43.9004 88.9111 44.0103C88.2799 44.1752 87.8408 44.9727 87.3193 45.4946C87.8407 45.9341 88.3623 46.6749 88.9111 46.7026C89.4326 46.7026 90.0092 46.0162 90.9424 45.3569L90.9424 45.3296ZM91.2803 866.607C91.2865 866.611 91.2925 866.616 91.2988 866.621L91.2988 866.593C91.2923 866.597 91.2868 866.603 91.2803 866.607ZM110.734 500.192C110.736 500.105 110.734 500.018 110.731 499.931C110.734 499.845 110.736 499.758 110.734 499.67C110.652 496.236 107.523 493.379 103.872 493.461C100.304 493.544 97.3389 496.401 97.3389 499.752C97.337 499.983 97.3499 500.21 97.375 500.435C97.5442 503.656 100.437 506.348 103.899 506.428C107.55 506.51 110.707 503.653 110.762 500.192L110.734 500.192ZM110.624 529.039C110.597 525.687 107.523 522.802 103.981 522.83C100.44 522.857 97.3935 525.769 97.4209 529.121C97.4483 532.472 100.523 535.357 104.063 535.33C107.604 535.302 110.651 532.39 110.624 529.039ZM110.68 470.796C110.707 467.445 107.66 464.533 104.119 464.505C100.578 464.505 97.5031 467.363 97.4482 470.714C97.4209 474.066 100.468 476.978 104.009 477.005C107.55 477.005 110.625 474.148 110.68 470.796ZM110.295 558.599C110.377 555.138 107.687 552.472 104.063 552.472C100.523 552.445 97.7777 554.945 97.6953 558.242C97.613 561.703 100.303 564.368 103.927 564.368C107.468 564.395 110.212 561.896 110.295 558.599ZM110.377 441.236C110.294 437.939 107.55 435.44 104.036 435.467C100.413 435.495 97.7224 438.159 97.8047 441.593C97.887 444.89 100.632 447.39 104.146 447.363C107.769 447.335 110.459 444.67 110.377 441.236ZM109.911 587.665C109.856 584.56 107.193 582.142 103.927 582.169L103.899 582.198C100.633 582.225 98.0247 584.725 98.0244 587.801C98.0244 590.878 100.633 593.378 103.899 593.406C107.276 593.433 109.993 590.851 109.911 587.665ZM110.048 412.198C110.13 409.011 107.412 406.429 104.036 406.484C100.77 406.511 98.1623 409.011 98.1621 412.087C98.1621 415.164 100.77 417.664 104.036 417.692C107.303 417.719 109.965 415.275 110.048 412.198ZM109.526 617.06C109.499 614.23 106.836 611.785 103.844 611.868L103.872 611.84C100.853 611.923 98.2995 614.478 98.4092 617.28C98.519 620.027 101.044 622.363 103.954 622.363C106.946 622.39 109.554 619.89 109.526 617.06ZM109.691 382.774C109.719 379.945 107.111 377.472 104.119 377.472C101.21 377.472 98.6843 379.807 98.5469 382.554C98.4371 385.356 100.989 387.911 103.981 387.994L104.009 387.994C106.973 388.076 109.664 385.631 109.691 382.774ZM109.032 646.484C109.06 643.929 106.726 641.648 103.981 641.621C101.264 641.593 98.8478 643.819 98.8203 646.401C98.7929 648.956 101.127 651.236 103.872 651.263C106.589 651.29 109.005 649.066 109.032 646.484ZM109.252 353.351C109.224 350.769 106.809 348.544 104.092 348.599C101.347 348.627 99.0136 350.906 99.041 353.489C99.0685 356.071 101.484 358.297 104.201 358.242C106.946 358.214 109.279 355.933 109.252 353.351ZM108.565 675.906C108.648 673.543 106.617 671.511 104.119 671.401L104.146 671.374C101.649 671.291 99.4244 673.159 99.2871 675.522C99.1501 677.884 101.099 680 103.597 680.165C106.177 680.329 108.483 678.378 108.565 675.906ZM108.812 323.928C108.73 321.456 106.424 319.505 103.844 319.669C101.346 319.834 99.3695 321.95 99.5342 324.313C99.6715 326.675 101.868 328.544 104.365 328.434L104.365 328.461C106.863 328.352 108.895 326.291 108.812 323.928ZM108.044 705.028C107.989 702.885 106.178 701.209 103.927 701.208C101.566 701.181 99.6993 702.994 99.7539 705.219C99.8088 707.362 101.621 709.039 103.872 709.039C106.232 709.066 108.099 707.253 108.044 705.028ZM108.346 294.834C108.4 292.609 106.534 290.796 104.174 290.824C101.923 290.824 100.112 292.499 100.057 294.642C100.002 296.867 101.868 298.681 104.229 298.654C106.479 298.654 108.291 296.977 108.346 294.834ZM107.522 734.478C107.522 732.555 106.013 731.071 103.981 731.016C101.868 730.961 100.193 732.473 100.193 734.478C100.193 736.401 101.731 737.884 103.734 737.939C105.848 737.994 107.522 736.483 107.522 734.478ZM107.88 265.384C107.88 263.379 106.205 261.869 104.092 261.923C102.088 261.978 100.551 263.489 100.551 265.384C100.551 267.39 102.225 268.901 104.339 268.846C106.37 268.791 107.88 267.28 107.88 265.384ZM107.056 763.708L107.056 763.736C107.001 761.978 105.546 760.659 103.68 760.796C101.758 760.934 100.687 761.978 100.632 763.791C100.549 765.549 101.977 766.84 103.871 766.84C105.738 766.84 107.111 765.494 107.056 763.708ZM107.44 236.154C107.495 234.368 106.122 233.049 104.256 233.022C102.362 233.022 100.934 234.313 101.017 236.098C101.071 237.911 102.142 238.956 104.063 239.093C105.93 239.231 107.385 237.912 107.44 236.154ZM107.138 792.61C106.095 791.868 105.107 790.714 103.954 790.522C102.197 790.247 100.769 791.511 101.099 793.131C101.291 794.175 102.746 795.632 103.734 795.687C104.805 795.769 105.985 794.45 107.138 793.736L107.138 792.61ZM106.754 822.94C106.726 822.583 106.699 822.252 106.699 821.895C105.738 821.291 104.667 820.055 103.871 820.192C102.855 820.384 101.593 821.594 101.401 822.555C101.292 823.187 102.856 824.698 103.734 824.725C104.723 824.78 105.738 823.599 106.754 822.967L106.754 822.94ZM107.55 206.126C106.397 205.412 105.217 204.093 104.146 204.175C103.158 204.23 101.703 205.714 101.483 206.731C101.154 208.352 102.581 209.615 104.338 209.34C105.491 209.148 106.479 207.967 107.522 207.252L107.522 206.126L107.55 206.126ZM106.863 851.648C105.381 850.796 104.503 849.862 103.762 849.945C102.993 850.055 102.362 851.154 101.676 851.813C102.417 852.472 103.131 853.544 103.981 853.681C104.64 853.791 105.491 852.664 106.863 851.648ZM107.248 176.868C106.232 176.236 105.217 175.055 104.229 175.11C103.35 175.137 101.786 176.675 101.895 177.28C102.088 178.241 103.35 179.451 104.365 179.643C105.161 179.78 106.233 178.544 107.193 177.912C107.193 177.555 107.221 177.225 107.248 176.868ZM105.519 880.961C105.601 880.44 104.558 879.753 103.57 878.626C102.802 879.89 101.95 880.659 102.005 881.346C102.06 881.923 103.377 882.966 103.789 882.83C104.558 882.582 105.409 881.676 105.519 880.961ZM107.326 148.163C105.972 147.153 105.129 146.072 104.476 146.154C103.625 146.291 102.911 147.363 102.143 148.022C102.829 148.681 103.46 149.78 104.229 149.89C104.969 149.972 105.847 149.041 107.326 148.163ZM105.793 939.698C104.832 939.121 104.201 938.461 103.68 938.516C103.131 938.599 102.691 939.368 102.197 939.835C102.774 940.302 103.268 941.071 103.899 941.181C104.339 941.263 104.942 940.412 105.82 939.698L105.793 939.698ZM105.271 910.495C105.409 910.055 104.557 909.34 103.871 908.324L103.844 908.324C103.048 909.258 102.197 909.808 102.197 910.357C102.225 910.906 103.048 911.483 103.515 912.033C104.146 911.538 105.052 911.126 105.271 910.495ZM106.067 118.901C105.957 118.187 105.107 117.28 104.366 117.06C103.954 116.923 102.637 117.968 102.582 118.544C102.528 119.225 103.336 119.987 104.125 121.231C105.112 120.108 106.15 119.422 106.067 118.901ZM105.849 89.3677C105.629 88.736 104.723 88.324 104.119 87.8296C103.652 88.379 102.828 88.9559 102.801 89.5054C102.801 90.0548 103.652 90.6046 104.448 91.5386C105.134 90.5221 105.986 89.8073 105.849 89.3677ZM106.452 60.1646C105.574 59.4503 104.969 58.5988 104.558 58.6812C103.926 58.7912 103.432 59.5599 102.855 60.0269C103.349 60.4938 103.789 61.2636 104.338 61.3462C104.859 61.4011 105.491 60.7415 106.452 60.1646ZM104.125 121.231C104.123 121.233 104.121 121.234 104.119 121.236L104.146 121.264C104.14 121.253 104.132 121.242 104.125 121.231ZM107.33 148.16C107.329 148.161 107.328 148.162 107.326 148.163C107.337 148.17 107.347 148.179 107.357 148.187L107.33 148.16ZM125.805 514.368C125.777 511.071 123.059 508.516 119.573 508.516C116.06 508.489 113.315 511.044 113.287 514.34C113.232 517.664 115.895 520.275 119.381 520.33C123.004 520.385 125.805 517.774 125.805 514.368ZM125.832 485.439C125.832 482.033 123.031 479.423 119.436 479.478C115.949 479.533 113.287 482.171 113.314 485.467C113.342 488.764 116.087 491.291 119.601 491.291L119.601 491.319C123.087 491.319 125.832 488.736 125.832 485.439ZM125.667 543.803C125.685 540.733 122.889 538.049 119.628 537.995C116.389 537.912 113.506 540.522 113.396 543.626C113.287 546.786 116.17 549.56 119.546 549.56C122.836 549.533 125.66 546.875 125.667 543.803ZM125.749 456.043C125.749 452.967 122.922 450.301 119.655 450.274C116.279 450.274 113.37 453.077 113.479 456.236C113.589 459.34 116.443 461.922 119.71 461.868C122.977 461.813 125.776 459.12 125.749 456.043ZM125.283 573.131C125.338 570.082 122.894 567.692 119.683 567.637C116.444 567.582 113.864 569.862 113.781 572.884C113.671 576.044 116.197 578.516 119.519 578.516C122.73 578.516 125.256 576.208 125.283 573.159L125.283 573.131ZM125.365 426.675C125.338 423.626 122.839 421.319 119.601 421.319C116.279 421.319 113.753 423.791 113.863 426.951C113.946 429.972 116.526 432.253 119.765 432.198C122.976 432.143 125.42 429.752 125.393 426.675L125.365 426.675ZM124.898 602.472C124.926 599.615 122.565 597.335 119.546 597.334C116.526 597.307 114.11 599.56 114.11 602.39C114.083 605.247 116.444 607.527 119.463 607.527C122.482 607.554 124.898 605.302 124.898 602.472ZM125.036 397.363C125.036 394.533 122.62 392.281 119.601 392.308C116.581 392.308 114.221 394.588 114.248 397.445C114.248 400.274 116.663 402.527 119.683 402.5C122.702 402.5 125.063 400.22 125.036 397.363ZM124.514 631.868C124.568 629.285 122.18 627.005 119.436 627.005C116.8 627.005 114.467 629.175 114.412 631.675C114.357 634.258 116.745 636.538 119.49 636.539C122.125 636.539 124.459 634.368 124.514 631.868ZM124.733 367.966C124.678 365.466 122.373 363.324 119.71 363.296C116.965 363.297 114.577 365.576 114.632 368.159C114.687 370.659 116.993 372.802 119.655 372.83C122.4 372.83 124.788 370.549 124.733 367.966ZM124.075 661.043C124.02 658.708 121.879 656.731 119.408 656.758C116.938 656.786 114.824 658.819 114.852 661.154C114.907 663.489 117.048 665.466 119.519 665.439C121.989 665.411 124.103 663.379 124.075 661.043ZM124.294 338.792C124.321 336.456 122.235 334.422 119.765 334.395C117.294 334.368 115.126 336.346 115.099 338.681C115.071 341.016 117.157 343.049 119.628 343.077C122.098 343.104 124.266 341.126 124.294 338.792ZM123.581 690.439C123.581 688.296 121.797 686.594 119.546 686.539C117.158 686.484 115.264 688.241 115.264 690.466C115.264 692.609 117.048 694.313 119.299 694.368C121.659 694.422 123.581 692.664 123.581 690.439ZM123.855 309.396C123.855 307.171 121.961 305.412 119.573 305.467C117.322 305.522 115.538 307.253 115.538 309.396C115.538 311.621 117.432 313.379 119.793 313.324C122.044 313.269 123.828 311.539 123.828 309.396L123.855 309.396ZM123.087 719.863C123.142 717.83 121.549 716.292 119.408 716.292C117.377 716.319 115.813 717.747 115.758 719.67C115.703 721.703 117.295 723.242 119.436 723.242C121.467 723.214 123.032 721.758 123.087 719.863ZM123.416 279.945C123.361 278.049 121.796 276.593 119.765 276.593C117.624 276.593 116.005 278.132 116.06 280.165C116.114 282.088 117.679 283.516 119.71 283.516C121.851 283.516 123.471 281.978 123.416 279.945ZM122.593 749.066C122.51 747.253 121.439 746.209 119.518 746.099C117.651 745.989 116.196 747.308 116.169 749.066C116.142 750.852 117.514 752.17 119.381 752.17C121.275 752.17 122.675 750.852 122.593 749.066ZM123.389 778.352C121.55 777.143 120.534 776.017 119.381 775.852C117.624 775.632 116.444 776.868 116.499 778.572C116.554 780.275 117.817 781.456 119.546 781.099C120.699 780.852 121.632 779.671 123.389 778.352ZM122.978 250.769C123.06 248.983 121.66 247.665 119.766 247.665C117.899 247.665 116.499 248.983 116.554 250.769C116.581 252.527 118.036 253.846 119.902 253.736C121.824 253.626 122.895 252.582 122.978 250.769ZM123.77 221.459C122.033 220.177 121.103 218.982 119.957 218.736C118.228 218.379 116.965 219.56 116.91 221.263C116.855 222.966 118.009 224.203 119.766 223.956C120.918 223.791 121.933 222.64 123.77 221.459ZM120.918 895.906C120.342 895.356 119.847 894.532 119.161 894.368C118.694 894.258 117.98 895.109 116.965 895.851L116.992 895.851C118.035 896.538 118.667 897.307 119.243 897.252C119.82 897.197 120.369 896.4 120.918 895.906ZM119.958 810.549C120.617 809.643 121.907 808.599 121.742 807.857C121.523 806.895 120.123 806.208 119.244 805.384C118.421 806.181 116.966 806.95 116.966 807.774C116.911 808.708 118.173 809.67 118.859 810.604C119.216 810.604 119.601 810.549 119.958 810.549ZM122.4 837.115C120.946 836.181 120.122 835.22 119.381 835.275C118.612 835.33 117.926 836.401 117.213 837.033C117.954 837.747 118.585 838.845 119.436 839.01C120.067 839.148 120.973 838.076 122.4 837.115ZM122.181 191.978C122.345 191.236 121.055 190.192 120.396 189.286C120.049 189.286 119.675 189.235 119.326 189.232C118.64 190.166 117.377 191.126 117.404 192.06C117.404 192.884 118.859 193.654 119.683 194.451C120.561 193.627 121.961 192.94 122.181 191.978ZM121.056 866.648C121.11 865.961 120.286 865.192 119.518 863.928C118.53 865.054 117.487 865.741 117.569 866.263C117.652 866.977 118.612 867.582 119.216 868.242C119.875 867.72 121.001 867.225 121.056 866.648ZM121.521 103.928C120.973 103.461 120.451 102.638 119.848 102.583C119.271 102.528 118.64 103.297 117.597 103.984L117.569 103.984C118.584 104.725 119.298 105.549 119.765 105.467C120.451 105.302 120.945 104.478 121.521 103.928ZM122.895 162.719C121.467 161.758 120.561 160.686 119.93 160.824C119.079 160.989 118.447 162.088 117.706 162.802C118.42 163.434 119.106 164.505 119.875 164.56C120.616 164.615 121.467 163.653 122.895 162.719ZM121.357 925.247C120.452 924.56 119.902 923.819 119.381 923.819C118.832 923.819 118.283 924.56 117.734 924.972C118.228 925.494 118.64 926.291 119.271 926.483C119.683 926.62 120.397 925.851 121.357 925.247ZM121.577 133.187C121.522 132.61 120.397 132.115 119.738 131.593C119.134 132.253 118.173 132.857 118.091 133.572C118.009 134.094 119.052 134.781 120.04 135.879L120.04 135.907C120.809 134.643 121.632 133.874 121.577 133.187ZM121.989 74.5874C121.029 73.9832 120.315 73.2152 119.931 73.3521C119.299 73.5444 118.887 74.3408 118.393 74.8628C118.942 75.2749 119.491 76.0161 120.04 76.0161C120.562 76.0161 121.111 75.2742 122.017 74.5874L121.989 74.5874ZM123.773 221.456C123.772 221.456 123.771 221.459 123.77 221.459C123.78 221.467 123.79 221.475 123.801 221.483L123.773 221.456ZM141.018 499.904C141.124 496.867 138.735 494.364 135.494 494.148C132.2 493.956 129.455 496.209 129.181 499.313C129.161 499.545 129.157 499.775 129.166 500.001C129.163 500.173 129.167 500.347 129.181 500.522C129.428 503.626 132.2 505.878 135.494 505.659C138.734 505.443 141.123 502.94 141.018 499.904ZM140.875 529.121C140.93 525.961 138.376 523.572 135.027 523.599C131.788 523.627 129.318 525.962 129.291 529.011C129.236 532.17 131.789 534.56 135.138 534.533C138.377 534.505 140.848 532.17 140.875 529.121ZM140.929 470.659C140.928 467.609 138.431 465.274 135.192 465.247C131.843 465.247 129.29 467.61 129.317 470.796C129.317 473.846 131.816 476.181 135.055 476.208C138.404 476.208 140.956 473.846 140.929 470.659ZM140.683 558.324C140.627 555.467 137.965 553.049 134.973 553.104C131.953 553.159 129.373 555.659 129.428 558.489C129.483 561.346 132.146 563.763 135.138 563.708C138.157 563.653 140.738 561.153 140.683 558.324ZM140.765 441.484C140.82 438.654 138.267 436.154 135.247 436.099C132.255 436.044 129.592 438.489 129.537 441.319C129.482 444.148 132.035 446.649 135.055 446.704C138.047 446.759 140.71 444.313 140.765 441.484ZM140.243 587.939C140.353 585.164 138.157 582.912 135.247 582.83C132.282 582.72 129.921 584.808 129.812 587.555C129.702 590.33 131.898 592.582 134.808 592.665C137.772 592.774 140.133 590.686 140.243 587.939ZM140.381 411.868C140.271 409.121 137.91 407.033 134.945 407.143C132.036 407.253 129.84 409.478 129.922 412.28C130.032 415.027 132.393 417.115 135.357 417.005C138.267 416.895 140.463 414.67 140.381 411.868ZM139.886 617.143C139.913 614.506 137.8 612.5 135.027 612.5C132.337 612.5 130.279 614.396 130.169 616.923C130.059 619.533 132.118 621.62 134.891 621.675C137.69 621.73 139.858 619.753 139.886 617.143ZM140.051 382.665C140.023 380.055 137.855 378.076 135.082 378.131C132.31 378.186 130.252 380.274 130.334 382.912C130.416 385.439 132.502 387.307 135.192 387.334C137.965 387.334 140.078 385.302 140.051 382.692L140.051 382.665ZM139.447 646.346C139.392 644.066 137.333 642.17 134.918 642.198C132.502 642.253 130.498 644.203 130.525 646.483C130.58 648.763 132.639 650.659 135.055 650.631C137.47 650.576 139.474 648.626 139.447 646.346ZM139.667 353.434C139.694 351.154 137.69 349.203 135.274 349.175C132.859 349.148 130.8 351.044 130.745 353.324C130.718 355.604 132.722 357.555 135.138 357.583C137.553 357.61 139.612 355.714 139.667 353.434ZM139.035 675.742C139.008 673.764 137.169 672.006 135.083 671.951C132.914 671.896 130.938 673.736 130.937 675.796C130.965 677.774 132.804 679.532 134.891 679.587C137.059 679.642 139.035 677.802 139.035 675.742ZM139.282 324.066C139.282 322.006 137.306 320.164 135.138 320.219C133.052 320.274 131.212 322.06 131.185 324.01C131.185 326.071 133.161 327.912 135.329 327.857C137.415 327.802 139.255 326.016 139.282 324.066ZM138.568 705.302C138.678 703.462 137.141 701.814 135.165 701.704C133.216 701.594 131.459 703.049 131.35 704.917C131.24 706.758 132.777 708.406 134.753 708.516C136.702 708.626 138.458 707.17 138.568 705.302ZM138.871 294.505C138.761 292.637 137.004 291.182 135.055 291.292C133.078 291.402 131.542 293.05 131.651 294.89C131.761 296.758 133.518 298.214 135.467 298.104C137.443 297.994 138.981 296.346 138.871 294.505ZM138.103 734.313C137.855 732.555 136.839 731.484 134.891 731.511C132.969 731.566 131.899 732.61 131.816 734.451C131.734 736.209 133.244 737.555 135.11 737.417C137.059 737.253 137.965 736.154 138.103 734.313ZM137.608 763.901C137.69 762.866 136.315 761.75 135.569 760.687L134.396 760.687C133.6 761.676 132.365 762.582 132.146 763.681C131.844 765.302 133.161 766.676 134.891 766.374C135.961 766.209 137.526 764.835 137.608 763.901ZM138.459 265.495C138.349 263.654 137.416 262.555 135.467 262.39C133.6 262.253 132.091 263.599 132.173 265.357C132.255 267.198 133.326 268.241 135.247 268.296C137.196 268.324 138.212 267.225 138.459 265.495ZM137.992 235.906C137.909 234.972 136.372 233.599 135.274 233.434C133.545 233.132 132.227 234.505 132.529 236.154C132.722 237.253 133.984 238.159 134.78 239.148L135.934 239.148C136.675 238.077 138.075 236.95 137.992 235.906ZM137.718 793.461C137.69 793.132 137.663 792.802 137.663 792.472C136.675 791.895 135.632 790.852 134.698 790.934C133.875 791.016 132.447 792.472 132.584 793.077C132.776 793.983 134.039 795.192 134.945 795.275C135.796 795.357 136.785 794.148 137.718 793.489L137.718 793.461ZM137.965 822.334C136.483 821.455 135.603 820.522 134.862 820.604C134.066 820.687 133.435 821.786 132.749 822.445C133.518 823.132 134.204 824.203 135.055 824.34C135.686 824.45 136.565 823.351 137.937 822.334L137.965 822.334ZM137.525 852.005C136.345 851.071 135.631 850.082 135.082 850.165C134.314 850.275 133.655 851.182 132.969 851.731C133.518 852.363 134.04 853.406 134.644 853.461C135.385 853.516 136.181 852.72 137.525 852.005ZM138.156 206.318C137.223 205.658 136.235 204.45 135.384 204.533C134.478 204.615 133.216 205.824 133.023 206.73C132.886 207.334 134.313 208.791 135.137 208.874C136.07 208.956 137.113 207.884 138.102 207.334C138.102 207.005 138.129 206.676 138.156 206.346L138.156 206.318ZM138.404 177.5C137.032 176.483 136.153 175.385 135.521 175.495C134.671 175.632 133.984 176.703 133.216 177.39C133.902 178.049 134.533 179.148 135.329 179.231C136.07 179.313 136.949 178.379 138.432 177.5L138.404 177.5ZM136.346 881.098C136.263 880.549 135.385 880.082 134.836 879.587C134.287 880.164 133.436 880.686 133.299 881.318C133.216 881.757 134.149 882.362 134.973 883.296C135.659 882.28 136.428 881.62 136.346 881.098ZM136.235 910.384C136.345 910 135.494 909.368 134.808 908.489C134.122 909.368 133.381 909.917 133.408 910.412C133.436 910.934 134.232 911.401 134.698 911.896C135.247 911.401 136.071 910.989 136.235 910.384ZM138.047 147.802C136.702 147.088 135.906 146.291 135.165 146.346C134.561 146.401 134.039 147.472 133.49 148.077C134.176 148.626 134.835 149.533 135.604 149.643C136.152 149.725 136.867 148.736 138.074 147.802L138.047 147.802ZM136.895 118.708C136.977 118.187 136.208 117.527 135.521 116.51C134.698 117.444 133.765 118.077 133.848 118.489C133.985 119.121 134.836 119.642 135.385 120.219C135.934 119.725 136.812 119.258 136.895 118.708ZM136.812 89.4233C136.647 88.819 135.823 88.4071 135.274 87.9126C134.808 88.407 134.012 88.8741 133.984 89.396C133.957 89.8904 134.699 90.4399 135.385 91.3188C136.071 90.4398 136.921 89.808 136.812 89.4233ZM135.549 760.66C135.555 760.669 135.563 760.678 135.569 760.687L135.576 760.687L135.549 760.66ZM156.109 514.422C156.137 511.648 153.694 509.258 150.729 509.203C147.792 509.148 145.24 511.429 145.13 514.231C145.02 516.978 147.408 519.423 150.372 519.56C153.392 519.697 156.082 517.307 156.109 514.422ZM156.137 485.357C156.109 482.472 153.446 480.082 150.399 480.219C147.435 480.357 145.047 482.802 145.156 485.577C145.266 488.379 147.82 490.659 150.757 490.604L150.757 490.577C153.721 490.522 156.164 488.132 156.137 485.357ZM155.862 543.708C155.862 540.906 153.638 538.763 150.674 538.763C147.572 538.736 145.294 540.962 145.349 543.874C145.404 546.676 147.682 548.736 150.674 548.708L150.674 548.681C153.638 548.654 155.862 546.511 155.862 543.708ZM155.944 456.043C155.944 453.241 153.721 451.099 150.757 451.071L150.729 451.098C147.737 451.071 145.458 453.159 145.403 455.934C145.349 458.846 147.627 461.043 150.729 461.016C153.693 460.989 155.917 458.846 155.944 456.043ZM155.615 573.269C155.78 570.714 153.419 568.351 150.674 568.296C148.039 568.242 145.651 570.357 145.514 572.857C145.349 575.412 147.709 577.774 150.454 577.83C153.089 577.885 155.478 575.769 155.615 573.269ZM155.725 426.483C155.587 423.983 153.199 421.867 150.592 421.922C147.847 421.977 145.486 424.34 145.65 426.922C145.788 429.422 148.176 431.538 150.784 431.483C153.529 431.428 155.889 429.065 155.725 426.483ZM155.23 602.472C155.258 600.082 153.337 598.105 150.812 597.995C148.176 597.885 145.98 599.78 145.87 602.252C145.76 604.725 147.792 606.785 150.427 606.84C153.062 606.895 155.203 604.945 155.23 602.472ZM155.423 397.334C155.395 394.862 153.254 392.911 150.619 392.966L150.592 392.966C147.957 393.021 145.925 395.083 146.035 397.583C146.118 400.055 148.313 401.95 150.976 401.813C153.501 401.703 155.45 399.725 155.423 397.334ZM154.819 631.813C154.847 629.533 153.09 627.774 150.702 627.719C148.287 627.637 146.392 629.285 146.282 631.538C146.172 633.928 148.012 635.769 150.51 635.769C152.925 635.769 154.737 634.093 154.792 631.813L154.819 631.813ZM154.983 367.966C154.956 365.686 153.117 364.01 150.701 364.038C148.203 364.038 146.365 365.879 146.475 368.269C146.585 370.522 148.451 372.142 150.866 372.087C153.254 372.005 155.011 370.274 154.983 367.994L154.983 367.966ZM154.489 661.154C154.517 659.176 152.705 657.389 150.592 657.362C148.478 657.334 146.612 659.038 146.557 661.043C146.529 663.021 148.341 664.807 150.454 664.834C152.568 664.862 154.434 663.159 154.489 661.154ZM154.71 338.626C154.683 336.621 152.787 334.917 150.674 334.945C148.56 334.973 146.749 336.759 146.776 338.764C146.804 340.769 148.698 342.472 150.812 342.445C152.925 342.417 154.737 340.632 154.71 338.626ZM154.051 690.495C154.078 688.682 152.404 687.005 150.482 687.087C148.424 687.17 147.188 688.324 146.941 690.248C146.722 692.006 148.423 693.709 150.345 693.792C152.239 693.874 153.996 692.308 154.051 690.495ZM154.325 309.313C154.298 307.5 152.541 305.934 150.619 306.016C148.698 306.099 146.996 307.802 147.215 309.56C147.462 311.483 148.67 312.638 150.756 312.72C152.677 312.803 154.353 311.099 154.325 309.313ZM153.584 719.533C153.2 717.967 152.266 716.785 150.29 716.895C148.506 716.977 147.407 718.049 147.407 719.752C147.435 721.566 148.588 722.637 150.51 722.637C152.459 722.637 153.419 721.456 153.611 719.505L153.584 719.533ZM153.94 280.275C153.748 278.324 152.788 277.143 150.866 277.143C148.945 277.143 147.792 278.215 147.765 280.055C147.765 281.758 148.862 282.83 150.646 282.913C152.623 283.022 153.583 281.841 153.968 280.275L153.94 280.275ZM150.235 751.539C151.855 751.978 153.255 750.879 153.062 749.258C152.953 748.187 151.882 747.198 151.224 746.154L151.196 746.126C150.785 746.099 150.345 746.099 149.934 746.099C149.22 747.088 147.901 748.077 147.901 749.039C147.902 749.918 149.22 751.264 150.235 751.539ZM152.733 778.516C152.871 777.719 151.663 776.703 151.031 775.796L151.059 775.742L149.988 775.742C149.302 776.648 148.149 777.555 148.149 778.434C148.15 779.203 149.604 780.659 150.235 780.577C151.196 780.467 152.569 779.368 152.733 778.516ZM153.446 250.522C153.638 248.901 152.239 247.802 150.619 248.242C149.603 248.517 148.286 249.863 148.286 250.742C148.286 251.703 149.576 252.692 150.317 253.681C150.729 253.681 151.168 253.654 151.58 253.626C152.239 252.583 153.309 251.593 153.446 250.522ZM152.376 807.747C152.54 807.142 151.47 806.235 150.51 804.862C149.467 806.18 148.396 806.95 148.424 807.637C148.479 808.379 149.577 809.066 150.208 809.78C150.977 809.121 152.156 808.543 152.376 807.747ZM152.948 837.065C151.84 836.3 151.053 835.386 150.51 835.495C149.769 835.632 149.192 836.593 148.533 837.198C149.192 837.747 149.823 838.682 150.592 838.792C151.14 838.874 151.88 837.888 152.948 837.065ZM151.415 223.983C152.046 223.076 153.254 222.06 153.117 221.263C152.952 220.412 151.58 219.313 150.619 219.203C149.988 219.121 148.533 220.577 148.533 221.346C148.534 222.225 149.686 223.131 150.345 224.038L151.415 224.038L151.415 223.983ZM151.882 866.428C151.799 865.879 150.921 865.412 150.372 864.917C149.823 865.494 148.972 866.016 148.835 866.648C148.753 867.088 149.686 867.692 150.51 868.626C151.196 867.61 151.964 866.95 151.882 866.428ZM152.44 895.703C151.463 895.101 150.863 894.423 150.345 894.478C149.796 894.533 149.329 895.302 148.835 895.769C149.384 896.264 149.878 897.006 150.51 897.143C150.919 897.224 151.545 896.413 152.44 895.703ZM152.815 192.033C152.596 191.236 151.415 190.659 150.646 190C150.015 190.714 148.917 191.4 148.862 192.142C148.807 192.829 149.905 193.599 150.948 194.917C151.909 193.544 152.98 192.637 152.815 192.033ZM153.446 162.747C152.376 161.923 151.635 160.934 151.086 161.016C150.317 161.126 149.686 162.06 149 162.637C149.659 163.242 150.235 164.175 150.976 164.34C151.525 164.45 152.321 163.516 153.446 162.747ZM152.432 133.379C152.514 132.857 151.745 132.198 151.059 131.181C150.235 132.115 149.301 132.748 149.384 133.16C149.521 133.791 150.373 134.313 150.922 134.89C151.471 134.396 152.349 133.929 152.432 133.379ZM153.035 104.121C152.129 103.406 151.498 102.582 151.086 102.692C150.455 102.829 149.961 103.571 149.412 104.066C149.906 104.533 150.373 105.302 150.922 105.357C151.443 105.411 152.047 104.725 153.035 104.121ZM152.44 895.703C152.446 895.706 152.452 895.711 152.458 895.714L152.458 895.687C152.452 895.692 152.447 895.698 152.44 895.703ZM152.953 837.06C152.951 837.061 152.95 837.064 152.948 837.065C152.959 837.072 152.97 837.08 152.98 837.087L152.953 837.06ZM171.262 499.752C171.289 497.198 168.956 494.918 166.211 494.89C163.493 494.863 161.077 497.088 161.05 499.67C161.049 499.744 161.052 499.816 161.055 499.889C161.052 499.962 161.049 500.036 161.05 500.11C161.077 502.692 163.493 504.918 166.211 504.89C168.956 504.863 171.289 502.582 171.262 500C171.261 499.958 171.258 499.917 171.257 499.876C171.258 499.835 171.261 499.794 171.262 499.752ZM171.097 529.121C171.152 526.593 168.983 524.423 166.293 524.34C163.521 524.231 161.16 526.456 161.16 529.066C161.188 531.593 163.412 533.736 166.102 533.736C168.764 533.736 171.042 531.648 171.097 529.121ZM171.152 470.631C171.097 468.104 168.819 466.016 166.156 466.016C163.466 466.016 161.243 468.159 161.215 470.686C161.215 473.296 163.576 475.494 166.349 475.412C169.039 475.329 171.207 473.131 171.152 470.631ZM170.85 558.242C170.767 555.852 168.709 553.983 166.184 553.983C163.521 553.955 161.462 555.934 161.462 558.434C161.462 560.906 163.603 562.857 166.238 562.802L166.266 562.83C168.901 562.775 170.932 560.742 170.85 558.242ZM170.878 441.539C170.96 439.039 168.929 437.006 166.294 436.951L166.075 436.951C163.554 437.018 161.544 438.924 161.518 441.346C161.518 443.846 163.576 445.824 166.211 445.796C168.736 445.796 170.795 443.901 170.878 441.539ZM170.548 587.775C170.575 585.522 168.572 583.544 166.156 583.516C163.741 583.489 161.654 585.384 161.627 587.665C161.599 589.917 163.603 591.896 166.019 591.923C168.434 591.951 170.52 590.055 170.548 587.775ZM170.686 411.978C170.658 409.698 168.572 407.802 166.156 407.83C163.741 407.857 161.71 409.835 161.765 412.115C161.792 414.395 163.878 416.291 166.294 416.263C168.709 416.235 170.74 414.258 170.686 411.978ZM170.191 617.005C170.164 614.89 168.242 613.16 166.019 613.187C163.795 613.242 161.956 615.055 161.983 617.143C162.011 619.258 163.933 620.989 166.156 620.961C168.38 620.906 170.219 619.093 170.191 617.005ZM170.355 382.774C170.41 380.686 168.544 378.873 166.32 378.818C164.097 378.791 162.176 380.549 162.148 382.637C162.094 384.725 163.96 386.538 166.184 386.593C168.407 386.621 170.328 384.862 170.355 382.774ZM169.725 646.428C169.752 644.423 168.105 642.885 165.964 642.94C163.933 642.995 162.396 644.45 162.396 646.374C162.368 648.379 164.015 649.918 166.156 649.863C168.187 649.808 169.725 648.351 169.725 646.428ZM169.944 353.352C169.944 351.429 168.407 349.973 166.376 349.917C164.235 349.863 162.588 351.401 162.615 353.407C162.615 355.33 164.152 356.785 166.184 356.84C168.325 356.895 169.972 355.357 169.944 353.352ZM169.423 675.659C169.286 673.901 168.242 672.775 166.238 672.61C164.317 672.445 162.67 673.901 162.725 675.714C162.78 677.61 163.878 678.736 165.882 678.901C167.776 679.066 169.368 677.609 169.396 675.659L169.423 675.659ZM169.643 324.121C169.642 322.17 168.05 320.742 166.129 320.879C164.125 321.044 163.027 322.17 162.972 324.066C162.917 325.879 164.564 327.335 166.458 327.17C168.462 327.006 169.505 325.851 169.643 324.121ZM169.45 704.505C168.325 703.736 167.281 702.528 166.046 702.335C164.344 702.061 163.191 703.297 163.026 704.972C162.862 706.483 164.564 708.242 166.074 707.83C167.309 707.472 168.325 706.373 169.45 705.604L169.45 704.505ZM169.752 294.148C168.627 293.379 167.611 292.281 166.376 291.923C164.866 291.511 163.165 293.269 163.329 294.78C163.494 296.456 164.647 297.692 166.349 297.417C167.584 297.225 168.627 296.016 169.752 295.247L169.752 294.148ZM169.066 734.917C169.039 734.533 169.038 734.148 169.038 733.763C168.023 733.159 166.924 731.978 166.019 732.087C165.031 732.225 163.713 733.461 163.493 734.395C163.136 735.961 164.454 737.115 166.129 736.813C167.199 736.621 168.078 735.577 169.066 734.917ZM169.395 264.863C168.435 264.203 167.529 263.16 166.458 262.967C164.784 262.665 163.466 263.818 163.823 265.384C164.043 266.318 165.36 267.555 166.349 267.692C167.254 267.801 168.353 266.62 169.368 266.016C169.368 265.632 169.368 265.247 169.395 264.863ZM169.258 763.901C167.748 762.83 166.898 761.731 166.102 761.786C165.278 761.841 163.933 762.967 163.905 763.681C163.878 764.368 165.086 765.604 165.909 765.742C166.678 765.879 167.638 764.835 169.258 763.901ZM168.874 793.214C167.584 792.225 166.76 791.209 166.156 791.292C165.36 791.429 164.318 792.308 164.07 793.077C163.906 793.516 165.114 794.835 165.772 794.89C166.568 794.945 167.419 794.038 168.874 793.214ZM168.215 822.5C167.227 821.758 166.65 820.962 166.074 820.961C165.47 820.989 164.894 821.785 164.29 822.225C164.839 822.829 165.278 823.681 165.937 823.874C166.376 824.011 167.144 823.187 168.215 822.528L168.215 822.5ZM169.643 235.878C168.023 234.945 167.062 233.902 166.294 234.039C165.47 234.176 164.263 235.412 164.29 236.126C164.318 236.841 165.662 237.967 166.485 238.022C167.281 238.077 168.133 236.978 169.67 235.907L169.643 235.878ZM169.313 206.539C167.859 205.714 167.007 204.835 166.211 204.89C165.552 204.945 164.345 206.263 164.481 206.703C164.728 207.472 165.745 208.351 166.568 208.489C167.172 208.571 167.995 207.527 169.285 206.566L169.313 206.539ZM167.31 851.703C167.254 851.208 166.403 850.796 165.909 850.33C165.415 850.852 164.619 851.346 164.509 851.951C164.437 852.311 165.122 852.777 165.809 853.44L166.074 853.708C166.678 852.802 167.392 852.197 167.31 851.703ZM168.709 177.225C167.638 176.566 166.87 175.769 166.431 175.878C165.772 176.071 165.305 176.95 164.783 177.527C165.387 177.966 165.964 178.763 166.568 178.763C167.145 178.763 167.721 177.967 168.709 177.225ZM167.803 148.049C167.885 147.555 167.172 146.95 166.568 146.043L166.303 146.313C165.616 146.976 164.931 147.442 165.003 147.802C165.113 148.406 165.909 148.901 166.403 149.422C166.897 148.956 167.748 148.544 167.803 148.049ZM186.223 514.395C186.25 512.17 184.191 510.192 181.83 510.11C179.387 510.028 177.137 512.06 177.137 514.395C177.109 516.62 179.168 518.599 181.528 518.681C183.971 518.764 186.223 516.73 186.223 514.395ZM186.25 485.357C186.25 483.022 184.026 480.988 181.556 481.071C179.195 481.153 177.137 483.159 177.137 485.384C177.137 487.719 179.36 489.753 181.83 489.67C184.191 489.588 186.25 487.582 186.25 485.357ZM185.92 543.846C186.002 541.566 184.3 539.78 181.912 539.67C179.387 539.561 177.41 541.291 177.41 543.654C177.383 545.934 179.168 547.664 181.556 547.719C183.971 547.747 185.838 546.099 185.92 543.846ZM186.03 455.878C185.948 453.626 184.081 451.978 181.665 452.033L181.638 452.005C179.25 452.06 177.466 453.791 177.493 456.071C177.493 458.433 179.47 460.164 181.995 460.054C184.383 459.944 186.113 458.159 186.03 455.878ZM185.756 572.995C185.728 570.879 183.806 569.148 181.583 569.175C179.36 569.23 177.521 571.044 177.548 573.131C177.575 575.247 179.497 576.978 181.721 576.951C183.944 576.896 185.783 575.082 185.756 572.995ZM185.865 426.758C185.92 424.67 184.054 422.857 181.83 422.802C179.607 422.775 177.686 424.533 177.658 426.621C177.603 428.708 179.47 430.522 181.693 430.577C183.917 430.604 185.838 428.846 185.865 426.758ZM185.344 602.39C185.344 600.357 183.779 598.874 181.61 598.874C179.469 598.874 177.877 600.357 177.877 602.39C177.877 604.423 179.442 605.907 181.61 605.907C183.751 605.907 185.344 604.423 185.344 602.39ZM185.509 397.363C185.509 395.33 183.944 393.846 181.775 393.846C179.607 393.846 178.042 395.33 178.042 397.39C178.042 399.423 179.607 400.907 181.775 400.907C183.944 400.907 185.509 399.423 185.509 397.363ZM185.097 631.675C185.069 629.945 183.395 628.434 181.556 628.461C179.716 628.489 178.124 630.082 178.151 631.813C178.179 633.571 179.853 635.054 181.692 635.027C183.532 634.999 185.124 633.406 185.097 631.675ZM185.289 368.077C185.316 366.346 183.724 364.78 181.885 364.725C180.046 364.698 178.371 366.209 178.344 367.94C178.317 369.671 179.909 371.237 181.748 371.292C183.587 371.319 185.262 369.807 185.289 368.077ZM184.685 661.154C184.52 659.368 183.559 658.186 181.61 658.159C179.826 658.131 178.673 659.148 178.536 660.824C178.399 662.664 179.497 663.818 181.418 663.928C183.367 664.038 184.382 662.912 184.712 661.154L184.685 661.154ZM184.932 338.571C184.63 336.813 183.587 335.687 181.638 335.796C179.716 335.906 178.619 337.088 178.756 338.901C178.866 340.577 180.046 341.593 181.83 341.566C183.779 341.538 184.74 340.357 184.904 338.571L184.932 338.571ZM178.893 778.461L178.921 778.489C178.922 778.488 178.924 778.487 178.926 778.486C178.915 778.478 178.904 778.469 178.893 778.461ZM184.136 690.33C184.053 689.45 182.653 688.186 181.638 687.966C179.991 687.609 178.674 688.791 178.948 690.384C179.14 691.456 180.266 692.389 180.979 693.378L182.27 693.378C182.956 692.362 184.218 691.291 184.136 690.33ZM183.34 778.351C182.681 777.802 182.05 776.868 181.281 776.758C180.733 776.676 179.994 777.662 178.926 778.486C180.033 779.25 180.82 780.163 181.363 780.054C182.104 779.917 182.681 778.955 183.34 778.351ZM184.41 309.451C184.492 308.489 183.23 307.417 182.544 306.401L181.254 306.401L181.254 306.374C180.54 307.362 179.415 308.296 179.223 309.395C178.948 310.988 180.266 312.17 181.913 311.813C182.929 311.593 184.327 310.33 184.41 309.451ZM184.355 719.23C183.395 718.626 182.407 717.555 181.474 717.583C180.65 717.61 179.141 719.01 179.25 719.615C179.387 720.494 180.595 721.785 181.501 721.895C182.352 722.005 183.395 720.824 184.355 720.219L184.355 719.23ZM183.779 221.374C183.12 220.769 182.544 219.834 181.803 219.669C181.254 219.56 180.457 220.494 179.332 221.263C180.402 222.087 181.143 223.076 181.692 222.994C182.461 222.884 183.093 221.95 183.779 221.374ZM184.603 749.066C183.148 748.132 182.324 747.17 181.583 747.225C180.815 747.28 180.129 748.352 179.415 748.984C180.156 749.698 180.787 750.796 181.638 750.961C182.269 751.099 183.175 750.027 184.603 749.066ZM184.685 279.505C183.724 278.901 182.681 277.72 181.83 277.83C180.924 277.94 179.716 279.231 179.579 280.137C179.469 280.742 180.979 282.143 181.775 282.17C182.709 282.198 183.697 281.126 184.657 280.522L184.657 279.505L184.685 279.505ZM184.959 250.687C183.532 249.725 182.625 248.654 181.994 248.792C181.144 248.957 180.512 250.055 179.771 250.769C180.485 251.401 181.171 252.473 181.939 252.528C182.681 252.583 183.532 251.621 184.959 250.687ZM183.779 807.884C182.791 807.115 182.214 806.319 181.638 806.319C181.034 806.319 180.457 807.116 179.854 807.555C180.402 808.132 180.842 809.01 181.501 809.203C181.94 809.34 182.709 808.544 183.779 807.884ZM183.532 837.252C182.654 836.538 182.132 835.769 181.61 835.769C181.062 835.742 180.485 836.456 179.937 836.868C180.431 837.417 180.814 838.242 181.418 838.434C181.83 838.571 182.544 837.829 183.532 837.252ZM184.218 191.868C183.147 191.208 182.379 190.412 181.939 190.549C181.281 190.742 180.842 191.621 180.293 192.198C180.897 192.637 181.473 193.434 182.077 193.434C182.654 193.434 183.23 192.637 184.218 191.868ZM184.026 162.5C183.038 161.923 182.324 161.181 181.912 161.319C181.308 161.511 180.924 162.335 180.43 162.884C180.979 163.269 181.555 164.01 182.104 163.983C182.626 163.983 183.148 163.214 184.026 162.5ZM201.348 499.588C201.265 497.501 199.316 495.741 197.12 495.824C194.924 495.906 193.057 497.748 193.14 499.835C193.14 499.848 193.142 499.861 193.143 499.874C193.142 499.888 193.14 499.903 193.14 499.917C193.057 502.005 194.897 503.846 197.12 503.901C199.316 503.956 201.293 502.225 201.348 500.137C201.351 500.044 201.351 499.951 201.347 499.859C201.35 499.769 201.351 499.679 201.348 499.588ZM201.183 529.093C201.21 527.115 199.398 525.33 197.284 525.302C195.171 525.275 193.277 526.978 193.249 528.983C193.222 530.961 195.034 532.747 197.147 532.775C199.261 532.802 201.155 531.099 201.183 529.093ZM201.21 470.631C201.182 468.626 199.288 466.923 197.175 466.951C195.061 466.978 193.25 468.764 193.277 470.769C193.305 472.775 195.199 474.478 197.312 474.451C199.426 474.423 201.237 472.637 201.21 470.631ZM200.854 558.407C200.881 556.484 199.371 554.973 197.367 554.89C195.226 554.808 193.523 556.318 193.523 558.324C193.496 560.247 195.006 561.758 197.01 561.84C199.151 561.923 200.853 560.412 200.854 558.407ZM200.936 441.318C200.935 439.313 199.233 437.802 197.092 437.912C195.088 437.994 193.579 439.505 193.606 441.428C193.606 443.434 195.308 444.944 197.449 444.834C199.453 444.752 200.963 443.241 200.936 441.318ZM200.523 587.995C200.743 586.209 199.316 584.56 197.395 584.56C195.391 584.56 194.128 585.522 193.881 587.417C193.634 589.231 195.089 590.769 197.12 590.878L197.147 590.851C198.986 590.796 200.276 589.917 200.523 587.995ZM197.449 415.137C199.371 415.137 200.798 413.488 200.578 411.703C200.332 409.785 199.048 408.934 197.217 408.848C195.192 408.964 193.744 410.525 193.963 412.307C194.21 414.203 195.473 415.165 197.449 415.137ZM200.276 617.005C199.974 615.22 198.987 614.093 197.038 614.148C195.254 614.203 194.128 615.247 194.101 616.951C194.046 618.764 195.199 619.917 197.12 619.917C199.069 619.945 200.057 618.791 200.276 617.005ZM200.441 382.719C200.222 380.934 199.234 379.78 197.312 379.807C195.391 379.807 194.238 380.962 194.293 382.775C194.321 384.478 195.445 385.522 197.229 385.577C199.178 385.632 200.194 384.505 200.469 382.719L200.441 382.719ZM197.229 649.066C199.041 649.011 200.277 647.829 199.893 646.181C199.618 645.082 198.355 644.231 196.955 642.583L196.955 642.554C195.72 644.312 194.512 645.275 194.348 646.374C194.101 648.049 195.418 649.148 197.229 649.066ZM200.112 353.543C200.496 351.895 199.261 350.715 197.449 350.66C195.638 350.577 194.321 351.676 194.567 353.351C194.732 354.45 195.94 355.412 197.175 357.143C198.575 355.495 199.865 354.615 200.112 353.543ZM199.48 675.989C199.371 675.027 198.163 673.736 197.175 673.489C196.543 673.324 194.814 674.698 194.704 675.522C194.594 676.429 195.748 677.5 196.352 678.489L196.379 678.516L197.449 678.516C198.163 677.665 199.563 676.73 199.48 675.989ZM199.755 323.736C199.837 322.994 198.465 322.06 197.724 321.208L196.653 321.208L196.626 321.236C196.022 322.225 194.869 323.297 194.979 324.204C195.089 325.028 196.79 326.401 197.449 326.236C198.437 325.989 199.645 324.697 199.755 323.736ZM200.38 705.033C198.836 704.05 197.883 702.995 197.12 703.104C196.297 703.214 195.033 704.396 195.033 705.11C195.033 705.797 196.324 706.978 197.147 707.06C197.915 707.142 198.82 706.075 200.38 705.033ZM198.959 734.478C198.986 733.736 198.025 732.967 197.092 731.621C196.104 732.912 195.061 733.709 195.171 734.286C195.308 735.055 196.297 735.989 197.12 736.181C197.587 736.29 198.959 735.11 198.959 734.478ZM200.641 294.684C199.088 293.672 198.187 292.61 197.422 292.665C196.598 292.747 195.308 293.928 195.28 294.615C195.28 295.329 196.516 296.511 197.367 296.621C198.132 296.73 199.088 295.669 200.641 294.684ZM199.288 265.248C199.288 264.616 197.916 263.434 197.449 263.543C196.626 263.736 195.638 264.67 195.473 265.439C195.363 266.016 196.406 266.813 197.395 268.104L197.422 268.104C198.355 266.758 199.315 265.989 199.288 265.248ZM198.575 763.654C198.685 763.242 197.807 762.555 197.065 761.566C196.324 762.527 195.501 763.104 195.528 763.654C195.556 764.231 196.406 764.725 196.9 765.274C197.504 764.752 198.383 764.285 198.575 763.654ZM198.437 793.049C198.355 792.527 197.531 792.115 197.037 791.648C196.543 792.17 195.748 792.637 195.61 793.242C195.528 793.654 196.406 794.231 197.175 795.055C197.806 794.149 198.492 793.544 198.437 793.049ZM198.959 236.071C198.767 235.439 197.888 235 197.284 234.451C196.79 235 195.94 235.494 195.885 236.071C195.857 236.62 196.681 237.197 197.422 238.159L197.449 238.159C198.19 237.17 199.069 236.483 198.959 236.071ZM198.877 206.675C198.959 206.181 198.245 205.604 197.614 204.67C196.846 205.494 195.968 206.071 196.05 206.483C196.187 207.087 196.982 207.555 197.477 208.077C197.971 207.61 198.795 207.197 198.877 206.675ZM197.202 408.846C197.207 408.846 197.212 408.848 197.217 408.848C197.221 408.848 197.225 408.846 197.229 408.846L197.202 408.846ZM200.387 705.028C200.384 705.029 200.382 705.031 200.38 705.033C200.391 705.04 200.403 705.048 200.414 705.055L200.387 705.028ZM200.641 294.684C200.647 294.688 200.654 294.693 200.661 294.698L200.661 294.67C200.654 294.675 200.648 294.68 200.641 294.684ZM216.226 514.422C216.28 512.664 214.688 511.098 212.821 511.071C210.982 511.016 209.335 512.528 209.28 514.286C209.225 516.044 210.818 517.61 212.685 517.637C214.524 517.692 216.171 516.181 216.226 514.422ZM216.253 485.275C216.225 483.517 214.551 482.005 212.712 482.06C210.845 482.088 209.253 483.681 209.308 485.412C209.335 487.17 211.01 488.681 212.849 488.626C214.715 488.599 216.308 487.006 216.253 485.275ZM215.924 543.681C215.704 541.895 214.743 540.769 212.794 540.769C210.845 540.742 209.748 541.785 209.61 543.598C209.501 545.329 210.955 546.73 212.821 546.648C214.77 546.566 215.732 545.467 215.924 543.681ZM215.979 456.043C215.786 454.258 214.853 453.159 212.877 453.077C211.01 452.994 209.555 454.396 209.665 456.154C209.802 457.967 210.9 459.01 212.849 458.983C214.798 458.983 215.759 457.829 215.979 456.043ZM212.574 575.851C214.194 576.016 216.06 574.422 215.621 572.994C215.264 571.813 214.084 570.851 213.288 569.78L212.107 569.78C211.311 570.851 210.022 571.84 209.802 572.994C209.5 574.615 210.817 575.686 212.574 575.851ZM215.731 426.703C216.17 425.274 214.304 423.682 212.685 423.846C210.928 424.039 209.609 425.109 209.911 426.703C210.131 427.857 211.422 428.846 212.218 429.917L213.397 429.917C214.221 428.846 215.375 427.884 215.731 426.703ZM215.621 632.163C215.62 631.808 215.566 631.481 215.566 631.126C214.606 630.522 213.508 629.286 212.712 629.451C211.696 629.643 210.954 630.961 210.104 631.813C210.954 632.582 211.778 633.955 212.656 633.956C213.635 633.983 214.642 632.825 215.621 632.163ZM215.759 601.868C214.771 601.181 213.892 600.137 212.821 599.945C211.147 599.643 209.83 600.797 210.187 602.363C210.379 603.297 211.724 604.533 212.685 604.67C213.59 604.807 214.689 603.626 215.704 603.022L215.731 603.022C215.759 602.637 215.759 602.252 215.759 601.868ZM215.924 397.83C215.924 397.445 215.924 397.06 215.896 396.675L215.868 396.675C214.853 396.071 213.754 394.891 212.849 395.028C211.888 395.166 210.544 396.402 210.352 397.335C209.995 398.901 211.312 400.055 212.986 399.752C214.057 399.56 214.936 398.516 215.924 397.83ZM215.841 367.555C214.853 366.896 213.837 365.714 212.849 365.742C211.97 365.742 211.147 367.115 210.296 367.884C211.147 368.736 211.888 370.055 212.903 370.248C213.699 370.412 214.798 369.176 215.786 368.572C215.786 368.224 215.838 367.902 215.841 367.555ZM215.712 660.895C214.241 660.019 213.367 659.066 212.629 659.175C211.86 659.285 211.229 660.384 210.543 661.043C211.312 661.703 211.998 662.774 212.849 662.912C213.477 662.994 214.351 661.907 215.712 660.895ZM214.523 690.604C214.605 689.838 213.681 689.018 212.86 687.628C211.795 688.826 210.681 689.563 210.763 690.137C210.873 690.906 211.778 691.923 212.574 692.17C213.014 692.307 214.441 691.236 214.523 690.604ZM215.951 338.819C214.579 337.802 213.727 336.703 213.068 336.813C212.217 336.95 211.504 338.022 210.763 338.708C211.449 339.368 212.08 340.467 212.849 340.577C213.59 340.687 214.469 339.725 215.951 338.846L215.951 338.819ZM214.88 719.725C213.837 719.011 213.234 718.242 212.657 718.269C212.053 718.297 211.531 719.12 210.955 719.587C211.531 720.137 212.026 720.989 212.685 721.154C213.151 721.29 213.865 720.439 214.907 719.725L214.88 719.725ZM214.798 309.093C214.743 308.461 213.288 307.389 212.849 307.527C212.053 307.774 211.147 308.791 211.037 309.56C210.955 310.134 212.069 310.872 213.135 312.071C213.983 310.68 214.88 309.832 214.798 309.093ZM214.687 749.148C213.782 748.461 213.233 747.72 212.712 747.719C212.163 747.719 211.613 748.461 211.064 748.874C211.558 749.395 211.97 750.192 212.602 750.384C213.013 750.522 213.727 749.752 214.687 749.148ZM215.237 279.972C214.194 279.258 213.48 278.434 213.014 278.543C212.355 278.708 211.861 279.56 211.284 280.11C211.861 280.577 212.382 281.401 212.986 281.428C213.563 281.455 214.166 280.686 215.209 279.972L215.237 279.972ZM215.045 250.549C214.084 249.945 213.371 249.176 212.986 249.313C212.355 249.505 211.943 250.302 211.449 250.824C211.998 251.236 212.547 251.978 213.096 251.978C213.617 251.978 214.167 251.236 215.072 250.549L215.045 250.549ZM212.849 687.61C212.852 687.616 212.857 687.622 212.86 687.628C212.866 687.622 212.871 687.616 212.876 687.61L212.849 687.61ZM213.135 312.071C213.131 312.077 213.127 312.082 213.123 312.087L213.15 312.087C213.145 312.082 213.14 312.076 213.135 312.071ZM215.621 632.163C215.621 632.165 215.621 632.168 215.621 632.17L215.648 632.143C215.639 632.149 215.63 632.156 215.621 632.163ZM215.712 660.895C215.718 660.899 215.724 660.903 215.73 660.907L215.73 660.879C215.724 660.884 215.718 660.89 215.712 660.895ZM231.734 499.203C230.636 498.406 229.648 497.17 228.413 496.922C226.711 496.565 225.531 497.802 225.284 499.45C225.266 499.577 225.261 499.706 225.268 499.835C225.261 499.965 225.266 500.093 225.284 500.219C225.531 501.868 226.711 503.076 228.413 502.747C229.648 502.499 230.636 501.263 231.734 500.439C231.734 500.239 231.734 500.03 231.729 499.822C231.734 499.613 231.734 499.404 231.734 499.203ZM231.433 528.434C230.362 527.775 229.264 526.566 228.248 526.621C227.315 526.648 225.915 527.939 225.668 528.901C225.256 530.439 226.464 531.704 228.166 531.484C229.319 531.347 230.335 530.302 231.405 529.643L231.433 529.643L231.433 528.434ZM231.46 470.027C230.39 469.395 229.373 468.352 228.221 468.187C226.519 467.967 225.312 469.231 225.724 470.769C225.971 471.731 227.371 473.022 228.276 473.049C229.292 473.104 230.39 471.895 231.46 471.208L231.46 470.027ZM230.526 558.434C230.664 557.638 229.457 556.621 228.825 555.714L227.754 555.714C227.095 556.621 225.943 557.527 225.942 558.406C225.97 559.175 227.425 560.604 228.057 560.522C229.017 560.384 230.389 559.286 230.526 558.434ZM228.907 443.983C229.539 443.076 230.774 442.06 230.637 441.263C230.499 440.412 229.127 439.313 228.166 439.175C227.534 439.093 226.08 440.522 226.053 441.319C226.053 442.198 227.206 443.104 227.864 444.01L228.935 444.01L228.907 443.983ZM231.289 587.661C229.865 586.728 229.015 585.741 228.275 585.824C227.479 585.906 226.821 586.978 226.107 587.61C226.848 588.297 227.508 589.395 228.358 589.56C229.012 589.669 229.882 588.616 231.289 587.661ZM231.413 412.019C229.997 411.061 229.124 410 228.495 410.11C227.644 410.275 226.985 411.373 226.244 412.06C226.958 412.692 227.617 413.764 228.413 413.846C229.151 413.928 229.998 412.949 231.413 412.019ZM231.131 617.143C229.841 616.182 229.044 615.137 228.413 615.219C227.617 615.357 226.574 616.236 226.327 617.005C226.162 617.445 227.369 618.763 228.028 618.819C228.824 618.874 229.676 617.967 231.131 617.143ZM229.95 646.208C229.868 645.632 228.77 645.137 228.111 644.615C227.535 645.274 226.574 645.879 226.464 646.593C226.382 647.115 227.425 647.775 228.413 648.901L228.413 648.928C229.182 647.664 230.033 646.895 229.95 646.208ZM231.322 382.527C229.868 381.703 229.017 380.823 228.221 380.878C227.562 380.933 226.354 382.252 226.491 382.692C226.738 383.461 227.782 384.341 228.578 384.478C229.209 384.56 230.005 383.516 231.295 382.554L231.322 382.527ZM229.703 675.604C229.813 675.192 228.934 674.505 228.193 673.516C227.452 674.477 226.629 675.055 226.656 675.604C226.684 676.181 227.535 676.676 228.029 677.225C228.633 676.703 229.511 676.236 229.703 675.604ZM230.17 353.516C230.252 352.829 229.401 352.06 228.633 350.796C227.645 351.923 226.602 352.582 226.684 353.131C226.793 353.846 227.755 354.451 228.331 355.11C228.99 354.588 230.115 354.093 230.17 353.516ZM229.566 705.028C229.484 704.506 228.66 704.093 228.166 703.626C227.672 704.148 226.876 704.615 226.738 705.219C226.656 705.631 227.535 706.209 228.304 707.033C228.935 706.127 229.621 705.522 229.566 705.028ZM229.95 324.066C229.758 323.434 228.88 322.994 228.276 322.445C227.782 322.994 226.931 323.489 226.876 324.066C226.849 324.615 227.672 325.192 228.413 326.154L228.44 326.154C229.182 325.165 230.06 324.478 229.95 324.066ZM229.868 294.67C229.951 294.176 229.237 293.599 228.605 292.665C227.837 293.489 226.958 294.066 227.04 294.478C227.177 295.082 227.974 295.55 228.468 296.072C228.962 295.605 229.786 295.192 229.868 294.67ZM231.289 587.661C231.291 587.662 231.293 587.663 231.295 587.665L231.322 587.637C231.311 587.645 231.3 587.653 231.289 587.661ZM231.413 412.019C231.42 412.023 231.426 412.028 231.433 412.033L231.433 412.005C231.426 412.01 231.42 412.015 231.413 412.019ZM246.667 514.698C246.64 514.368 246.612 514.038 246.612 513.708C245.624 513.132 244.609 512.088 243.676 512.143C242.852 512.198 241.424 513.654 241.534 514.258C241.699 515.165 242.961 516.401 243.867 516.484C244.718 516.566 245.706 515.357 246.64 514.725L246.667 514.698ZM246.668 484.945C245.735 484.313 244.746 483.105 243.896 483.187C242.99 483.269 241.726 484.505 241.562 485.412C241.452 486.016 242.88 487.472 243.703 487.527C244.636 487.582 245.652 486.538 246.641 485.961C246.641 485.632 246.668 485.302 246.695 484.972L246.668 484.945ZM246.695 543.819C245.405 542.83 244.609 541.785 244.005 541.868C243.181 541.978 242.139 542.857 241.892 543.626C241.755 544.066 242.934 545.384 243.593 545.439C244.389 545.494 245.268 544.643 246.723 543.819L246.695 543.819ZM246.777 455.824C245.323 455 244.444 454.149 243.648 454.204C242.99 454.259 241.81 455.576 241.946 456.043C242.193 456.813 243.236 457.692 244.06 457.802C244.663 457.885 245.46 456.84 246.75 455.851L246.777 455.824ZM245.844 631.703C244.911 631.043 244.334 630.357 243.812 630.357C243.264 630.385 242.742 631.126 242.221 631.566C242.742 632.06 243.181 632.857 243.812 633.022C244.224 633.132 244.91 632.335 245.844 631.703ZM245.322 573.104C245.267 572.527 244.417 572.005 243.923 571.483C243.346 572.005 242.44 572.472 242.275 573.104C242.138 573.544 243.044 574.203 243.785 575.192L243.785 575.219C244.554 574.23 245.35 573.653 245.322 573.104ZM245.158 602.335C245.076 601.813 244.279 601.374 243.785 600.907C243.264 601.429 242.467 601.895 242.33 602.5C242.248 602.912 243.127 603.489 243.868 604.34L243.868 604.313C244.499 603.407 245.213 602.83 245.158 602.335ZM245.405 426.566C245.432 426.022 244.653 425.452 243.893 424.482C243.125 425.469 242.248 426.127 242.357 426.566C242.522 427.198 243.428 427.665 244.005 428.187C244.499 427.665 245.378 427.143 245.405 426.566ZM246.036 367.966C245.103 367.334 244.417 366.538 244.005 366.648C243.374 366.813 242.935 367.609 242.413 368.131C242.935 368.571 243.456 369.313 244.005 369.34C244.526 369.34 245.103 368.653 246.036 367.994L246.036 367.966ZM245.322 397.307C245.377 396.813 244.663 396.236 244.032 395.33C243.291 396.181 242.413 396.786 242.495 397.17C242.633 397.775 243.429 398.241 243.95 398.736C244.444 398.269 245.24 397.829 245.322 397.307ZM243.867 424.451C243.875 424.461 243.884 424.471 243.893 424.482C243.894 424.481 243.895 424.479 243.896 424.478L243.867 424.451ZM262.287 499.78C260.997 498.818 260.201 497.775 259.569 497.857C258.773 497.994 257.731 498.873 257.483 499.642C257.467 499.685 257.467 499.736 257.476 499.793C257.446 499.885 257.437 499.964 257.456 500.027C257.703 500.796 258.746 501.676 259.542 501.813C260.173 501.895 260.97 500.852 262.26 499.89L262.287 499.862C262.264 499.849 262.242 499.835 262.219 499.822C262.242 499.809 262.264 499.793 262.287 499.78ZM260.887 528.874C260.997 528.434 260.091 527.774 259.322 526.813C258.609 527.802 257.785 528.406 257.84 528.928C257.895 529.505 258.746 530 259.268 530.522C259.844 529.973 260.722 529.505 260.887 528.874ZM260.914 470.769C260.749 470.137 259.871 469.67 259.295 469.121C258.773 469.643 257.922 470.137 257.867 470.714C257.812 471.236 258.609 471.841 259.35 472.83C260.118 471.868 261.024 471.181 260.914 470.769ZM277 514.478C276.122 513.764 275.6 512.994 275.078 512.994C274.529 512.967 273.953 513.681 273.404 514.093C273.898 514.643 274.283 515.466 274.887 515.659C275.298 515.796 276.012 515.055 277 514.478ZM277 485.137C276.012 484.56 275.299 483.819 274.887 483.956C274.283 484.148 273.898 484.973 273.404 485.522C273.953 485.907 274.529 486.648 275.078 486.621C275.6 486.621 276.122 485.852 277 485.137Z" fill="#E6E6C9"/>
</g>
<defs>
<clipPath id="clip0_8_1595">
<rect width="1000" height="277" fill="white" transform="matrix(-1.19249e-08 -1 -1 1.19249e-08 277 1000)"/>
</clipPath>
</defs>
</svg>
