<svg width="151" height="40" viewBox="0 0 151 40" fill="none" xmlns="http://www.w3.org/2000/svg">
<g clip-path="url(#clip0_5_1077)">
<path d="M32.2617 6.37305C32.3903 6.37188 32.5191 6.38359 32.6455 6.40723C33.0125 6.49377 33.3435 6.69201 33.5938 6.97461C33.8441 7.25736 34.0018 7.61062 34.0439 7.98633L36.5967 26.7764C36.7272 27.9091 37.0944 29.0018 37.6748 29.9824C41.1083 35.9205 50.6046 35.7432 50.9121 35.7432H122.644C123.297 35.7435 123.937 35.5508 124.482 35.1904C125.028 34.8301 125.457 34.3177 125.715 33.7158L127.581 29.3486H127.113C124.388 29.3486 123.591 28.504 122.833 26.5361L114.833 6.38965H119.341L126.595 24.3652C126.957 25.3576 127.29 25.5859 128.36 25.5859H129.203L137.46 6.38965H142.006L129.595 35.3418C129.021 36.6782 128.08 37.8242 126.883 38.6465C125.685 39.4687 124.28 39.9335 122.829 39.9873H48.7842C32.6367 39.9871 33.0791 24.1621 33.0791 24.1621L31.3516 24.1709C31.3534 24.245 31.7351 39.996 15.6465 39.9961H6.58887C5.21079 39.9468 3.87138 39.5256 2.71191 38.7773C1.55243 38.0289 0.615195 36.9805 0 35.7432H13.9023C15.7434 35.7178 23.6717 35.3205 26.7725 29.9824C27.3529 29.0018 27.72 27.9091 27.8506 26.7764L30.4043 7.98633C30.4465 7.61067 30.6032 7.25733 30.8535 6.97461C31.1039 6.69183 31.4356 6.49373 31.8027 6.40723C31.929 6.38363 32.0571 6.37191 32.1855 6.37305H32.2617ZM150.587 28.4531C150.666 28.4545 150.743 28.4782 150.81 28.5215C150.876 28.5648 150.929 28.6262 150.962 28.6982C150.994 28.772 151.004 28.8533 150.991 28.9326C150.979 29.0117 150.944 29.0855 150.891 29.1455L146.741 33.7236C146.626 33.8519 146.552 34.0131 146.53 34.1846V34.2607C146.549 34.4342 146.623 34.5966 146.741 34.7246L150.895 39.3076C150.944 39.3679 150.975 39.4405 150.985 39.5176C150.996 39.5948 150.985 39.6739 150.953 39.7451C150.922 39.8162 150.871 39.8777 150.808 39.9219C150.744 39.966 150.669 39.9917 150.592 39.9961C150.516 39.9961 150.442 39.9751 150.377 39.9365L144.622 36.376C144.489 36.2935 144.336 36.2503 144.18 36.25C144.031 36.2541 143.885 36.2971 143.758 36.376L138.004 39.9365C137.937 39.9746 137.861 39.9954 137.784 39.9961C137.705 39.9947 137.628 39.971 137.562 39.9277C137.495 39.8844 137.442 39.823 137.409 39.751C137.378 39.6778 137.369 39.597 137.382 39.5186C137.395 39.4402 137.429 39.3672 137.481 39.3076L141.631 34.7246C141.748 34.597 141.823 34.4364 141.846 34.2646V34.1885C141.826 34.0145 141.75 33.8513 141.631 33.7236L137.481 29.1455C137.426 29.0695 137.398 28.9776 137.401 28.8838C137.404 28.7901 137.438 28.7001 137.498 28.6279C137.558 28.5558 137.64 28.5055 137.731 28.4854C137.823 28.4653 137.919 28.4761 138.004 28.5166L143.737 32.0723C143.87 32.1537 144.022 32.1973 144.178 32.1973C144.333 32.1972 144.485 32.1535 144.617 32.0723L150.372 28.5166C150.436 28.4748 150.511 28.4526 150.587 28.4531ZM104.061 6.55078C109.381 6.55078 111.968 8.89465 111.968 13.7305C111.968 15.9856 111.383 17.6116 110.187 18.7012C108.893 19.8795 106.875 20.4541 104.015 20.4541H92.126V22.5195C92.1261 24.8591 93.6009 26.2061 96.1748 26.2061H110.768V30.3496H96.1748C89.409 30.3496 87.9932 26.1428 87.9932 22.6162V14.292C87.9932 10.7739 89.4091 6.55078 96.1748 6.55078H104.061ZM17.0371 -0.00390625C19.83 -0.00383389 21.9611 0.63402 23.3555 1.86719C24.7499 3.10043 25.4833 4.97981 25.5254 7.44629V11.3105C25.5246 11.3277 25.4785 12.2729 25.4033 12.6914C24.7503 16.277 22.0922 17.9667 17.0371 17.9668H4.39844V30.2139L0 30.21V8.21875C0.012642 5.58335 0.754454 3.55188 2.25 2.13281C3.74555 0.713864 5.94029 -0.00390625 8.77539 -0.00390625H17.0371ZM71.542 15.0439L79.5586 6.36426H85.1914L74.3604 18.2158L85.3516 30.1846H79.5928L71.3652 20.9229L62.9648 30.1846H57.3281L68.5928 17.751L58.124 6.36426H63.8369L71.542 15.0439ZM56.3545 10.4863H48.5273C46.2062 10.4864 45.0811 11.6186 45.0811 13.9414V30.1807C43.9273 30.0965 42.8475 29.5786 42.0586 28.7305C41.2696 27.8823 40.8295 26.7662 40.8262 25.6064V13.2021C40.8262 10.7359 41.2646 9.09742 42.2461 8.00781C43.2277 6.91817 44.8202 6.38574 47.1162 6.38574H52.5928L56.3545 10.4863ZM96.1748 10.6475C93.6008 10.6475 92.126 11.9903 92.126 14.3301V17.248H103.88C106.47 17.248 107.785 16.2138 107.785 14.0264C107.785 11.8387 106.445 10.6475 104.015 10.6475H96.1748ZM8.75879 4.74707C7.8274 4.72634 6.90692 4.95402 6.0918 5.40625C5.66152 5.66158 5.29214 6.0082 5.00977 6.42188C4.72742 6.83555 4.5386 7.30625 4.45703 7.80078C4.40784 8.10643 4.38846 8.41614 4.39844 8.72559V14.123H16.8896C19.1517 14.1229 20.5291 13.337 20.9756 11.7871C21.0699 11.455 21.1153 11.1109 21.1104 10.7656L21.0771 8.23145C21.0778 7.92655 21.0391 7.62233 20.9629 7.32715C20.6594 6.14891 19.724 4.74707 17.0029 4.74707H8.75879Z" fill="#F9F9EA"/>
</g>
<defs>
<clipPath id="clip0_5_1077">
<rect width="151" height="40" fill="white"/>
</clipPath>
</defs>
</svg>
