<svg width="203" height="54" viewBox="0 0 203 54" fill="none" xmlns="http://www.w3.org/2000/svg">
<g clip-path="url(#clip0_87_3227)">
<path d="M43.3721 8.54688C43.5447 8.54534 43.717 8.56018 43.8867 8.5918C44.3803 8.70779 44.8265 8.9743 45.1631 9.35352C45.4995 9.73261 45.7109 10.2063 45.7676 10.71L49.1992 35.9072C49.3747 37.4261 49.8692 38.8912 50.6494 40.2061C55.2648 48.1682 68.0284 47.9317 68.4443 47.9316H164.878C165.757 47.9321 166.617 47.6746 167.351 47.1914C168.084 46.7082 168.66 46.0201 169.007 45.2129L171.517 39.3564H170.888C167.223 39.3564 166.152 38.2242 165.133 35.585L154.378 8.56934H160.438L170.19 32.6738C170.677 34.0046 171.125 34.3105 172.563 34.3105H173.696L184.797 8.56934H190.908L174.224 47.3936C173.452 49.1857 172.187 50.7225 170.577 51.8252C168.967 52.9277 167.078 53.5508 165.128 53.623H65.584C43.8758 53.6228 44.4707 32.4014 44.4707 32.4014L42.1484 32.4131C42.1484 32.4131 42.7144 53.6348 21.0342 53.6348H8.85742C7.00471 53.5686 5.20427 53.0036 3.64551 52C2.08667 50.9963 0.827049 49.591 0 47.9316H18.6895C21.1644 47.8977 31.8238 47.3648 35.9922 40.2061C36.7724 38.8912 37.2669 37.4261 37.4424 35.9072L40.874 10.71C40.9307 10.2063 41.1421 9.73262 41.4785 9.35352C41.8151 8.9743 42.2613 8.70779 42.7549 8.5918C42.9246 8.56018 43.0969 8.54533 43.2695 8.54688H43.3721ZM202.445 38.1562C202.552 38.1582 202.655 38.19 202.744 38.248C202.833 38.3061 202.905 38.3878 202.949 38.4844C202.992 38.5832 203.005 38.6925 202.988 38.7988C202.971 38.9051 202.924 39.0044 202.853 39.085L197.274 45.2246C197.119 45.3966 197.02 45.6119 196.991 45.8418V45.9434C197.016 46.1761 197.115 46.3946 197.274 46.5664L202.858 52.7119C202.924 52.7927 202.966 52.8899 202.98 52.9932C202.994 53.0966 202.98 53.2024 202.938 53.2979C202.895 53.3934 202.827 53.4757 202.741 53.5352C202.655 53.5945 202.554 53.629 202.45 53.6348C202.349 53.6347 202.249 53.6073 202.162 53.5557L194.426 48.7812C194.247 48.6706 194.041 48.6118 193.831 48.6113C193.631 48.6168 193.435 48.6755 193.265 48.7812L185.527 53.5557C185.438 53.6066 185.336 53.6339 185.233 53.6348C185.127 53.6329 185.023 53.6011 184.934 53.543C184.845 53.4849 184.774 53.4021 184.729 53.3057C184.688 53.2077 184.674 53.1001 184.691 52.9951C184.708 52.8901 184.755 52.7919 184.825 52.7119L190.404 46.5664C190.562 46.3952 190.663 46.1797 190.693 45.9492V45.8477C190.667 45.6145 190.565 45.3958 190.404 45.2246L184.825 39.085C184.751 38.9831 184.714 38.8592 184.718 38.7334C184.722 38.6075 184.768 38.4865 184.849 38.3896C184.929 38.2929 185.04 38.2262 185.163 38.1992C185.286 38.1724 185.414 38.1871 185.527 38.2412L193.236 43.0098C193.414 43.1188 193.619 43.1768 193.828 43.1768C194.037 43.1767 194.242 43.1189 194.42 43.0098L202.156 38.2412C202.242 38.1851 202.343 38.1555 202.445 38.1562ZM139.896 8.78418C147.049 8.78424 150.526 11.9283 150.526 18.4131C150.526 21.4373 149.739 23.6179 148.131 25.0791C146.392 26.6591 143.679 27.4287 139.834 27.4287H123.852V30.1982C123.852 33.3358 125.834 35.1425 129.294 35.1426H148.913V40.6992H129.294C120.198 40.6992 118.295 35.0582 118.295 30.3291V19.166C118.295 14.4483 120.198 8.78422 129.294 8.78418H139.896ZM22.9033 -0.00488281C26.6583 -0.00488281 29.5248 0.850138 31.3994 2.50391C33.2738 4.15768 34.2588 6.67803 34.3154 9.98535V15.168C34.3141 15.1957 34.2522 16.4594 34.1514 17.0195C33.2735 21.8279 29.6996 24.0938 22.9033 24.0938H5.91309V40.5176L0 40.5117V11.0215C0.0170432 7.48754 1.01389 4.76327 3.02441 2.86035C5.03492 0.957527 7.98554 -0.00481883 11.7969 -0.00488281H22.9033ZM96.1787 20.1738L106.957 8.53516H114.529L99.9678 24.4277L114.744 40.4785H107.002L95.9414 28.0576L84.6484 40.4785H77.0703L92.2148 23.8047L78.1406 8.53516H85.8203L96.1787 20.1738ZM75.7617 14.0635H65.2393C62.1186 14.0635 60.6064 15.5813 60.6064 18.6963V40.4727C59.0553 40.3598 57.6037 39.6647 56.543 38.5273C55.4823 37.39 54.8902 35.894 54.8857 34.3389V17.7051C54.8857 14.3975 55.4753 12.1995 56.7949 10.7383C58.1146 9.27735 60.2554 8.56348 63.3418 8.56348H70.7041L75.7617 14.0635ZM129.294 14.2783C125.834 14.2784 123.852 16.0793 123.852 19.2168V23.1309H139.652C143.135 23.1309 144.903 21.7431 144.903 18.8096C144.903 15.8758 143.102 14.2783 139.834 14.2783H129.294ZM11.7744 6.36621C10.5223 6.33845 9.28523 6.64359 8.18945 7.25C7.61103 7.5924 7.11495 8.05758 6.73535 8.6123C6.35577 9.16702 6.10186 9.7978 5.99219 10.4609C5.92605 10.8708 5.89969 11.2862 5.91309 11.7012V18.9395H22.7051C25.7464 18.9395 27.5989 17.8861 28.1992 15.8076C28.3261 15.362 28.3866 14.8998 28.3799 14.4365L28.335 11.0391C28.3358 10.6303 28.284 10.2229 28.1816 9.82715C27.7739 8.24703 26.517 6.36626 22.8584 6.36621H11.7744Z" fill="#060411"/>
</g>
<defs>
<clipPath id="clip0_87_3227">
<rect width="203" height="53.6398" fill="white"/>
</clipPath>
</defs>
</svg>
